SplineFontDB: 3.0
FontName: lazer84
FullName: lazer84
FamilyName: lazer84
Weight: Book
Copyright: Typeface (c) (your company). 2015. All Rights Reserved
Version: 1.00 November 14, 2015, initial release
ItalicAngle: 0
UnderlinePosition: -292
UnderlineWidth: 150
Ascent: 1638
Descent: 410
InvalidEm: 0
sfntRevision: 0x00010000
LayerCount: 2
Layer: 0 1 "Back" 1
Layer: 1 1 "Fore" 0
XUID: [1021 719 -556635288 13193366]
StyleMap: 0x0040
FSType: 8
OS2Version: 1
OS2_WeightWidthSlopeOnly: 0
OS2_UseTypoMetrics: 0
CreationTime: 1447522710
ModificationTime: 1538917662
PfmFamily: 17
TTFWeight: 400
TTFWidth: 5
LineGap: 67
VLineGap: 0
Panose: 2 0 5 0 0 0 0 0 0 0
OS2TypoAscent: 1491
OS2TypoAOffset: 0
OS2TypoDescent: -431
OS2TypoDOffset: 0
OS2TypoLinegap: 307
OS2WinAscent: 1854
OS2WinAOffset: 0
OS2WinDescent: 434
OS2WinDOffset: 0
HheadAscent: 1854
HheadAOffset: 0
HheadDescent: -434
HheadDOffset: 0
OS2SubXSize: 1434
OS2SubYSize: 1331
OS2SubXOff: 0
OS2SubYOff: 283
OS2SupXSize: 1434
OS2SupYSize: 1331
OS2SupXOff: 0
OS2SupYOff: 977
OS2StrikeYSize: 102
OS2StrikeYPos: 530
OS2Vendor: 'HL  '
OS2CodePages: 20000111.41000000
OS2UnicodeRanges: 800000a7.5000004a.00000000.00000000
DEI: 91125
ShortTable: maxp 16
  1
  0
  236
  156
  6
  0
  0
  0
  0
  0
  0
  0
  0
  0
  0
  0
EndShort
LangName: 1033 "Typeface +AKkA (your company). 2015. All Rights Reserved" "" "Regular" "lazer84:Version 1.00" "" "Version 1.00 November 14, 2015, initial release" "" "" "" "" "This font was created using FontCreator 5.6 from High-Logic.com"
LangName: 1027 "" "" "Normal"
LangName: 1029 "" "" "oby+AQ0A-ejn+AOkA"
LangName: 1030 "" "" "normal"
LangName: 1031 "" "" "Standard"
LangName: 1032 "" "" "+A5oDsQO9A78DvQO5A7oDrAAA"
LangName: 1034 "" "" "Normal"
LangName: 1035 "" "" "Normaali"
LangName: 1036 "" "" "Normal"
LangName: 1038 "" "" "Norm+AOEA-l"
LangName: 1040 "" "" "Normale"
LangName: 1043 "" "" "Standaard"
LangName: 1044 "" "" "Normal"
LangName: 1045 "" "" "Normalny"
LangName: 1046 "" "" "Normal"

StartChar: .notdef
Encoding: 65536 -1 0
Width: 1024
Flags: W
LayerCount: 2
Fore
SplineSet
100 0 m 1,0,-1
 100 1434 l 1,1,-1
 924 1434 l 1,2,-1
 924 0 l 1,3,-1
 100 0 l 1,0,-1
150 50 m 1,4,-1
 874 50 l 1,5,-1
 874 1384 l 1,6,-1
 150 1384 l 1,7,-1
 150 50 l 1,4,-1
325 1148 m 1,8,9
 356 1176 356 1176 383 1191 c 0,10,11
 436 1221 436 1221 495 1221 c 0,12,13
 587 1221 587 1221 643 1173.5 c 128,-1,14
 699 1126 699 1126 699 1046 c 0,15,16
 699 997 699 997 676 947.5 c 128,-1,17
 653 898 653 898 589 818 c 0,18,19
 526 738 526 738 490 686 c 128,-1,20
 454 634 454 634 454 587 c 0,21,22
 454 549 454 549 478 454 c 1,23,-1
 446 454 l 1,24,25
 411 551 411 551 411 602 c 0,26,27
 411 678 411 678 492.5 820 c 128,-1,28
 574 962 574 962 574 1037 c 0,29,30
 574 1094 574 1094 541 1127 c 128,-1,31
 508 1160 508 1160 450 1160 c 0,32,33
 412 1160 412 1160 381 1143 c 0,34,35
 355 1128 355 1128 325 1103 c 1,36,-1
 325 1148 l 1,8,9
389 334 m 2,37,-1
 446 392 l 2,38,39
 457 402 457 402 466 402 c 0,40,41
 476 402 476 402 488 391 c 2,42,-1
 544 331 l 2,43,44
 553 320 553 320 553 311 c 0,45,46
 553 300 553 300 543 289 c 2,47,-1
 487 227 l 2,48,49
 473 213 473 213 466 213 c 0,50,51
 455 213 455 213 446 223 c 2,52,-1
 385 294 l 2,53,54
 378 303 378 303 378 312 c 0,55,56
 378 322 378 322 389 334 c 2,37,-1
EndSplineSet
EndChar

StartChar: exclam
Encoding: 33 33 4
Width: 672
Flags: W
LayerCount: 2
Fore
SplineSet
608 1471 m 1,0,-1
 616 1463 l 1,1,-1
 625 1463 l 1,2,-1
 633 1471 l 1,3,-1
 641 1471 l 1,4,5
 747 1433 747 1433 799 1346 c 1,6,-1
 799 1313 l 1,7,-1
 483 681 l 1,8,9
 467 681 467 681 467 648 c 1,10,11
 447 648 447 648 409 540 c 1,12,13
 375 507 375 507 375 440 c 1,14,15
 344 416 344 416 301 416 c 1,16,17
 262 449 262 449 168 474 c 1,18,19
 93 538 93 538 93 573 c 1,20,21
 384 1141 384 1141 525 1454 c 1,22,-1
 608 1471 l 1,0,-1
51 440 m 2,23,24
 158 440 158 440 276 291 c 1,25,-1
 276 283 l 1,26,27
 149 0 149 0 109 0 c 2,28,-1
 84 0 l 1,29,30
 42 30 42 30 -65 42 c 1,31,-1
 -115 100 l 1,32,-1
 -115 141 l 2,33,34
 -115 307 -115 307 43 440 c 1,35,-1
 51 440 l 2,23,24
EndSplineSet
EndChar

StartChar: quotedbl
Encoding: 34 34 5
Width: 672
Flags: W
LayerCount: 2
Fore
SplineSet
506 1580 m 2,0,-1
 526 1580 l 1,1,2
 546 1564 546 1564 569 1501 c 1,3,-1
 565 1494 l 1,4,-1
 569 1487 l 1,5,-1
 569 1448 l 2,6,7
 569 1391 569 1391 416 1110 c 1,8,-1
 408 1110 l 1,9,-1
 408 1130 l 1,10,-1
 405 1130 l 1,11,-1
 397 1117 l 1,12,-1
 377 1124 l 1,13,-1
 326 1117 l 1,14,-1
 322 1137 l 1,15,16
 340 1261 340 1261 459 1547 c 1,17,18
 483 1580 483 1580 506 1580 c 2,0,-1
225 1576 m 1,19,20
 290 1576 290 1576 315 1484 c 1,21,-1
 315 1477 l 2,22,23
 315 1417 315 1417 244 1285 c 1,24,25
 203 1182 203 1182 158 1100 c 1,26,-1
 150 1100 l 2,27,28
 140 1100 140 1100 139 1126 c 1,29,-1
 135 1120 l 1,30,-1
 131 1120 l 1,31,32
 107 1133 107 1133 107 1146 c 1,33,-1
 103 1140 l 1,34,-1
 99 1140 l 1,35,-1
 95 1146 l 1,36,-1
 92 1146 l 1,37,-1
 80 1140 l 1,38,-1
 68 1166 l 1,39,40
 82 1297 82 1297 193 1550 c 1,41,-1
 225 1576 l 1,19,20
EndSplineSet
EndChar

StartChar: numbersign
Encoding: 35 35 6
Width: 1336
Flags: W
LayerCount: 2
Fore
SplineSet
1257 1500 m 0,0,1
 1371 1500 1371 1500 1466 1368 c 1,2,-1
 1466 1353 l 1,3,-1
 1458 1314 l 1,4,-1
 1713 1360 l 1,5,-1
 1737 1353 l 1,6,-1
 1798 1368 l 1,7,-1
 1806 1360 l 1,8,-1
 1814 1360 l 1,9,-1
 1837 1368 l 1,10,-1
 1837 1353 l 1,11,-1
 1822 1353 l 1,12,-1
 1822 1345 l 1,13,14
 1842 1345 1842 1345 1868 1299 c 1,15,-1
 1798 1275 l 1,16,-1
 1798 1268 l 1,17,-1
 1806 1260 l 1,18,-1
 1806 1252 l 1,19,-1
 1768 1245 l 1,20,-1
 1775 1237 l 1,21,-1
 1775 1229 l 1,22,23
 1752 1206 1752 1206 1721 1206 c 1,24,-1
 1721 1198 l 1,25,-1
 1737 1198 l 1,26,-1
 1783 1206 l 1,27,-1
 1783 1198 l 2,28,29
 1783 1172 1783 1172 1829 1167 c 1,30,-1
 1829 1160 l 1,31,-1
 1783 1144 l 1,32,-1
 1783 1136 l 1,33,-1
 1806 1136 l 1,34,-1
 1860 1144 l 1,35,-1
 1860 1136 l 2,36,37
 1860 1104 1860 1104 1396 1020 c 1,38,39
 1281 1020 1281 1020 1281 943 c 1,40,-1
 1195 773 l 1,41,-1
 1203 773 l 1,42,-1
 1242 781 l 1,43,-1
 1242 765 l 1,44,-1
 1211 765 l 1,45,-1
 1211 758 l 1,46,-1
 1250 742 l 1,47,-1
 1288 750 l 1,48,-1
 1288 734 l 1,49,-1
 1257 734 l 1,50,-1
 1257 727 l 1,51,-1
 1273 727 l 1,52,-1
 1273 703 l 1,53,-1
 1211 696 l 1,54,-1
 1219 688 l 1,55,-1
 1219 680 l 1,56,57
 1169 680 1169 680 1110 611 c 1,58,-1
 1118 603 l 1,59,-1
 1118 595 l 1,60,-1
 1110 587 l 1,61,-1
 1149 595 l 1,62,-1
 1165 595 l 1,63,-1
 1165 580 l 1,64,-1
 1141 580 l 1,65,-1
 1141 572 l 1,66,67
 1188 567 1188 567 1188 549 c 1,68,-1
 1180 541 l 1,69,-1
 1195 541 l 1,70,-1
 1195 518 l 1,71,72
 1018 483 1018 483 1018 441 c 1,73,74
 825 56 825 56 794 46 c 1,75,76
 757 46 757 46 739 70 c 1,77,-1
 732 62 l 1,78,-1
 693 62 l 1,79,-1
 685 93 l 1,80,-1
 678 85 l 1,81,-1
 670 85 l 1,82,-1
 647 100 l 1,83,-1
 639 93 l 1,84,-1
 616 93 l 1,85,86
 562 135 562 135 562 155 c 0,87,88
 562 209 562 209 654 387 c 1,89,-1
 647 387 l 1,90,91
 245 311 245 311 245 278 c 1,92,93
 152 76 152 76 152 39 c 1,94,95
 112 0 112 0 82 0 c 1,96,97
 55 31 55 31 13 31 c 1,98,-1
 5 62 l 1,99,-1
 -18 46 l 1,100,101
 -65 46 -65 46 -134 147 c 1,102,-1
 -119 201 l 1,103,-1
 -126 201 l 1,104,-1
 -211 193 l 1,105,106
 -320 251 -320 251 -366 387 c 1,107,108
 -333 479 -333 479 -250 479 c 1,109,110
 63 552 63 552 90 580 c 1,111,-1
 198 781 l 1,112,-1
 191 781 l 1,113,-1
 -65 734 l 1,114,115
 -211 843 -211 843 -211 920 c 0,116,117
 -211 1025 -211 1025 -34 1044 c 1,118,119
 384 1105 384 1105 384 1136 c 1,120,121
 509 1447 509 1447 538 1469 c 1,122,-1
 577 1476 l 1,123,-1
 639 1476 l 2,124,125
 726 1476 726 1476 801 1345 c 1,126,-1
 801 1337 l 2,127,128
 801 1304 801 1304 739 1190 c 1,129,-1
 747 1190 l 1,130,-1
 1087 1245 l 1,131,132
 1181 1500 1181 1500 1257 1500 c 0,0,1
1737 1237 m 1,133,-1
 1737 1229 l 1,134,-1
 1752 1229 l 1,135,-1
 1752 1237 l 1,136,-1
 1737 1237 l 1,133,-1
1698 1198 m 1,137,-1
 1698 1190 l 1,138,-1
 1713 1190 l 1,139,-1
 1713 1198 l 1,140,-1
 1698 1198 l 1,137,-1
1752 1136 m 1,141,-1
 1752 1129 l 1,142,-1
 1768 1129 l 1,143,-1
 1768 1136 l 1,144,-1
 1752 1136 l 1,141,-1
1713 1129 m 1,145,-1
 1713 1121 l 1,146,-1
 1737 1121 l 1,147,-1
 1737 1129 l 1,148,-1
 1713 1129 l 1,145,-1
469 649 m 1,149,-1
 477 649 l 1,150,151
 836 717 836 717 840 734 c 2,152,-1
 940 935 l 1,153,154
 562 864 562 864 562 835 c 1,155,-1
 469 649 l 1,149,-1
EndSplineSet
EndChar

StartChar: dollar
Encoding: 36 36 7
Width: 1014
Flags: W
LayerCount: 2
Fore
SplineSet
772 1645 m 1,0,1
 994 1571 994 1571 994 1478 c 1,2,-1
 976 1441 l 1,3,4
 1070 1441 1070 1441 1124 1358 c 1,5,-1
 1115 1349 l 1,6,-1
 1133 1256 l 1,7,8
 1133 1155 1133 1155 911 1155 c 1,9,10
 809 1139 809 1139 809 1053 c 1,11,-1
 735 923 l 1,12,-1
 735 914 l 1,13,14
 893 862 893 862 893 747 c 1,15,-1
 911 655 l 1,16,-1
 902 646 l 1,17,-1
 902 636 l 1,18,-1
 911 627 l 1,19,-1
 911 618 l 2,20,21
 911 447 911 447 226 211 c 1,22,23
 226 149 226 149 152 81 c 1,24,25
 129 -11 129 -11 78 -11 c 1,26,-1
 88 -39 l 1,27,-1
 -51 -252 l 1,28,-1
 -88 -252 l 1,29,-1
 -135 -215 l 1,30,-1
 -144 -224 l 1,31,32
 -211 -224 -211 -224 -227 -178 c 1,33,34
 -264 -178 -264 -178 -264 -150 c 2,35,-1
 -264 -141 l 2,36,37
 -264 -69 -264 -69 -135 100 c 1,38,-1
 -135 109 l 1,39,40
 -487 26 -487 26 -653 26 c 2,41,-1
 -727 26 l 1,42,-1
 -727 35 l 2,43,44
 -727 53 -727 53 -699 53 c 1,45,-1
 -699 72 l 1,46,-1
 -708 72 l 1,47,-1
 -754 63 l 1,48,-1
 -764 72 l 1,49,-1
 -764 90 l 1,50,-1
 -690 137 l 1,51,-1
 -653 137 l 1,52,-1
 -653 146 l 1,53,-1
 -690 146 l 1,54,-1
 -717 137 l 1,55,-1
 -717 155 l 1,56,-1
 -690 155 l 1,57,-1
 -690 164 l 1,58,-1
 -708 164 l 1,59,60
 -708 192 -708 192 -727 192 c 1,61,-1
 -727 201 l 1,62,-1
 -717 211 l 1,63,-1
 -717 220 l 1,64,65
 -765 220 -765 220 -773 248 c 1,66,-1
 -218 377 l 1,67,68
 180 477 180 477 180 562 c 1,69,-1
 254 673 l 1,70,-1
 254 692 l 1,71,72
 48 692 48 692 -23 849 c 1,73,-1
 -42 905 l 1,74,-1
 -42 960 l 2,75,76
 -42 1193 -42 1193 615 1386 c 1,77,78
 688 1645 688 1645 772 1645 c 1,0,1
319 960 m 1,79,-1
 421 960 l 1,80,-1
 448 1025 l 1,81,-1
 439 1025 l 1,82,-1
 319 960 l 1,79,-1
541 673 m 1,83,-1
 541 664 l 1,84,-1
 550 664 l 1,85,-1
 606 701 l 1,86,-1
 587 701 l 1,87,-1
 587 710 l 1,88,89
 545 692 545 692 541 673 c 1,83,-1
EndSplineSet
EndChar

StartChar: percent
Encoding: 37 37 8
Width: 1610
Flags: W
LayerCount: 2
Fore
SplineSet
1384 1474 m 2,0,-1
 1393 1474 l 2,1,2
 1537 1474 1537 1474 1656 1333 c 1,3,-1
 1656 1298 l 1,4,-1
 1033 763 l 1,5,-1
 1033 754 l 1,6,-1
 1138 772 l 1,7,8
 1209 767 1209 767 1209 719 c 1,9,10
 1269 719 1269 719 1437 526 c 1,11,12
 1472 512 1472 512 1472 465 c 2,13,-1
 1472 421 l 1,14,15
 1331 228 1331 228 1174 228 c 2,16,-1
 1138 228 l 2,17,18
 935 228 935 228 814 474 c 1,19,-1
 814 570 l 1,20,21
 459 279 459 279 244 18 c 1,22,-1
 191 0 l 1,23,24
 96 79 96 79 68 79 c 1,25,-1
 68 105 l 1,26,-1
 42 88 l 1,27,-1
 -37 184 l 1,28,-1
 -37 193 l 1,29,30
 -17 244 -17 244 244 491 c 1,31,-1
 1200 1325 l 1,32,33
 1364 1474 1364 1474 1384 1474 c 2,0,-1
463 1351 m 1,34,35
 494 1346 494 1346 533 1298 c 1,36,37
 590 1279 590 1279 744 1114 c 1,38,39
 774 1114 774 1114 788 1018 c 1,40,41
 667 807 667 807 454 807 c 1,42,-1
 454 816 l 1,43,-1
 428 807 l 1,44,45
 282 807 282 807 138 1018 c 1,46,-1
 121 1123 l 1,47,48
 208 1351 208 1351 463 1351 c 1,34,35
358 1044 m 1,49,-1
 358 1035 l 1,50,-1
 367 1035 l 2,51,52
 422 1035 422 1035 533 1132 c 1,53,-1
 542 1132 l 1,54,-1
 542 1140 l 2,55,56
 542 1160 542 1160 498 1167 c 1,57,58
 458 1153 458 1153 358 1044 c 1,49,-1
1042 456 m 1,59,-1
 1060 456 l 2,60,61
 1115 456 1115 456 1226 553 c 1,62,-1
 1235 553 l 1,63,-1
 1235 561 l 2,64,65
 1235 576 1235 576 1191 588 c 1,66,67
 1152 575 1152 575 1042 456 c 1,59,-1
EndSplineSet
EndChar

StartChar: ampersand
Encoding: 38 38 9
Width: 1683
Flags: W
LayerCount: 2
Fore
SplineSet
1124 1468 m 1,0,-1
 1202 1468 l 2,1,2
 1325 1468 1325 1468 1410 1375 c 1,3,4
 1495 1312 1495 1312 1495 1283 c 0,5,6
 1495 1080 1495 1080 1387 958 c 1,7,8
 1353 902 1353 902 931 742 c 1,9,-1
 893 711 l 1,10,11
 899 651 899 651 1009 518 c 1,12,-1
 1016 510 l 1,13,-1
 1032 510 l 1,14,15
 1182 617 1182 617 1348 827 c 1,16,-1
 1356 827 l 1,17,-1
 1364 819 l 1,18,-1
 1372 819 l 1,19,-1
 1387 834 l 1,20,-1
 1395 834 l 1,21,-1
 1403 796 l 1,22,-1
 1395 788 l 1,23,-1
 1403 788 l 1,24,-1
 1426 804 l 1,25,-1
 1457 796 l 1,26,-1
 1464 804 l 1,27,-1
 1472 780 l 1,28,-1
 1457 749 l 1,29,-1
 1503 765 l 1,30,-1
 1503 734 l 1,31,32
 1474 674 1474 674 1395 603 c 1,33,-1
 1403 595 l 1,34,-1
 1403 587 l 1,35,36
 1378 541 1378 541 1348 541 c 1,37,-1
 1356 533 l 1,38,-1
 1356 525 l 2,39,40
 1356 505 1356 505 1202 363 c 1,41,42
 1464 233 1464 233 1534 170 c 1,43,-1
 1565 116 l 1,44,45
 1565 82 1565 82 1480 54 c 1,46,47
 1338 54 1338 54 1140 178 c 1,48,49
 1117 178 1117 178 1024 232 c 1,50,51
 758 61 758 61 506 8 c 1,52,-1
 452 0 l 1,53,54
 166 65 166 65 166 116 c 1,55,56
 142 125 142 125 120 193 c 1,57,-1
 128 201 l 1,58,-1
 120 240 l 1,59,-1
 120 286 l 2,60,61
 120 418 120 418 290 595 c 1,62,-1
 591 819 l 1,63,-1
 591 889 l 1,64,65
 612 1086 612 1086 808 1290 c 1,66,67
 1011 1459 1011 1459 1124 1468 c 1,0,-1
908 974 m 1,68,-1
 916 974 l 1,69,70
 1248 1080 1248 1080 1248 1143 c 1,71,-1
 1271 1267 l 1,72,-1
 1263 1290 l 1,73,-1
 1240 1290 l 1,74,75
 1075 1240 1075 1240 947 1059 c 0,76,77
 908 1003 908 1003 908 974 c 1,68,-1
383 185 m 1,78,-1
 390 185 l 1,79,80
 795 309 795 309 854 379 c 1,81,-1
 684 556 l 1,82,-1
 676 556 l 1,83,84
 458 444 458 444 414 294 c 1,85,86
 383 231 383 231 383 185 c 1,78,-1
EndSplineSet
EndChar

StartChar: quotesingle
Encoding: 39 39 10
Width: 346
Flags: W
LayerCount: 2
Fore
SplineSet
213 1600 m 1,0,1
 253 1582 253 1582 253 1544 c 0,2,3
 245 1233 245 1233 221 1116 c 1,4,-1
 217 1113 l 1,5,-1
 217 1088 l 1,6,-1
 209 1088 l 1,7,-1
 209 1127 l 1,8,-1
 205 1127 l 1,9,10
 205 1106 205 1106 197 1099 c 1,11,-1
 197 1074 l 1,12,-1
 189 1074 l 1,13,-1
 189 1116 l 1,14,-1
 185 1116 l 1,15,-1
 185 1095 l 1,16,-1
 177 1095 l 1,17,-1
 177 1099 l 2,18,19
 177 1141 177 1141 169 1141 c 2,20,-1
 165 1141 l 1,21,-1
 165 1165 l 1,22,-1
 157 1158 l 1,23,-1
 157 1134 l 1,24,-1
 149 1134 l 1,25,-1
 149 1144 l 1,26,27
 141 1144 141 1144 141 1127 c 1,28,-1
 125 1123 l 1,29,-1
 121 1127 l 1,30,31
 121 1109 121 1109 109 1109 c 1,32,-1
 105 1113 l 1,33,-1
 105 1369 l 1,34,-1
 101 1523 l 1,35,36
 158 1600 158 1600 213 1600 c 1,0,1
EndSplineSet
EndChar

StartChar: parenleft
Encoding: 40 40 11
Width: 758
Flags: W
LayerCount: 2
Fore
SplineSet
853 1467 m 0,0,1
 1044 1467 1044 1467 1110 1277 c 1,2,-1
 663 975 l 1,3,4
 115 442 115 442 115 36 c 0,5,6
 115 -40 115 -40 305 -265 c 1,7,-1
 384 -388 l 1,8,-1
 384 -399 l 1,9,-1
 350 -433 l 1,10,-1
 216 -433 l 2,11,12
 59 -433 59 -433 -186 -75 c 1,13,14
 -228 -75 -228 -75 -287 115 c 1,15,-1
 -276 126 l 1,16,-1
 -298 148 l 1,17,-1
 -298 238 l 1,18,19
 -275 582 -275 582 227 1120 c 1,20,21
 630 1467 630 1467 853 1467 c 0,0,1
EndSplineSet
EndChar

StartChar: parenright
Encoding: 41 41 12
Width: 758
Flags: W
LayerCount: 2
Fore
SplineSet
559 1495 m 1,0,-1
 624 1495 l 2,1,2
 927 1495 927 1495 1092 831 c 1,3,-1
 1081 821 l 1,4,-1
 1092 766 l 1,5,-1
 1092 701 l 2,6,7
 1092 441 1092 441 711 48 c 1,8,9
 310 -359 310 -359 80 -430 c 1,10,-1
 -28 -430 l 1,11,-1
 -50 -408 l 1,12,-1
 -137 -430 l 1,13,-1
 -181 -419 l 1,14,-1
 -278 -430 l 1,15,-1
 -355 -430 l 1,16,-1
 -355 -419 l 2,17,18
 -355 -397 -355 -397 -322 -397 c 1,19,-1
 -311 -387 l 1,20,-1
 -311 -376 l 1,21,-1
 -398 -376 l 1,22,-1
 -398 -354 l 1,23,24
 -179 -271 -179 -271 352 233 c 1,25,26
 624 549 624 549 624 766 c 2,27,-1
 624 821 l 1,28,-1
 613 875 l 1,29,-1
 624 875 l 1,30,31
 598 1069 598 1069 374 1408 c 1,32,33
 374 1464 374 1464 559 1495 c 1,0,-1
EndSplineSet
EndChar

StartChar: asterisk
Encoding: 42 42 13
Width: 1024
Flags: W
LayerCount: 2
Fore
SplineSet
428 1700 m 1,0,-1
 436 1700 l 1,1,-1
 436 1664 l 1,2,-1
 440 1664 l 1,3,-1
 440 1684 l 1,4,-1
 448 1684 l 1,5,-1
 468 1640 l 1,6,-1
 468 1628 l 1,7,-1
 472 1628 l 1,8,-1
 472 1656 l 1,9,-1
 476 1656 l 1,10,-1
 488 1648 l 1,11,-1
 488 1664 l 1,12,-1
 496 1664 l 1,13,-1
 500 1660 l 1,14,-1
 504 1660 l 1,15,16
 509 1680 509 1680 516 1680 c 2,17,-1
 520 1680 l 1,18,-1
 552 1424 l 1,19,-1
 556 1424 l 1,20,-1
 740 1504 l 1,21,-1
 752 1500 l 1,22,-1
 760 1508 l 1,23,-1
 768 1508 l 1,24,-1
 768 1500 l 1,25,-1
 736 1488 l 1,26,-1
 736 1484 l 1,27,-1
 740 1484 l 1,28,-1
 764 1492 l 1,29,-1
 764 1488 l 1,30,-1
 784 1496 l 1,31,-1
 784 1492 l 2,32,33
 784 1484 784 1484 756 1476 c 1,34,-1
 756 1472 l 1,35,-1
 760 1472 l 1,36,-1
 776 1480 l 1,37,-1
 780 1476 l 1,38,-1
 780 1472 l 1,39,40
 752 1455 752 1455 752 1448 c 1,41,-1
 756 1444 l 1,42,-1
 736 1428 l 1,43,-1
 740 1428 l 1,44,-1
 752 1436 l 1,45,-1
 756 1436 l 1,46,-1
 764 1428 l 1,47,-1
 760 1424 l 1,48,49
 777 1424 777 1424 784 1412 c 1,50,-1
 804 1408 l 1,51,-1
 612 1288 l 1,52,53
 721 1179 721 1179 784 1084 c 1,54,-1
 784 1076 l 1,55,-1
 760 1096 l 1,56,-1
 760 1092 l 1,57,-1
 780 1060 l 1,58,-1
 780 1056 l 1,59,-1
 776 1056 l 1,60,-1
 752 1076 l 1,61,-1
 752 1072 l 1,62,-1
 760 1064 l 1,63,-1
 760 1060 l 1,64,-1
 752 1060 l 1,65,-1
 732 1072 l 1,66,-1
 720 1068 l 1,67,-1
 708 1080 l 1,68,-1
 704 1080 l 1,69,-1
 716 1064 l 1,70,-1
 716 1060 l 1,71,-1
 704 1060 l 1,72,-1
 708 1040 l 1,73,-1
 708 1036 l 1,74,-1
 700 1036 l 1,75,-1
 700 1024 l 1,76,-1
 704 1020 l 1,77,-1
 704 1016 l 1,78,-1
 696 1016 l 1,79,-1
 492 1196 l 1,80,81
 439 1091 439 1091 352 976 c 2,82,-1
 340 960 l 1,83,-1
 336 956 l 1,84,-1
 332 956 l 1,85,-1
 332 964 l 1,86,-1
 336 976 l 1,87,-1
 324 976 l 1,88,89
 324 960 324 960 308 952 c 1,90,-1
 308 956 l 1,91,-1
 312 968 l 1,92,-1
 308 984 l 1,93,-1
 316 1012 l 1,94,-1
 312 1016 l 1,95,-1
 312 1020 l 1,96,-1
 316 1036 l 1,97,-1
 316 1040 l 1,98,-1
 312 1040 l 1,99,100
 309 1020 309 1020 300 1020 c 1,101,-1
 296 1032 l 1,102,-1
 284 1024 l 1,103,-1
 272 1024 l 1,104,-1
 272 1032 l 1,105,106
 264 1032 264 1032 264 1020 c 1,107,-1
 248 1020 l 1,108,-1
 248 1024 l 1,109,-1
 364 1268 l 1,110,111
 242 1330 242 1330 120 1420 c 1,112,113
 120 1426 120 1426 104 1432 c 1,114,-1
 100 1436 l 1,115,-1
 100 1440 l 1,116,-1
 108 1440 l 1,117,-1
 132 1428 l 1,118,-1
 136 1428 l 1,119,-1
 136 1432 l 1,120,121
 124 1432 124 1432 104 1460 c 1,122,-1
 112 1460 l 1,123,-1
 124 1456 l 1,124,-1
 124 1460 l 1,125,-1
 128 1464 l 1,126,-1
 160 1456 l 1,127,-1
 172 1460 l 1,128,-1
 188 1452 l 1,129,-1
 192 1452 l 1,130,-1
 192 1456 l 1,131,132
 180 1456 180 1456 168 1472 c 1,133,-1
 168 1476 l 1,134,-1
 180 1476 l 1,135,-1
 168 1488 l 1,136,-1
 176 1500 l 1,137,-1
 168 1520 l 1,138,-1
 172 1520 l 1,139,-1
 408 1412 l 1,140,-1
 408 1416 l 1,141,-1
 400 1528 l 1,142,-1
 408 1688 l 1,143,-1
 416 1688 l 1,144,-1
 416 1664 l 1,145,-1
 420 1664 l 1,146,-1
 428 1700 l 1,0,-1
979 992 m 1,147,-1
 979 984 l 1,148,-1
 983 984 l 1,149,-1
 983 992 l 1,150,-1
 979 992 l 1,147,-1
EndSplineSet
EndChar

StartChar: plus
Encoding: 43 43 14
Width: 1014
Flags: W
LayerCount: 2
Fore
SplineSet
675 1146 m 1,0,-1
 730 1146 l 2,1,2
 808 1146 808 1146 868 1063 c 1,3,-1
 868 1042 l 2,4,5
 868 1023 868 1023 771 862 c 1,6,-1
 737 793 l 1,7,-1
 1048 772 l 1,8,-1
 1048 759 l 1,9,-1
 958 759 l 1,10,-1
 958 752 l 1,11,-1
 1048 738 l 1,12,-1
 1076 738 l 1,13,-1
 1076 724 l 1,14,-1
 979 724 l 1,15,-1
 979 717 l 1,16,-1
 1048 717 l 1,17,-1
 1048 703 l 1,18,-1
 896 669 l 1,19,-1
 896 662 l 1,20,-1
 965 662 l 1,21,-1
 965 648 l 1,22,-1
 944 648 l 1,23,-1
 944 641 l 1,24,-1
 986 634 l 1,25,-1
 986 620 l 1,26,-1
 979 613 l 1,27,-1
 979 606 l 1,28,-1
 1013 600 l 1,29,-1
 1013 579 l 1,30,-1
 681 565 l 1,31,-1
 675 565 l 2,32,33
 605 565 605 565 605 510 c 1,34,35
 483 261 483 261 439 261 c 1,36,-1
 439 281 l 1,37,-1
 432 281 l 1,38,39
 407 205 407 205 391 205 c 1,40,-1
 377 219 l 1,41,42
 372 184 372 184 356 184 c 2,43,-1
 349 184 l 1,44,-1
 349 198 l 1,45,-1
 342 198 l 1,46,-1
 273 143 l 1,47,48
 259 143 259 143 259 171 c 1,49,-1
 239 171 l 1,50,-1
 239 178 l 1,51,52
 251 260 251 260 377 551 c 1,53,-1
 370 551 l 1,54,-1
 239 537 l 1,55,56
 140 537 140 537 45 703 c 1,57,-1
 45 724 l 1,58,59
 72 800 72 800 156 800 c 2,60,-1
 405 807 l 1,61,-1
 495 800 l 1,62,63
 632 1132 632 1132 654 1132 c 1,64,-1
 675 1146 l 1,0,-1
EndSplineSet
EndChar

StartChar: comma
Encoding: 44 44 15
Width: 557
Flags: W
LayerCount: 2
Fore
SplineSet
349 200 m 1,0,1
 463 183 463 183 463 123 c 1,2,-1
 349 -86 l 2,3,4
 240 -292 240 -292 226 -300 c 1,5,-1
 211 -300 l 1,6,-1
 211 -276 l 1,7,-1
 182 -288 l 1,8,-1
 172 -252 l 1,9,-1
 167 -252 l 1,10,11
 167 -270 167 -270 122 -282 c 1,12,13
 103 -279 103 -279 103 -264 c 1,14,-1
 98 -270 l 1,15,-1
 93 -270 l 1,16,17
 73 -261 73 -261 73 -252 c 0,18,19
 73 -188 73 -188 256 152 c 0,20,21
 283 194 283 194 335 194 c 1,22,-1
 349 200 l 1,0,1
EndSplineSet
EndChar

StartChar: hyphen
Encoding: 45 45 16
AltUni2: 0000ad.ffffffff.0
Width: 670
Flags: W
LayerCount: 2
Fore
SplineSet
432 568 m 1,0,-1
 532 568 l 1,1,-1
 620 564 l 1,2,-1
 620 556 l 1,3,-1
 572 556 l 1,4,-1
 572 552 l 1,5,6
 600 552 600 552 608 544 c 1,7,-1
 632 548 l 1,8,-1
 636 548 l 1,9,-1
 636 540 l 1,10,-1
 580 536 l 1,11,-1
 580 532 l 1,12,-1
 616 532 l 1,13,-1
 620 536 l 1,14,-1
 620 532 l 2,15,16
 620 523 620 523 568 516 c 1,17,18
 568 504 568 504 536 504 c 1,19,-1
 536 500 l 1,20,-1
 576 500 l 1,21,-1
 576 492 l 1,22,-1
 564 492 l 1,23,-1
 564 484 l 1,24,-1
 588 484 l 1,25,-1
 588 476 l 1,26,-1
 584 472 l 1,27,-1
 584 468 l 1,28,29
 608 468 608 468 608 452 c 1,30,-1
 604 452 l 1,31,-1
 140 400 l 2,32,33
 106 400 106 400 44 480 c 1,34,-1
 40 500 l 1,35,36
 40 556 40 556 220 556 c 1,37,-1
 432 568 l 1,0,-1
EndSplineSet
EndChar

StartChar: period
Encoding: 46 46 17
Width: 557
Flags: W
LayerCount: 2
Fore
SplineSet
251 246 m 1,0,-1
 279 246 l 2,1,2
 341 246 341 246 400 164 c 1,3,-1
 400 154 l 1,4,5
 290 0 290 0 275 0 c 2,6,-1
 270 0 l 1,7,8
 241 10 241 10 241 24 c 1,9,-1
 236 19 l 1,10,-1
 231 19 l 2,11,12
 171 19 171 19 130 72 c 1,13,-1
 130 87 l 2,14,15
 130 134 130 134 217 241 c 1,16,-1
 251 246 l 1,0,-1
EndSplineSet
EndChar

StartChar: slash
Encoding: 47 47 18
Width: 569
Flags: W
LayerCount: 2
Fore
SplineSet
600 1420 m 0,0,1
 627 1420 627 1420 630 1368 c 1,2,3
 625 1328 625 1328 458 928 c 1,4,5
 148 148 148 148 88 20 c 0,6,7
 46 -71 46 -71 25 -96 c 1,8,-1
 25 -88 l 1,9,-1
 37 -60 l 1,10,-1
 37 -56 l 1,11,-1
 34 -56 l 1,12,13
 34 -64 34 -64 7 -100 c 1,14,-1
 7 -92 l 1,15,-1
 19 -64 l 1,16,-1
 19 -60 l 1,17,-1
 16 -60 l 1,18,19
 14 -80 14 -80 7 -80 c 1,20,-1
 7 -76 l 1,21,-1
 16 -32 l 1,22,-1
 13 -20 l 1,23,-1
 22 8 l 1,24,-1
 22 12 l 1,25,-1
 19 12 l 1,26,27
 12 -20 12 -20 4 -20 c 2,28,-1
 1 -20 l 1,29,-1
 1 -12 l 1,30,31
 -6 -12 -6 -12 -8 -28 c 1,32,-1
 -20 -28 l 1,33,-1
 -20 -20 l 1,34,35
 -26 -20 -26 -20 -26 -32 c 1,36,-1
 -38 -32 l 1,37,-1
 -38 -28 l 1,38,39
 1 87 1 87 492 1316 c 1,40,41
 509 1392 509 1392 525 1392 c 1,42,43
 559 1420 559 1420 600 1420 c 0,0,1
233 -4 m 1,44,-1
 233 -12 l 1,45,-1
 236 -12 l 1,46,-1
 236 -4 l 1,47,-1
 233 -4 l 1,44,-1
EndSplineSet
EndChar

StartChar: zero
Encoding: 48 48 19
Width: 1014
Flags: W
LayerCount: 2
Fore
SplineSet
718 1499 m 2,0,-1
 726 1499 l 2,1,2
 832 1499 832 1499 888 1394 c 1,3,4
 907 1391 907 1391 944 1345 c 1,5,6
 1006 1330 1006 1330 1163 1102 c 1,7,8
 1252 1017 1252 1017 1252 924 c 2,9,-1
 1252 867 l 2,10,11
 1252 626 1252 626 896 284 c 1,12,13
 556 0 556 0 239 0 c 1,14,15
 76 24 76 24 -4 81 c 1,16,-1
 -85 146 l 2,17,18
 -247 280 -247 280 -247 389 c 1,19,20
 -263 391 -263 391 -271 446 c 1,21,-1
 -271 519 l 2,22,23
 -271 850 -271 850 353 1369 c 1,24,25
 602 1499 602 1499 718 1499 c 2,0,-1
-12 365 m 0,26,27
 -12 330 -12 330 158 316 c 1,28,29
 502 316 502 316 847 729 c 1,30,31
 972 926 972 926 993 1045 c 1,32,33
 993 1138 993 1138 912 1175 c 1,34,-1
 863 1207 l 1,35,-1
 855 1207 l 1,36,37
 646 1195 646 1195 353 916 c 0,38,39
 8 581 8 581 -12 365 c 0,26,27
EndSplineSet
EndChar

StartChar: one
Encoding: 49 49 20
Width: 1014
Flags: W
LayerCount: 2
Fore
SplineSet
742 1499 m 1,0,-1
 790 1499 l 1,1,2
 922 1477 922 1477 1028 1372 c 1,3,-1
 1036 1332 l 1,4,5
 891 1101 891 1101 433 222 c 1,6,-1
 330 32 l 1,7,8
 279 0 279 0 251 0 c 0,9,10
 222 0 222 0 187 32 c 1,11,-1
 148 24 l 1,12,-1
 140 32 l 1,13,-1
 140 40 l 1,14,-1
 132 32 l 1,15,-1
 124 32 l 2,16,17
 108 32 108 32 108 56 c 1,18,-1
 92 56 l 1,19,-1
 84 48 l 1,20,-1
 76 48 l 1,21,-1
 -19 135 l 1,22,-1
 -19 143 l 2,23,24
 -19 174 -19 174 306 738 c 1,25,-1
 322 785 l 1,26,-1
 314 785 l 2,27,28
 274 785 274 785 274 809 c 1,29,-1
 282 817 l 1,30,31
 249 817 249 817 227 872 c 1,32,33
 203 872 203 872 203 888 c 1,34,-1
 195 880 l 1,35,-1
 187 880 l 2,36,37
 140 880 140 880 140 920 c 1,38,39
 100 930 100 930 100 944 c 1,40,41
 173 1107 173 1107 663 1483 c 1,42,-1
 742 1499 l 1,0,-1
EndSplineSet
EndChar

StartChar: two
Encoding: 50 50 21
Width: 1014
Flags: W
LayerCount: 2
Fore
SplineSet
844 1500 m 2,0,-1
 932 1500 l 1,1,2
 1120 1485 1120 1485 1293 1315 c 2,3,-1
 1341 1267 l 1,4,5
 1341 1165 1341 1165 716 658 c 1,6,-1
 411 377 l 1,7,-1
 419 377 l 1,8,9
 628 409 628 409 740 409 c 1,10,-1
 748 401 l 1,11,-1
 748 393 l 1,12,-1
 756 401 l 1,13,-1
 812 401 l 1,14,-1
 812 385 l 1,15,16
 772 385 772 385 772 369 c 1,17,-1
 780 361 l 1,18,-1
 828 361 l 1,19,-1
 828 345 l 1,20,-1
 780 337 l 1,21,-1
 780 329 l 1,22,-1
 836 329 l 1,23,-1
 836 321 l 2,24,25
 836 297 836 297 804 297 c 1,26,-1
 804 289 l 1,27,-1
 836 289 l 1,28,-1
 828 249 l 1,29,-1
 828 233 l 1,30,-1
 860 233 l 1,31,-1
 860 217 l 1,32,33
 836 217 836 217 836 184 c 1,34,-1
 651 128 l 1,35,36
 135 0 135 0 -14 0 c 2,37,-1
 -30 0 l 2,38,39
 -89 0 -89 0 -295 120 c 1,40,41
 -335 151 -335 151 -335 184 c 2,42,-1
 -335 192 l 1,43,44
 -297 251 -297 251 -6 473 c 1,45,-1
 804 1227 l 1,46,-1
 796 1227 l 1,47,48
 616 1134 616 1134 443 946 c 1,49,50
 397 882 397 882 355 882 c 2,51,-1
 347 882 l 1,52,53
 130 907 130 907 130 954 c 1,54,55
 90 972 90 972 90 1034 c 0,56,57
 90 1128 90 1128 499 1379 c 1,58,59
 671 1500 671 1500 844 1500 c 2,0,-1
EndSplineSet
EndChar

StartChar: three
Encoding: 51 51 22
Width: 1014
Flags: W
LayerCount: 2
Fore
SplineSet
797 1499 m 2,0,-1
 887 1499 l 1,1,-1
 895 1491 l 1,2,-1
 903 1499 l 1,3,-1
 911 1499 l 1,4,5
 1172 1458 1172 1458 1172 1409 c 1,6,7
 1226 1369 1226 1369 1245 1312 c 1,8,-1
 1245 1295 l 1,9,-1
 1237 1287 l 1,10,11
 1270 1190 1270 1190 1270 1132 c 2,12,-1
 1270 1108 l 2,13,14
 1270 1012 1270 1012 968 872 c 1,15,-1
 968 855 l 1,16,17
 1099 796 1099 796 1099 595 c 2,18,-1
 1099 489 l 1,19,20
 939 294 939 294 406 114 c 1,21,22
 50 0 50 0 -115 0 c 1,23,-1
 -205 73 l 1,24,-1
 -197 81 l 1,25,-1
 -197 114 l 1,26,27
 -229 114 -229 114 -229 147 c 1,28,29
 -245 147 -245 147 -245 187 c 1,30,-1
 -270 187 l 1,31,-1
 -270 196 l 1,32,-1
 -262 204 l 1,33,-1
 -262 212 l 1,34,-1
 -278 228 l 1,35,-1
 -278 236 l 1,36,-1
 -254 236 l 1,37,-1
 -254 244 l 1,38,-1
 -262 253 l 1,39,-1
 -262 261 l 1,40,-1
 -237 269 l 1,41,-1
 -245 277 l 1,42,-1
 -245 285 l 1,43,-1
 -237 293 l 1,44,-1
 -229 293 l 1,45,-1
 -205 285 l 1,46,47
 25 285 25 285 675 570 c 1,48,49
 675 589 675 589 716 595 c 1,50,-1
 716 603 l 1,51,-1
 683 611 l 1,52,-1
 300 587 l 1,53,54
 184 587 184 587 121 790 c 1,55,-1
 97 831 l 1,56,57
 97 890 97 890 447 994 c 1,58,-1
 863 1181 l 1,59,-1
 863 1189 l 1,60,-1
 846 1189 l 2,61,62
 695 1189 695 1189 366 1067 c 1,63,-1
 349 1067 l 2,64,65
 284 1067 284 1067 211 1206 c 0,66,67
 186 1247 186 1247 186 1287 c 2,68,-1
 186 1295 l 2,69,70
 186 1394 186 1394 480 1450 c 1,71,72
 620 1499 620 1499 797 1499 c 2,0,-1
EndSplineSet
EndChar

StartChar: four
Encoding: 52 52 23
Width: 1014
Flags: W
LayerCount: 2
Fore
SplineSet
314 1499 m 1,0,1
 402 1499 402 1499 509 1342 c 1,2,-1
 509 1327 l 1,3,4
 402 1131 402 1131 201 832 c 1,5,-1
 201 824 l 1,6,-1
 209 824 l 1,7,-1
 524 832 l 1,8,-1
 726 1304 l 1,9,-1
 763 1319 l 1,10,11
 903 1271 903 1271 966 1177 c 1,12,-1
 966 1169 l 1,13,-1
 853 914 l 1,14,-1
 816 824 l 1,15,-1
 913 824 l 1,16,-1
 921 817 l 1,17,-1
 928 824 l 1,18,-1
 943 824 l 1,19,-1
 981 817 l 1,20,-1
 1026 824 l 1,21,-1
 1056 824 l 2,22,23
 1071 824 1071 824 1071 794 c 1,24,25
 1106 794 1106 794 1116 742 c 1,26,27
 1135 742 1135 742 1191 652 c 1,28,-1
 1191 637 l 1,29,30
 1134 585 1134 585 1018 585 c 1,31,-1
 1011 592 l 1,32,-1
 1003 592 l 1,33,-1
 996 585 l 1,34,-1
 883 592 l 1,35,-1
 711 592 l 1,36,37
 669 548 669 548 591 382 c 1,38,39
 447 151 447 151 396 7 c 1,40,-1
 366 0 l 1,41,42
 300 22 300 22 291 52 c 1,43,44
 269 52 269 52 269 67 c 1,45,-1
 261 60 l 1,46,-1
 254 60 l 2,47,48
 216 60 216 60 216 97 c 1,49,50
 179 97 179 97 179 120 c 0,51,52
 179 267 179 267 381 570 c 1,53,-1
 381 577 l 1,54,-1
 374 577 l 1,55,-1
 74 555 l 1,56,57
 -45 555 -45 555 -189 742 c 1,58,-1
 -196 772 l 1,59,-1
 -196 779 l 1,60,-1
 -16 1019 l 1,61,-1
 276 1492 l 1,62,-1
 314 1499 l 1,0,1
EndSplineSet
EndChar

StartChar: five
Encoding: 53 53 24
Width: 1014
Flags: W
LayerCount: 2
Fore
SplineSet
1255 1498 m 2,0,-1
 1368 1498 l 1,1,-1
 1376 1490 l 1,2,-1
 1384 1498 l 1,3,4
 1498 1498 1498 1498 1498 1458 c 1,5,-1
 1530 1442 l 1,6,7
 1530 1399 1530 1399 1433 1393 c 1,8,9
 1433 1369 1433 1369 1417 1369 c 1,10,-1
 1417 1344 l 1,11,12
 1457 1344 1457 1344 1457 1328 c 256,13,14
 1457 1312 1457 1312 1433 1312 c 1,15,-1
 1433 1296 l 1,16,-1
 1473 1296 l 1,17,-1
 1465 1263 l 1,18,-1
 1473 1239 l 1,19,20
 1411 1217 1411 1217 542 1134 c 1,21,-1
 420 899 l 1,22,-1
 420 883 l 1,23,-1
 429 883 l 1,24,25
 618 923 618 923 801 923 c 0,26,27
 928 923 928 923 1004 794 c 1,28,29
 1035 794 1035 794 1052 616 c 1,30,31
 1052 436 1052 436 210 113 c 1,32,-1
 -33 40 l 1,33,-1
 -284 0 l 1,34,-1
 -325 8 l 1,35,-1
 -389 8 l 1,36,-1
 -438 24 l 1,37,38
 -438 57 -438 57 -479 57 c 1,39,40
 -479 81 -479 81 -511 81 c 1,41,42
 -511 113 -511 113 -543 113 c 1,43,-1
 -543 121 l 1,44,-1
 -535 130 l 1,45,-1
 -535 138 l 1,46,-1
 -560 138 l 1,47,-1
 -560 154 l 1,48,-1
 -535 154 l 1,49,-1
 -551 170 l 1,50,-1
 -600 170 l 1,51,-1
 -600 186 l 1,52,53
 -572 186 -572 186 -406 259 c 1,54,55
 -84 259 -84 259 647 599 c 1,56,57
 647 612 647 612 712 640 c 1,58,-1
 712 648 l 1,59,-1
 704 648 l 2,60,61
 421 648 421 648 40 470 c 1,62,-1
 16 470 l 1,63,64
 -106 572 -106 572 -106 624 c 1,65,-1
 -98 624 l 1,66,-1
 -106 648 l 1,67,68
 -106 684 -106 684 24 769 c 1,69,70
 24 818 24 818 226 1182 c 1,71,-1
 283 1361 l 1,72,73
 390 1474 390 1474 429 1474 c 2,74,-1
 461 1474 l 1,75,-1
 534 1458 l 1,76,77
 1010 1498 1010 1498 1255 1498 c 2,0,-1
EndSplineSet
EndChar

StartChar: six
Encoding: 54 54 25
Width: 1014
Flags: W
LayerCount: 2
Fore
SplineSet
1018 1499 m 1,0,1
 1073 1471 1073 1471 1121 1372 c 1,2,-1
 1121 1356 l 1,3,4
 1071 1278 1071 1278 970 1253 c 1,5,-1
 677 1055 l 1,6,-1
 637 1015 l 1,7,8
 757 1047 757 1047 820 1047 c 2,9,-1
 867 1047 l 1,10,-1
 875 1039 l 1,11,-1
 883 1047 l 1,12,13
 956 1047 956 1047 1042 920 c 0,14,15
 1145 763 1145 763 1145 730 c 2,16,-1
 1145 706 l 2,17,18
 1145 531 1145 531 590 135 c 1,19,20
 374 0 374 0 185 0 c 0,21,22
 155 0 155 0 58 56 c 1,23,24
 8 67 8 67 -92 206 c 1,25,26
 -140 231 -140 231 -140 460 c 1,27,28
 -72 800 -72 800 312 1118 c 1,29,30
 713 1436 713 1436 772 1436 c 1,31,32
 916 1499 916 1499 1018 1499 c 1,0,1
606 1007 m 1,33,-1
 606 999 l 1,34,-1
 621 999 l 1,35,-1
 621 1007 l 1,36,-1
 606 1007 l 1,33,-1
407 642 m 1,37,-1
 407 650 l 2,38,39
 407 670 407 670 439 674 c 1,40,-1
 439 682 l 1,41,-1
 431 682 l 1,42,-1
 407 674 l 1,43,-1
 407 682 l 1,44,-1
 336 658 l 1,45,-1
 320 674 l 1,46,-1
 328 682 l 1,47,-1
 328 690 l 1,48,-1
 288 698 l 1,49,50
 98 461 98 461 98 246 c 1,51,-1
 130 246 l 2,52,53
 331 246 331 246 828 714 c 1,54,-1
 883 801 l 1,55,-1
 883 809 l 1,56,57
 792 809 792 809 431 642 c 1,58,-1
 407 642 l 1,37,-1
EndSplineSet
EndChar

StartChar: seven
Encoding: 55 55 26
Width: 1014
Flags: W
LayerCount: 2
Fore
SplineSet
932 1500 m 1,0,-1
 1051 1484 l 1,1,-1
 1066 1484 l 1,2,3
 1066 1445 1066 1445 1106 1445 c 1,4,-1
 1098 1405 l 1,5,-1
 1098 1389 l 1,6,7
 1154 1326 1154 1326 1154 1270 c 2,8,-1
 1154 1230 l 1,9,10
 997 1108 997 1108 805 857 c 1,11,12
 790 857 790 857 590 635 c 1,13,14
 319 346 319 346 122 16 c 1,15,-1
 74 0 l 1,16,17
 -119 154 -119 154 -140 198 c 1,18,-1
 -140 230 l 1,19,20
 37 542 37 542 455 984 c 1,21,-1
 598 1143 l 1,22,-1
 598 1151 l 1,23,24
 234 1127 234 1127 82 1103 c 1,25,26
 -9 1103 -9 1103 -140 1294 c 1,27,-1
 -140 1318 l 1,28,-1
 -132 1326 l 1,29,-1
 -140 1333 l 1,30,-1
 -140 1341 l 1,31,32
 -121 1445 -121 1445 -37 1445 c 2,33,-1
 -21 1445 l 1,34,-1
 -21 1453 l 1,35,-1
 19 1445 l 1,36,-1
 82 1445 l 1,37,-1
 733 1476 l 1,38,-1
 812 1476 l 2,39,40
 894 1476 894 1476 932 1500 c 1,0,-1
EndSplineSet
EndChar

StartChar: eight
Encoding: 56 56 27
Width: 1014
Flags: W
LayerCount: 2
Fore
SplineSet
748 1496 m 2,0,-1
 858 1496 l 2,1,2
 975 1496 975 1496 1024 1386 c 1,3,4
 1221 1209 1221 1209 1221 1150 c 1,5,-1
 1213 1150 l 1,6,-1
 1221 1142 l 1,7,-1
 1221 1118 l 2,8,9
 1221 981 1221 981 1008 827 c 1,10,-1
 945 795 l 1,11,-1
 976 764 l 1,12,-1
 984 772 l 1,13,-1
 1008 724 l 1,14,-1
 1016 732 l 1,15,-1
 1032 732 l 1,16,17
 1044 621 1044 621 1095 583 c 1,18,19
 1114 583 1114 583 1134 504 c 1,20,-1
 1134 496 l 2,21,22
 1134 331 1134 331 606 87 c 1,23,24
 458 24 458 24 228 0 c 1,25,26
 -17 0 -17 0 -157 165 c 1,27,-1
 -150 173 l 1,28,29
 -244 243 -244 243 -244 362 c 2,30,-1
 -244 394 l 2,31,32
 -244 554 -244 554 87 772 c 1,33,-1
 126 787 l 1,34,35
 55 868 55 868 55 961 c 1,36,37
 138 1243 138 1243 347 1362 c 0,38,39
 580 1496 580 1496 748 1496 c 2,0,-1
874 1331 m 1,40,41
 873 1320 873 1320 661 1244 c 1,42,-1
 669 1236 l 1,43,-1
 669 1228 l 1,44,45
 427 1124 427 1124 307 913 c 1,46,-1
 323 913 l 2,47,48
 517 913 517 913 803 1055 c 0,49,50
 901 1104 901 1104 969 1252 c 1,51,-1
 969 1276 l 1,52,53
 956 1331 956 1331 874 1331 c 1,40,41
402 646 m 1,54,-1
 331 654 l 1,55,56
 63 522 63 522 -16 339 c 1,57,-1
 -24 291 l 1,58,59
 -24 260 -24 260 71 260 c 2,60,-1
 102 260 l 2,61,62
 447 260 447 260 827 559 c 1,63,64
 874 615 874 615 874 646 c 1,65,66
 870 666 870 666 748 717 c 1,67,68
 555 646 555 646 402 646 c 1,54,-1
1016 717 m 1,69,-1
 1016 701 l 1,70,-1
 1024 701 l 1,71,-1
 1024 717 l 1,72,-1
 1016 717 l 1,69,-1
EndSplineSet
EndChar

StartChar: nine
Encoding: 57 57 28
Width: 1014
Flags: W
LayerCount: 2
Fore
SplineSet
869 1499 m 0,0,1
 959 1499 959 1499 995 1428 c 1,2,-1
 1003 1428 l 1,3,4
 1056 1452 1056 1452 1074 1475 c 1,5,-1
 1066 1483 l 1,6,-1
 1074 1491 l 1,7,-1
 1121 1491 l 1,8,9
 1145 1457 1145 1457 1216 1420 c 1,10,11
 1279 1356 1279 1356 1279 1318 c 2,12,-1
 1279 1286 l 1,13,-1
 1184 1152 l 1,14,-1
 1192 1128 l 1,15,16
 1192 1113 1192 1113 1058 986 c 1,17,18
 1052 940 1052 940 971 860 c 1,19,-1
 979 852 l 1,20,-1
 979 844 l 1,21,22
 922 778 922 778 900 694 c 1,23,24
 866 681 866 681 790 473 c 1,25,26
 779 472 779 472 703 276 c 1,27,28
 685 271 685 271 632 181 c 1,29,30
 603 181 603 181 593 118 c 1,31,-1
 514 0 l 1,32,-1
 506 0 l 1,33,-1
 482 16 l 1,34,-1
 474 8 l 1,35,-1
 466 8 l 1,36,37
 408 95 408 95 380 95 c 1,38,-1
 372 87 l 1,39,-1
 316 150 l 1,40,-1
 316 158 l 1,41,-1
 593 773 l 1,42,-1
 585 773 l 1,43,44
 327 694 327 694 182 694 c 0,45,46
 5 694 5 694 -86 868 c 1,47,-1
 -94 876 l 1,48,-1
 -102 876 l 1,49,-1
 -94 884 l 1,50,-1
 -94 899 l 1,51,-1
 -110 915 l 1,52,-1
 -117 907 l 1,53,54
 -149 961 -149 961 -149 1002 c 2,55,-1
 -149 1010 l 2,56,57
 -149 1178 -149 1178 364 1396 c 1,58,-1
 387 1389 l 1,59,60
 692 1499 692 1499 869 1499 c 0,0,1
214 994 m 1,61,-1
 214 986 l 1,62,-1
 222 986 l 1,63,64
 493 1015 493 1015 877 1239 c 1,65,-1
 877 1247 l 1,66,-1
 869 1247 l 1,67,68
 712 1237 712 1237 301 1049 c 1,69,70
 260 1008 260 1008 214 994 c 1,61,-1
EndSplineSet
EndChar

StartChar: colon
Encoding: 58 58 29
Width: 557
Flags: W
LayerCount: 2
Fore
SplineSet
436 947 m 2,0,1
 538 947 538 947 601 796 c 1,2,-1
 601 762 l 1,3,-1
 381 583 l 1,4,-1
 354 583 l 1,5,-1
 216 714 l 1,6,-1
 216 721 l 2,7,8
 216 830 216 830 415 947 c 1,9,-1
 436 947 l 2,0,1
175 357 m 1,10,11
 278 357 278 357 381 199 c 1,12,-1
 292 110 l 1,13,14
 188 0 188 0 148 0 c 1,15,16
 95 55 95 55 10 89 c 1,17,18
 10 110 10 110 -10 110 c 1,19,-1
 -17 117 l 1,20,-1
 -17 130 l 2,21,22
 -17 227 -17 227 155 350 c 1,23,-1
 175 357 l 1,10,11
EndSplineSet
EndChar

StartChar: semicolon
Encoding: 59 59 30
AltUni2: 00037e.ffffffff.0
Width: 557
Flags: W
LayerCount: 2
Fore
SplineSet
429 917 m 2,0,1
 538 917 538 917 638 802 c 1,2,-1
 638 787 l 2,3,4
 638 751 638 751 486 549 c 1,5,-1
 450 528 l 1,6,-1
 407 556 l 1,7,-1
 371 549 l 1,8,-1
 357 578 l 1,9,10
 325 556 325 556 292 556 c 1,11,-1
 241 607 l 1,12,-1
 234 650 l 1,13,14
 301 917 301 917 407 917 c 2,15,-1
 429 917 l 2,0,1
270 268 m 1,16,17
 436 247 436 247 436 174 c 0,18,19
 436 158 436 158 313 -13 c 1,20,21
 110 -327 110 -327 90 -338 c 1,22,-1
 68 -338 l 1,23,-1
 68 -309 l 1,24,-1
 25 -324 l 1,25,-1
 10 -280 l 1,26,-1
 3 -280 l 1,27,28
 3 -302 3 -302 -62 -316 c 1,29,30
 -91 -313 -91 -313 -91 -295 c 1,31,-1
 -98 -302 l 1,32,-1
 -105 -302 l 1,33,-1
 -134 -280 l 1,34,35
 -134 -203 -134 -203 133 210 c 1,36,37
 173 261 173 261 248 261 c 1,38,-1
 270 268 l 1,16,17
EndSplineSet
EndChar

StartChar: less
Encoding: 60 60 31
Width: 1014
Flags: W
LayerCount: 2
Fore
SplineSet
927 1074 m 1,0,-1
 302 715 l 1,1,-1
 927 360 l 1,2,-1
 927 193 l 1,3,-1
 87 674 l 1,4,-1
 87 757 l 1,5,-1
 927 1241 l 1,6,-1
 927 1074 l 1,0,-1
EndSplineSet
EndChar

StartChar: equal
Encoding: 61 61 32
Width: 1014
Flags: W
LayerCount: 2
Fore
SplineSet
500 962 m 1,0,-1
 505 957 l 1,1,-1
 510 957 l 1,2,-1
 572 962 l 1,3,-1
 588 957 l 1,4,-1
 639 962 l 1,5,-1
 912 962 l 1,6,7
 920 952 920 952 969 952 c 1,8,-1
 974 947 l 1,9,-1
 974 941 l 1,10,-1
 959 936 l 1,11,-1
 959 931 l 1,12,-1
 995 926 l 1,13,-1
 995 916 l 1,14,-1
 974 905 l 1,15,-1
 922 905 l 1,16,-1
 933 874 l 1,17,18
 948 874 948 874 948 864 c 1,19,-1
 943 859 l 1,20,21
 979 847 979 847 979 838 c 1,22,-1
 959 833 l 1,23,-1
 959 828 l 1,24,-1
 1000 823 l 1,25,-1
 1000 813 l 1,26,27
 503 780 503 780 335 756 c 1,28,29
 289 756 289 756 237 838 c 1,30,-1
 237 864 l 2,31,32
 237 952 237 952 356 952 c 1,33,-1
 361 947 l 1,34,-1
 500 962 l 1,0,-1
186 648 m 1,35,-1
 186 643 l 1,36,-1
 222 648 l 1,37,-1
 711 643 l 1,38,-1
 727 648 l 1,39,-1
 747 643 l 1,40,-1
 881 643 l 1,41,-1
 886 637 l 1,42,-1
 892 637 l 1,43,44
 892 622 892 622 871 622 c 1,45,-1
 871 617 l 1,46,-1
 933 617 l 1,47,-1
 933 606 l 1,48,-1
 861 586 l 1,49,-1
 866 581 l 1,50,-1
 866 576 l 1,51,-1
 850 560 l 1,52,-1
 825 560 l 1,53,-1
 825 550 l 1,54,-1
 866 550 l 1,55,-1
 866 539 l 1,56,-1
 840 539 l 1,57,-1
 840 534 l 1,58,59
 881 534 881 534 881 519 c 1,60,-1
 876 514 l 1,61,-1
 876 509 l 1,62,63
 907 509 907 509 907 493 c 1,64,65
 881 478 881 478 747 478 c 1,66,-1
 727 472 l 1,67,-1
 727 478 l 1,68,-1
 711 472 l 1,69,-1
 706 478 l 1,70,-1
 680 472 l 1,71,-1
 88 457 l 1,72,73
 31 512 31 512 31 555 c 2,74,-1
 31 581 l 2,75,76
 31 648 31 648 186 648 c 1,35,-1
EndSplineSet
EndChar

StartChar: greater
Encoding: 62 62 33
Width: 1014
Flags: W
LayerCount: 2
Fore
SplineSet
87 1241 m 1,0,-1
 927 757 l 1,1,-1
 927 674 l 1,2,-1
 87 193 l 1,3,-1
 87 360 l 1,4,-1
 712 715 l 1,5,-1
 87 1074 l 1,6,-1
 87 1241 l 1,0,-1
EndSplineSet
EndChar

StartChar: question
Encoding: 63 63 34
Width: 748
Flags: W
LayerCount: 2
Fore
SplineSet
473 1499 m 1,0,-1
 585 1499 l 2,1,2
 877 1499 877 1499 1021 1185 c 1,3,-1
 1021 1177 l 2,4,5
 1021 1114 1021 1114 497 895 c 1,6,-1
 199 709 l 1,7,8
 -67 486 -67 486 -67 403 c 1,9,-1
 -35 290 l 1,10,-1
 -83 282 l 1,11,-1
 -83 274 l 1,12,13
 70 167 70 167 70 105 c 2,14,-1
 70 81 l 2,15,16
 70 0 70 0 5 0 c 1,17,18
 -143 73 -143 73 -196 137 c 1,19,-1
 -220 226 l 1,20,21
 -220 290 -220 290 -148 290 c 1,22,-1
 -148 298 l 1,23,-1
 -253 419 l 1,24,25
 -253 459 -253 459 -277 459 c 1,26,-1
 -285 451 l 1,27,-1
 -293 475 l 1,28,29
 -293 837 -293 837 561 1233 c 1,30,-1
 658 1273 l 1,31,-1
 658 1281 l 1,32,-1
 634 1281 l 2,33,34
 380 1281 380 1281 -51 1015 c 1,35,-1
 -83 1007 l 1,36,37
 -261 1086 -261 1086 -261 1177 c 0,38,39
 -261 1294 -261 1294 303 1475 c 1,40,-1
 473 1499 l 1,0,-1
1009 306 m 1,41,-1
 1009 290 l 1,42,-1
 1025 290 l 1,43,-1
 1025 306 l 1,44,-1
 1009 306 l 1,41,-1
EndSplineSet
EndChar

StartChar: at
Encoding: 64 64 35
Width: 2019
Flags: W
LayerCount: 2
Fore
SplineSet
1478 1439 m 1,0,-1
 1729 1387 l 1,1,-1
 1761 1397 l 1,2,3
 2044 1192 2044 1192 2044 894 c 1,4,-1
 2065 726 l 1,5,6
 2065 429 2065 429 1593 119 c 1,7,-1
 1562 119 l 1,8,-1
 1562 108 l 1,9,10
 1624 105 1624 105 1624 87 c 1,11,-1
 1614 56 l 1,12,-1
 1624 56 l 2,13,14
 1656 56 1656 56 1656 35 c 2,15,-1
 1656 24 l 1,16,-1
 1635 -7 l 1,17,-1
 1645 -39 l 1,18,-1
 1635 -39 l 1,19,-1
 1614 -60 l 1,20,-1
 1603 -60 l 1,21,-1
 1624 -91 l 1,22,-1
 1614 -102 l 1,23,-1
 1603 -102 l 1,24,-1
 1624 -143 l 1,25,-1
 1467 -238 l 1,26,27
 1467 -283 1467 -283 1006 -353 c 1,28,-1
 817 -364 l 1,29,30
 522 -364 522 -364 325 -185 c 1,31,32
 143 -50 143 -50 73 150 c 1,33,-1
 0 412 l 1,34,-1
 0 443 l 2,35,36
 0 622 0 622 147 873 c 1,37,38
 306 1101 306 1101 555 1250 c 1,39,40
 848 1418 848 1418 1226 1418 c 1,41,42
 1226 1433 1226 1433 1478 1439 c 1,0,-1
545 894 m 1,43,44
 898 1114 898 1114 1226 1114 c 0,45,46
 1444 1114 1444 1114 1478 1030 c 1,47,48
 1499 1030 1499 1030 1499 946 c 1,49,-1
 1520 915 l 1,50,-1
 1509 905 l 1,51,-1
 1509 894 l 1,52,-1
 1520 884 l 1,53,-1
 1520 873 l 2,54,55
 1520 805 1520 805 1457 779 c 1,56,-1
 1341 779 l 1,57,-1
 1362 632 l 1,58,59
 1346 632 1346 632 1247 443 c 1,60,-1
 1300 433 l 1,61,62
 1510 433 1510 433 1803 800 c 1,63,-1
 1844 946 l 1,64,-1
 1844 967 l 2,65,66
 1844 1118 1844 1118 1279 1146 c 1,67,68
 912 1146 912 1146 576 925 c 1,69,-1
 545 894 l 1,43,44
503 873 m 1,70,71
 262 681 262 681 262 422 c 1,72,-1
 252 349 l 1,73,74
 333 56 333 56 440 56 c 1,75,76
 525 3 525 3 755 -18 c 1,77,78
 986 -18 986 -18 1341 66 c 1,79,-1
 1341 77 l 1,80,81
 1189 77 1189 77 1058 265 c 1,82,83
 867 139 867 139 671 139 c 0,84,85
 552 139 552 139 430 339 c 1,86,-1
 367 559 l 1,87,88
 367 712 367 712 503 852 c 2,89,-1
 514 863 l 1,90,-1
 514 873 l 1,91,-1
 503 873 l 1,70,71
650 506 m 1,92,-1
 660 506 l 1,93,94
 878 561 878 561 996 695 c 1,95,-1
 996 716 l 1,96,-1
 985 716 l 1,97,98
 840 693 840 693 650 506 c 1,92,-1
EndSplineSet
EndChar

StartChar: A
Encoding: 65 65 36
Width: 1540
Flags: W
LayerCount: 2
Fore
SplineSet
899 1454 m 0,0,1
 1140 1454 1140 1454 1194 1311 c 1,2,3
 1225 1184 1225 1184 1269 807 c 1,4,-1
 1278 798 l 1,5,6
 1283 739 1283 739 1303 739 c 2,7,-1
 1572 773 l 1,8,-1
 1572 756 l 1,9,-1
 1581 756 l 1,10,-1
 1715 764 l 1,11,-1
 1715 748 l 1,12,-1
 1656 731 l 1,13,-1
 1656 722 l 1,14,-1
 1715 722 l 1,15,-1
 1774 731 l 1,16,-1
 1774 714 l 1,17,18
 1688 680 1688 680 1640 680 c 1,19,-1
 1640 663 l 1,20,-1
 1682 672 l 1,21,22
 1740 655 1740 655 1740 638 c 1,23,-1
 1783 647 l 1,24,25
 1951 642 1951 642 1951 613 c 1,26,-1
 1942 605 l 1,27,-1
 2001 588 l 1,28,-1
 2001 571 l 1,29,30
 1887 512 1887 512 1530 470 c 1,31,-1
 1379 445 l 1,32,33
 1488 17 1488 17 1488 -136 c 2,34,-1
 1488 -169 l 1,35,-1
 1463 -195 l 1,36,-1
 1454 -195 l 2,37,38
 1426 -195 1426 -195 1396 -169 c 1,39,-1
 1396 -195 l 1,40,-1
 1379 -195 l 1,41,-1
 1379 -178 l 1,42,-1
 1353 -195 l 1,43,-1
 1320 -169 l 1,44,-1
 1236 -203 l 1,45,-1
 1168 -136 l 1,46,47
 1126 -68 1126 -68 1042 361 c 1,48,-1
 1034 361 l 1,49,50
 504 215 504 215 504 133 c 1,51,52
 470 112 470 112 302 -127 c 1,53,54
 244 -195 244 -195 209 -195 c 1,55,-1
 192 -153 l 1,56,-1
 184 -161 l 1,57,-1
 176 -161 l 1,58,59
 125 -131 125 -131 125 -94 c 1,60,-1
 117 -102 l 1,61,-1
 100 -102 l 1,62,-1
 100 -85 l 1,63,64
 65 -85 65 -85 33 -35 c 1,65,66
 -1 -35 -1 -35 -1 -18 c 2,67,-1
 -1 41 l 2,68,69
 -1 135 -1 135 201 352 c 1,70,71
 287 495 287 495 479 748 c 1,72,-1
 765 1252 l 1,73,-1
 823 1421 l 1,74,75
 868 1454 868 1454 899 1454 c 0,0,1
832 638 m 1,76,-1
 832 630 l 1,77,78
 975 667 975 667 975 680 c 2,79,-1
 950 815 l 1,80,81
 927 805 927 805 832 638 c 1,76,-1
1614 781 m 1,82,-1
 1631 781 l 1,83,-1
 1631 764 l 1,84,-1
 1614 764 l 1,85,-1
 1614 781 l 1,82,-1
1623 722 m 1,86,-1
 1623 714 l 1,87,-1
 1640 714 l 1,88,-1
 1640 722 l 1,89,-1
 1623 722 l 1,86,-1
EndSplineSet
EndChar

StartChar: B
Encoding: 66 66 37
Width: 1219
Flags: W
LayerCount: 2
Fore
SplineSet
697 1432 m 1,0,-1
 805 1432 l 2,1,2
 1308 1432 1308 1432 1455 1143 c 1,3,4
 1500 1087 1500 1087 1500 1026 c 2,5,-1
 1500 1017 l 2,6,7
 1500 866 1500 866 1085 701 c 1,8,-1
 1085 692 l 1,9,10
 1283 518 1283 518 1283 431 c 2,11,-1
 1283 377 l 2,12,13
 1283 158 1283 158 -79 -273 c 1,14,-1
 -268 -318 l 1,15,-1
 -278 -309 l 1,16,-1
 -268 -300 l 1,17,-1
 -268 -273 l 1,18,19
 -314 -273 -314 -273 -314 -255 c 1,20,-1
 -323 -219 l 1,21,-1
 -232 -183 l 1,22,-1
 -232 -174 l 1,23,-1
 -241 -174 l 1,24,-1
 -359 -192 l 1,25,-1
 -359 -174 l 1,26,27
 -296 -165 -296 -165 -296 -147 c 1,28,-1
 -305 -147 l 1,29,-1
 -359 -165 l 1,30,-1
 -368 -156 l 1,31,-1
 -377 -156 l 1,32,-1
 -431 -165 l 1,33,-1
 -440 -165 l 1,34,-1
 -440 -156 l 1,35,-1
 -422 -129 l 1,36,-1
 -422 -120 l 1,37,-1
 -431 -120 l 1,38,-1
 -476 -129 l 1,39,-1
 -485 -120 l 1,40,-1
 -485 -111 l 1,41,42
 -400 -38 -400 -38 -341 -38 c 1,43,-1
 -359 52 l 1,44,45
 -283 238 -283 238 273 1062 c 1,46,47
 103 1062 103 1062 47 1152 c 1,48,49
 12 1162 12 1162 -25 1279 c 1,50,51
 -25 1388 -25 1388 381 1414 c 2,52,-1
 697 1432 l 1,0,-1
652 909 m 1,53,54
 924 1003 924 1003 1112 1098 c 1,55,56
 1112 1125 1112 1125 904 1125 c 2,57,-1
 778 1125 l 1,58,59
 652 941 652 941 652 909 c 1,53,54
192 178 m 1,60,-1
 192 169 l 1,61,62
 654 323 654 323 850 476 c 1,63,-1
 679 476 l 2,64,65
 345 476 345 476 345 413 c 1,66,-1
 192 178 l 1,60,-1
EndSplineSet
EndChar

StartChar: C
Encoding: 67 67 38
Width: 1399
Flags: W
LayerCount: 2
Fore
SplineSet
1188 1436 m 2,0,-1
 1253 1436 l 2,1,2
 1495 1436 1495 1436 1599 1296 c 1,3,-1
 1599 1212 l 2,4,5
 1599 1034 1599 1034 1468 1034 c 1,6,7
 1373 1062 1373 1062 1263 1062 c 0,8,9
 577 1062 577 1062 320 409 c 1,10,-1
 301 315 l 1,11,-1
 301 287 l 2,12,13
 301 146 301 146 488 110 c 1,14,15
 605 82 605 82 796 82 c 2,16,-1
 964 82 l 1,17,-1
 964 63 l 1,18,-1
 926 63 l 1,19,-1
 926 54 l 1,20,21
 948 54 948 54 973 17 c 1,22,-1
 982 17 l 1,23,-1
 982 -11 l 1,24,-1
 880 -21 l 1,25,-1
 880 -30 l 1,26,-1
 898 -30 l 1,27,-1
 880 -86 l 1,28,-1
 898 -86 l 1,29,-1
 898 -105 l 1,30,-1
 880 -105 l 1,31,-1
 880 -114 l 1,32,33
 917 -114 917 -114 917 -151 c 1,34,-1
 936 -151 l 1,35,-1
 926 -142 l 1,36,-1
 926 -133 l 1,37,-1
 936 -123 l 1,38,-1
 992 -123 l 1,39,-1
 992 -142 l 1,40,-1
 1001 -151 l 1,41,-1
 992 -161 l 1,42,-1
 964 -161 l 1,43,-1
 964 -170 l 1,44,-1
 982 -189 l 1,45,-1
 1010 -189 l 1,46,-1
 1001 -179 l 1,47,-1
 1001 -170 l 1,48,-1
 1029 -161 l 1,49,-1
 1057 -170 l 1,50,51
 1057 -254 1057 -254 404 -254 c 0,52,53
 -8 -254 -8 -254 -175 147 c 1,54,-1
 -175 269 l 2,55,56
 -175 702 -175 702 413 1193 c 1,57,58
 760 1436 760 1436 1188 1436 c 2,0,-1
982 45 m 1,59,-1
 1038 45 l 1,60,-1
 1038 26 l 1,61,-1
 982 26 l 1,62,-1
 982 45 l 1,59,-1
EndSplineSet
EndChar

StartChar: D
Encoding: 68 68 39
Width: 1518
Flags: W
LayerCount: 2
Fore
SplineSet
846 1445 m 1,0,-1
 890 1445 l 2,1,2
 1233 1445 1233 1445 1530 1237 c 1,3,4
 1651 1120 1651 1120 1651 1012 c 0,5,6
 1651 768 1651 768 1141 268 c 1,7,8
 873 71 873 71 604 -44 c 1,9,10
 296 -134 296 -134 223 -191 c 1,11,-1
 128 -182 l 1,12,13
 -33 -260 -33 -260 -71 -260 c 1,14,-1
 -80 -251 l 1,15,-1
 -54 -208 l 1,16,-1
 -62 -208 l 1,17,-1
 -114 -225 l 1,18,-1
 -123 -173 l 1,19,-1
 -106 -139 l 1,20,-1
 -114 -139 l 1,21,-1
 -157 -156 l 1,22,-1
 -166 -147 l 1,23,-1
 -166 -139 l 1,24,-1
 -157 -113 l 1,25,-1
 -166 -113 l 1,26,-1
 -201 -122 l 1,27,28
 -227 -122 -227 -122 -227 -87 c 1,29,30
 -270 -81 -270 -81 -270 -61 c 1,31,32
 -232 -20 -232 -20 -157 8 c 1,33,34
 -9 121 -9 121 249 718 c 0,35,36
 405 1077 405 1077 405 1125 c 1,37,38
 248 1125 248 1125 163 1332 c 1,39,40
 163 1405 163 1405 846 1445 c 1,0,-1
466 285 m 1,41,42
 1201 628 1201 628 1201 934 c 0,43,44
 1201 1135 1201 1135 881 1185 c 1,45,46
 817 1185 817 1185 786 1030 c 1,47,-1
 466 285 l 1,41,42
EndSplineSet
EndChar

StartChar: E
Encoding: 69 69 40
Width: 1151
Flags: W
LayerCount: 2
Fore
SplineSet
1185 1462 m 1,0,1
 1185 1428 1185 1428 1219 1428 c 1,2,-1
 1219 1411 l 1,3,-1
 1193 1411 l 1,4,-1
 1193 1402 l 1,5,6
 1236 1402 1236 1402 1236 1385 c 2,7,-1
 1236 1376 l 1,8,-1
 1202 1376 l 1,9,10
 1202 1350 1202 1350 1253 1350 c 1,11,-1
 1253 1333 l 1,12,-1
 1227 1333 l 1,13,-1
 1227 1325 l 1,14,-1
 1330 1325 l 1,15,-1
 1408 1282 l 1,16,-1
 1399 1273 l 1,17,-1
 1399 1265 l 1,18,19
 1442 1265 1442 1265 1442 1247 c 0,20,21
 1442 1216 1442 1216 1124 1179 c 1,22,23
 1016 1179 1016 1179 713 1059 c 1,24,-1
 618 870 l 1,25,-1
 627 870 l 1,26,27
 673 887 673 887 893 896 c 1,28,-1
 910 870 l 1,29,-1
 884 861 l 1,30,-1
 884 853 l 1,31,32
 953 853 953 853 953 836 c 1,33,-1
 910 818 l 1,34,-1
 910 810 l 1,35,-1
 927 810 l 1,36,-1
 919 784 l 1,37,38
 919 741 919 741 987 715 c 1,39,-1
 987 707 l 1,40,-1
 979 698 l 1,41,-1
 979 690 l 1,42,43
 1022 690 1022 690 1022 672 c 2,44,-1
 1022 664 l 2,45,46
 1022 638 1022 638 481 527 c 1,47,48
 414 527 414 527 309 269 c 1,49,-1
 927 372 l 1,50,-1
 927 355 l 1,51,-1
 936 355 l 1,52,-1
 979 364 l 1,53,54
 990 321 990 321 1022 321 c 1,55,-1
 1022 295 l 1,56,57
 1001 295 1001 295 979 269 c 1,58,-1
 961 269 l 1,59,-1
 961 261 l 1,60,-1
 1013 261 l 1,61,-1
 1013 243 l 1,62,-1
 970 243 l 1,63,-1
 979 235 l 1,64,-1
 979 226 l 1,65,-1
 970 218 l 1,66,67
 1097 218 1097 218 1107 175 c 1,68,-1
 1099 166 l 1,69,70
 1142 160 1142 160 1142 140 c 1,71,72
 1066 91 1066 91 627 12 c 1,73,74
 112 -75 112 -75 112 -143 c 1,75,76
 100 -188 100 -188 35 -220 c 1,77,-1
 26 -220 l 1,78,-1
 -25 -177 l 1,79,-1
 -43 -177 l 1,80,-1
 -86 -186 l 1,81,82
 -86 -164 -86 -164 -171 -143 c 1,83,-1
 -197 -151 l 1,84,-1
 -206 -143 l 1,85,-1
 -206 -134 l 1,86,-1
 -197 -108 l 1,87,-1
 -214 -108 l 1,88,-1
 -223 -117 l 1,89,-1
 -231 -117 l 1,90,-1
 -240 -108 l 1,91,-1
 -240 -100 l 1,92,93
 -169 155 -169 155 395 1342 c 1,94,95
 395 1428 395 1428 515 1445 c 1,96,-1
 850 1436 l 1,97,-1
 1185 1462 l 1,0,1
EndSplineSet
EndChar

StartChar: F
Encoding: 70 70 41
Width: 1079
Flags: W
LayerCount: 2
Fore
SplineSet
1370 1467 m 1,0,1
 1370 1452 1370 1452 1437 1429 c 1,2,3
 1437 1394 1437 1394 1484 1382 c 1,4,-1
 1484 1372 l 1,5,-1
 1475 1363 l 1,6,-1
 1475 1353 l 1,7,8
 1512 1353 1512 1353 1512 1334 c 1,9,-1
 1503 1325 l 1,10,11
 1548 1325 1548 1325 1616 1230 c 1,12,13
 1616 1192 1616 1192 651 1098 c 1,14,15
 555 1098 555 1098 528 947 c 1,16,17
 516 947 516 947 472 805 c 1,18,-1
 481 805 l 1,19,-1
 727 823 l 1,20,21
 770 767 770 767 793 767 c 1,22,-1
 793 719 l 1,23,-1
 812 691 l 1,24,-1
 812 682 l 1,25,-1
 784 682 l 1,26,-1
 784 672 l 1,27,-1
 793 672 l 1,28,-1
 850 682 l 1,29,-1
 907 663 l 1,30,-1
 907 653 l 1,31,-1
 897 644 l 1,32,-1
 897 634 l 1,33,34
 954 622 954 622 954 606 c 1,35,36
 840 515 840 515 292 407 c 1,37,38
 -21 -204 -21 -204 -77 -284 c 1,39,40
 -153 -284 -153 -284 -153 -312 c 1,41,-1
 -162 -312 l 1,42,-1
 -191 -293 l 1,43,-1
 -181 -284 l 1,44,-1
 -181 -246 l 1,45,-1
 -200 -246 l 1,46,47
 -200 -274 -200 -274 -219 -274 c 1,48,49
 -229 -227 -229 -227 -267 -227 c 1,50,-1
 -267 -236 l 1,51,52
 -273 -284 -273 -284 -295 -284 c 1,53,-1
 -304 -274 l 1,54,-1
 -314 -274 l 1,55,-1
 -333 -293 l 1,56,-1
 -371 -246 l 1,57,58
 -399 -246 -399 -246 -399 -217 c 0,59,60
 -399 -47 -399 -47 -106 521 c 1,61,62
 178 1089 178 1089 178 1306 c 1,63,64
 253 1439 253 1439 320 1439 c 1,65,-1
 472 1401 l 1,66,67
 981 1467 981 1467 1370 1467 c 1,0,1
EndSplineSet
EndChar

StartChar: G
Encoding: 71 71 42
Width: 1479
Flags: W
LayerCount: 2
Fore
SplineSet
1254 1444 m 2,0,-1
 1283 1444 l 2,1,2
 1535 1444 1535 1444 1633 1226 c 1,3,4
 1610 1027 1610 1027 1567 1027 c 2,5,-1
 1557 1027 l 2,6,7
 1498 1027 1498 1027 1358 1084 c 1,8,-1
 1169 1103 l 1,9,10
 652 1103 652 1103 298 677 c 1,11,12
 146 471 146 471 146 232 c 0,13,14
 146 99 146 99 345 99 c 0,15,16
 465 99 465 99 686 175 c 1,17,-1
 686 184 l 1,18,-1
 676 184 l 1,19,-1
 402 165 l 1,20,21
 402 191 402 191 326 232 c 1,22,-1
 335 241 l 1,23,-1
 335 251 l 1,24,-1
 279 251 l 1,25,-1
 279 270 l 1,26,-1
 335 279 l 1,27,-1
 335 288 l 1,28,-1
 260 298 l 1,29,-1
 260 317 l 1,30,-1
 288 317 l 1,31,-1
 288 326 l 1,32,-1
 241 326 l 1,33,-1
 241 336 l 1,34,-1
 260 364 l 1,35,36
 193 364 193 364 193 383 c 0,37,38
 193 446 193 446 1358 648 c 1,39,40
 1467 648 1467 648 1519 516 c 1,41,-1
 1529 487 l 1,42,43
 1529 389 1529 389 1396 279 c 1,44,45
 1396 186 1396 186 923 -100 c 1,46,47
 701 -223 701 -223 487 -223 c 2,48,-1
 402 -223 l 2,49,50
 -23 -223 -23 -223 -167 213 c 1,51,-1
 -176 298 l 1,52,-1
 -176 355 l 2,53,54
 -176 697 -176 697 354 1179 c 1,55,56
 746 1444 746 1444 1254 1444 c 2,0,-1
EndSplineSet
EndChar

StartChar: H
Encoding: 72 72 43
Width: 1579
Flags: W
LayerCount: 2
Fore
SplineSet
540 1499 m 1,0,1
 675 1499 675 1499 831 1275 c 1,2,3
 831 1196 831 1196 690 947 c 1,4,-1
 606 760 l 1,5,-1
 625 760 l 1,6,-1
 1196 910 l 1,7,8
 1324 1238 1324 1238 1467 1471 c 1,9,-1
 1561 1499 l 1,10,11
 1665 1496 1665 1496 1823 1321 c 1,12,-1
 1823 1265 l 2,13,14
 1823 1198 1823 1198 1636 910 c 1,15,16
 1579 767 1579 767 1579 713 c 1,17,-1
 1607 685 l 1,18,-1
 1607 666 l 1,19,-1
 1495 610 l 1,20,21
 1495 582 1495 582 1458 582 c 1,22,-1
 1458 573 l 1,23,-1
 1467 563 l 1,24,-1
 1467 554 l 1,25,26
 1451 554 1451 554 1439 498 c 1,27,28
 1415 498 1415 498 1373 395 c 1,29,-1
 1364 395 l 1,30,-1
 1355 404 l 1,31,-1
 1345 404 l 1,32,33
 1345 326 1345 326 1252 311 c 1,34,-1
 1261 301 l 1,35,-1
 1261 282 l 1,36,37
 1233 282 1233 282 1233 254 c 1,38,-1
 1214 254 l 1,39,-1
 1205 217 l 1,40,-1
 1214 208 l 1,41,-1
 1214 189 l 1,42,-1
 1205 189 l 1,43,-1
 1177 198 l 1,44,-1
 1177 170 l 1,45,-1
 1168 170 l 1,46,-1
 1177 161 l 1,47,-1
 1177 151 l 1,48,49
 1102 78 1102 78 1074 -83 c 1,50,51
 1074 -128 1074 -128 1018 -204 c 1,52,-1
 1008 -204 l 1,53,-1
 999 -195 l 1,54,-1
 990 -195 l 1,55,-1
 962 -223 l 1,56,57
 962 -204 962 -204 859 -195 c 1,58,-1
 849 -157 l 1,59,-1
 840 -167 l 1,60,-1
 831 -167 l 1,61,62
 803 -133 803 -133 803 -92 c 0,63,64
 803 84 803 84 962 395 c 1,65,-1
 1008 507 l 1,66,-1
 999 507 l 1,67,-1
 335 339 l 1,68,69
 313 282 313 282 297 282 c 1,70,-1
 288 292 l 1,71,-1
 278 292 l 1,72,73
 213 218 213 218 147 2 c 1,74,-1
 26 -186 l 1,75,-1
 16 -186 l 1,76,-1
 16 -167 l 1,77,-1
 -21 -195 l 1,78,-1
 -152 -148 l 1,79,80
 -152 -101 -152 -101 -199 -101 c 1,81,-1
 -199 -45 l 2,82,83
 -199 62 -199 62 -2 432 c 1,84,-1
 7 479 l 1,85,86
 -21 488 -21 488 -21 535 c 2,87,-1
 -21 610 l 1,88,89
 135 691 135 691 157 779 c 1,90,-1
 353 1247 l 1,91,-1
 344 1256 l 1,92,-1
 344 1265 l 1,93,-1
 428 1452 l 1,94,-1
 540 1499 l 1,0,1
EndSplineSet
EndChar

StartChar: I
Encoding: 73 73 44
Width: 657
Flags: W
LayerCount: 2
Fore
SplineSet
512 1442 m 2,0,-1
 567 1442 l 2,1,2
 733 1442 733 1442 825 1295 c 1,3,-1
 825 1258 l 2,4,5
 825 1232 825 1232 650 945 c 1,6,-1
 245 107 l 1,7,8
 166 -38 166 -38 134 -59 c 1,9,-1
 125 -49 l 1,10,-1
 116 -49 l 1,11,-1
 97 -95 l 1,12,-1
 79 -95 l 1,13,-1
 97 -31 l 1,14,-1
 -4 -197 l 1,15,-1
 -13 -197 l 1,16,-1
 -22 -188 l 1,17,-1
 -22 -178 l 1,18,-1
 -13 -169 l 1,19,-1
 -13 -151 l 1,20,-1
 -22 -151 l 1,21,-1
 -59 -234 l 1,22,-1
 -78 -234 l 1,23,-1
 -78 -224 l 1,24,-1
 -59 -178 l 1,25,-1
 -207 -298 l 1,26,-1
 -234 -280 l 1,27,-1
 -225 -270 l 1,28,-1
 -225 -243 l 1,29,-1
 -253 -261 l 1,30,-1
 -271 -243 l 1,31,32
 -271 -122 -271 -122 392 1332 c 1,33,34
 432 1442 432 1442 512 1442 c 2,0,-1
335 244 m 1,35,-1
 335 229 l 1,36,-1
 343 229 l 1,37,-1
 343 244 l 1,38,-1
 335 244 l 1,35,-1
EndSplineSet
EndChar

StartChar: J
Encoding: 74 74 45
Width: 657
Flags: W
LayerCount: 2
Fore
SplineSet
1013 1503 m 1,0,1
 1132 1503 1132 1503 1164 1442 c 1,2,3
 1199 1442 1199 1442 1199 1387 c 0,4,5
 1199 1288 1199 1288 862 608 c 0,6,7
 717 311 717 311 375 -75 c 1,8,9
 170 -270 170 -270 -148 -270 c 0,10,11
 -389 -270 -389 -270 -485 -30 c 1,12,13
 -503 4 -503 4 -503 68 c 2,14,-1
 -503 121 l 1,15,16
 -490 410 -490 410 -370 661 c 1,17,-1
 -352 661 l 1,18,19
 -281 598 -281 598 -273 545 c 1,20,21
 -255 545 -255 545 -255 572 c 1,22,-1
 -238 572 l 1,23,-1
 -238 510 l 1,24,25
 -219 510 -219 510 -219 555 c 1,26,-1
 -210 563 l 1,27,-1
 -201 563 l 1,28,-1
 -193 537 l 1,29,30
 -163 537 -163 537 -130 653 c 1,31,-1
 -95 661 l 1,32,33
 -95 608 -95 608 -69 608 c 1,34,-1
 -69 625 l 1,35,-1
 -51 625 l 1,36,-1
 -104 129 l 1,37,-1
 -87 40 l 1,38,-1
 -69 40 l 1,39,40
 62 79 62 79 312 457 c 1,41,42
 530 800 530 800 747 1326 c 1,43,44
 747 1464 747 1464 1013 1503 c 1,0,1
EndSplineSet
EndChar

StartChar: K
Encoding: 75 75 46
Width: 1382
Flags: W
LayerCount: 2
Fore
SplineSet
576 1496 m 1,0,-1
 602 1496 l 2,1,2
 656 1496 656 1496 759 1383 c 1,3,-1
 785 1313 l 1,4,-1
 785 1296 l 2,5,6
 785 1228 785 1228 663 1060 c 1,7,-1
 671 1060 l 1,8,-1
 1456 1461 l 1,9,-1
 1465 1461 l 1,10,11
 1465 1444 1465 1444 1439 1444 c 1,12,-1
 1439 1435 l 1,13,-1
 1456 1435 l 1,14,-1
 1517 1461 l 1,15,-1
 1526 1453 l 1,16,-1
 1526 1444 l 1,17,-1
 1535 1453 l 1,18,-1
 1578 1453 l 1,19,20
 1578 1435 1578 1435 1552 1435 c 1,21,-1
 1561 1409 l 1,22,-1
 1622 1418 l 1,23,-1
 1509 1313 l 1,24,-1
 1482 1304 l 1,25,-1
 1482 1296 l 1,26,-1
 1578 1313 l 1,27,28
 1578 1298 1578 1298 1509 1269 c 1,29,-1
 1526 1252 l 1,30,-1
 1535 1261 l 1,31,-1
 1543 1261 l 1,32,-1
 1570 1252 l 1,33,-1
 1570 1243 l 1,34,-1
 1552 1217 l 1,35,36
 1596 1217 1596 1217 1596 1182 c 1,37,-1
 916 790 l 1,38,-1
 916 781 l 1,39,40
 1012 417 1012 417 1073 -30 c 1,41,42
 1090 -30 1090 -30 1099 -134 c 1,43,-1
 994 -178 l 1,44,-1
 985 -169 l 1,45,-1
 977 -169 l 1,46,-1
 881 -213 l 1,47,48
 680 -64 680 -64 680 110 c 1,49,-1
 567 581 l 1,50,-1
 558 581 l 1,51,52
 264 421 264 421 253 336 c 1,53,-1
 113 118 l 1,54,55
 91 118 91 118 35 -4 c 1,56,-1
 18 -4 l 1,57,-1
 18 5 l 1,58,-1
 26 40 l 1,59,-1
 26 49 l 1,60,-1
 18 49 l 1,61,-1
 9 23 l 1,62,-1
 0 31 l 1,63,-1
 -9 31 l 1,64,-1
 -52 -21 l 1,65,-1
 -52 -30 l 1,66,-1
 -44 -30 l 1,67,-1
 -9 23 l 1,68,-1
 0 23 l 1,69,-1
 0 5 l 1,70,71
 -14 -47 -14 -47 -70 -47 c 1,72,73
 -162 -229 -162 -229 -166 -300 c 1,74,-1
 -192 -300 l 1,75,76
 -192 -265 -192 -265 -227 -265 c 1,77,-1
 -279 -248 l 1,78,-1
 -288 -239 l 1,79,-1
 -296 -239 l 1,80,-1
 -340 -248 l 1,81,82
 -340 -213 -340 -213 -375 -213 c 1,83,-1
 -401 -152 l 1,84,85
 -270 231 -270 231 227 1104 c 1,86,87
 463 1474 463 1474 576 1496 c 1,0,-1
26 84 m 1,88,-1
 44 84 l 1,89,-1
 61 118 l 1,90,-1
 61 127 l 1,91,-1
 52 127 l 2,92,93
 37 127 37 127 26 84 c 1,88,-1
EndSplineSet
EndChar

StartChar: L
Encoding: 76 76 47
Width: 1128
Flags: W
LayerCount: 2
Fore
SplineSet
736 1574 m 2,0,-1
 789 1574 l 1,1,2
 1021 1489 1021 1489 1021 1351 c 1,3,4
 961 1253 961 1253 540 346 c 1,5,-1
 469 221 l 1,6,-1
 1021 257 l 1,7,-1
 1092 248 l 1,8,-1
 1145 248 l 1,9,-1
 1145 230 l 1,10,-1
 1119 230 l 1,11,-1
 1119 203 l 1,12,-1
 1172 203 l 1,13,-1
 1172 185 l 1,14,-1
 1083 141 l 1,15,-1
 1101 88 l 1,16,-1
 1154 88 l 1,17,-1
 1234 7 l 1,18,19
 1234 -17 1234 -17 709 -90 c 1,20,21
 487 -135 487 -135 104 -242 c 1,22,-1
 95 -242 l 2,23,24
 46 -242 46 -242 -74 -99 c 1,25,-1
 -74 -90 l 1,26,-1
 -65 -82 l 1,27,-1
 -74 -73 l 1,28,-1
 -74 16 l 2,29,30
 -74 61 -74 61 6 123 c 1,31,32
 426 900 426 900 611 1440 c 1,33,-1
 602 1467 l 1,34,35
 658 1574 658 1574 736 1574 c 2,0,-1
EndSplineSet
EndChar

StartChar: M
Encoding: 77 77 48
Width: 1798
Flags: W
LayerCount: 2
Fore
SplineSet
671 1507 m 1,0,-1
 716 1507 l 2,1,2
 819 1507 819 1507 896 1372 c 1,3,-1
 878 1012 l 1,4,5
 878 860 878 860 923 768 c 1,6,7
 942 769 942 769 1104 949 c 1,8,9
 1134 958 1134 958 1464 1300 c 1,10,11
 1588 1471 1588 1471 1717 1471 c 1,12,-1
 1780 1480 l 1,13,14
 1868 1460 1868 1460 1879 1426 c 1,15,16
 1899 1426 1899 1426 1960 1354 c 1,17,-1
 1960 1336 l 2,18,19
 1960 1245 1960 1245 1698 669 c 1,20,21
 1609 453 1609 453 1581 453 c 1,22,-1
 1590 444 l 1,23,-1
 1590 435 l 1,24,-1
 1473 201 l 1,25,26
 1457 200 1457 200 1329 -97 c 1,27,-1
 1266 -178 l 1,28,-1
 1203 -178 l 1,29,-1
 1203 -160 l 1,30,-1
 1167 -178 l 1,31,32
 1167 -158 1167 -158 1104 -142 c 1,33,-1
 1086 -160 l 1,34,35
 1061 -157 1061 -157 1050 -115 c 1,36,37
 1014 -115 1014 -115 1014 -97 c 2,38,-1
 1014 -34 l 2,39,40
 1014 141 1014 141 1284 642 c 1,41,42
 1143 512 1143 512 1014 318 c 1,43,44
 984 318 984 318 932 264 c 1,45,-1
 923 264 l 1,46,47
 827 331 827 331 743 345 c 1,48,49
 652 407 652 407 581 714 c 1,50,-1
 572 714 l 1,51,52
 179 -188 179 -188 139 -223 c 1,53,-1
 121 -223 l 1,54,-1
 76 -196 l 1,55,-1
 49 -205 l 1,56,-1
 40 -196 l 1,57,-1
 31 -205 l 1,58,-1
 13 -169 l 1,59,-1
 -5 -187 l 1,60,-1
 -14 -178 l 1,61,-1
 -95 -196 l 1,62,63
 -115 -147 -115 -147 -149 -142 c 1,64,-1
 -149 -106 l 2,65,66
 -149 110 -149 110 365 1120 c 1,67,68
 486 1489 486 1489 563 1489 c 1,69,-1
 671 1507 l 1,0,-1
EndSplineSet
EndChar

StartChar: N
Encoding: 78 78 49
Width: 1554
Flags: W
LayerCount: 2
Fore
SplineSet
1501 1500 m 2,0,-1
 1564 1500 l 2,1,2
 1684 1500 1684 1500 1762 1392 c 1,3,-1
 1762 1365 l 1,4,-1
 1420 484 l 1,5,6
 1294 251 1294 251 1168 -173 c 1,7,-1
 1141 -200 l 1,8,-1
 1114 -200 l 1,9,-1
 1078 -173 l 1,10,-1
 1069 -182 l 1,11,-1
 1024 -182 l 1,12,-1
 979 -155 l 1,13,-1
 889 -164 l 1,14,-1
 817 -83 l 1,15,-1
 817 -20 l 2,16,17
 817 20 817 20 880 169 c 1,18,-1
 647 726 l 1,19,-1
 575 942 l 1,20,-1
 566 942 l 1,21,-1
 206 187 l 2,22,23
 143 58 143 58 116 -110 c 1,24,-1
 125 -119 l 1,25,-1
 125 -128 l 1,26,27
 110 -200 110 -200 89 -200 c 2,28,-1
 62 -200 l 1,29,-1
 -28 -146 l 1,30,-1
 -46 -146 l 1,31,-1
 -82 -155 l 1,32,-1
 -109 -146 l 1,33,-1
 -127 -164 l 1,34,-1
 -136 -155 l 1,35,-1
 -145 -155 l 1,36,-1
 -154 -164 l 1,37,-1
 -235 -56 l 1,38,-1
 -235 -20 l 2,39,40
 -235 142 -235 142 188 969 c 1,41,-1
 404 1428 l 1,42,43
 453 1467 453 1467 709 1482 c 0,44,45
 770 1482 770 1482 835 1392 c 1,46,-1
 835 1383 l 2,47,48
 835 1128 835 1128 1069 628 c 1,49,50
 1195 844 1195 844 1348 1365 c 0,51,52
 1379 1482 1379 1482 1456 1482 c 1,53,54
 1456 1498 1456 1498 1501 1500 c 2,0,-1
EndSplineSet
EndChar

StartChar: O
Encoding: 79 79 50
Width: 1614
Flags: W
LayerCount: 2
Fore
SplineSet
1307 1496 m 2,0,-1
 1317 1496 l 2,1,2
 1412 1496 1412 1496 1509 1313 c 1,3,-1
 1519 1303 l 1,4,-1
 1519 1258 l 2,5,6
 1519 1215 1519 1215 1375 1184 c 1,7,-1
 1375 1175 l 1,8,9
 1596 901 1596 901 1596 662 c 2,10,-1
 1596 616 l 2,11,12
 1596 24 1596 24 1086 -145 c 1,13,14
 912 -191 912 -191 798 -191 c 2,15,-1
 692 -191 l 2,16,17
 244 -191 244 -191 47 267 c 1,18,19
 19 273 19 273 9 432 c 1,20,-1
 9 497 l 2,21,22
 9 941 9 941 653 1303 c 1,23,24
 1060 1496 1060 1496 1307 1496 c 2,0,-1
365 414 m 2,25,-1
 365 405 l 2,26,27
 365 246 365 246 567 222 c 1,28,-1
 644 222 l 2,29,30
 955 222 955 222 1221 579 c 1,31,32
 1262 673 1262 673 1278 827 c 1,33,34
 1269 955 1269 955 1250 983 c 1,35,-1
 1259 1010 l 1,36,37
 1233 1148 1233 1148 1221 1148 c 0,38,39
 938 1110 938 1110 567 781 c 1,40,41
 365 585 365 585 365 414 c 2,25,-1
EndSplineSet
EndChar

StartChar: P
Encoding: 80 80 51
Width: 1120
Flags: W
LayerCount: 2
Fore
SplineSet
977 1527 m 1,0,1
 1290 1527 1290 1527 1411 1301 c 1,2,-1
 1465 1075 l 1,3,4
 1465 935 1465 935 679 542 c 1,5,6
 271 367 271 367 254 325 c 1,7,8
 191 208 191 208 173 208 c 1,9,10
 128 172 128 172 92 100 c 1,11,-1
 74 100 l 1,12,-1
 74 91 l 1,13,-1
 65 100 l 1,14,-1
 56 100 l 2,15,16
 37 100 37 100 2 -18 c 1,17,-1
 -16 -18 l 1,18,-1
 -7 -27 l 1,19,-1
 -7 -36 l 1,20,21
 -35 -36 -35 -36 -143 -253 c 1,22,23
 -170 -361 -170 -361 -251 -361 c 1,24,-1
 -251 -343 l 1,25,-1
 -260 -343 l 1,26,-1
 -296 -352 l 1,27,-1
 -306 -343 l 1,28,-1
 -315 -343 l 1,29,-1
 -342 -352 l 1,30,-1
 -360 -334 l 1,31,-1
 -378 -352 l 1,32,-1
 -441 -280 l 1,33,-1
 -441 -262 l 2,34,35
 -441 -172 -441 -172 -215 298 c 1,36,-1
 -242 307 l 1,37,-1
 -233 316 l 1,38,-1
 -233 325 l 1,39,-1
 -278 362 l 1,40,-1
 -315 353 l 1,41,-1
 -333 380 l 1,42,-1
 -324 389 l 1,43,-1
 -324 398 l 1,44,45
 -378 398 -378 398 -378 425 c 1,46,47
 -267 513 -267 513 -26 633 c 1,48,-1
 155 1003 l 1,49,-1
 146 1003 l 2,50,51
 38 1003 38 1003 -62 1211 c 1,52,-1
 -62 1292 l 1,53,54
 12 1386 12 1386 318 1445 c 0,55,56
 493 1482 493 1482 977 1527 c 1,0,1
480 858 m 1,57,-1
 489 858 l 1,58,59
 783 995 783 995 1031 1193 c 1,60,-1
 1031 1202 l 1,61,-1
 1022 1202 l 1,62,63
 652 1188 652 1188 652 1147 c 1,64,-1
 480 858 l 1,57,-1
EndSplineSet
EndChar

StartChar: Q
Encoding: 81 81 52
Width: 1614
Flags: W
LayerCount: 2
Fore
SplineSet
950 1490 m 2,0,-1
 996 1490 l 1,1,2
 1153 1472 1153 1472 1199 1305 c 1,3,4
 1199 1254 1199 1254 1153 1194 c 1,5,6
 1371 1134 1371 1134 1402 1093 c 1,7,-1
 1467 1037 l 1,8,-1
 1476 1037 l 1,9,-1
 1458 1065 l 1,10,-1
 1458 1074 l 1,11,-1
 1467 1074 l 1,12,13
 1633 926 1633 926 1633 816 c 1,14,15
 1707 724 1707 724 1707 604 c 2,16,-1
 1707 539 l 2,17,18
 1707 223 1707 223 1375 3 c 1,19,-1
 1328 -15 l 1,20,21
 1504 -170 1504 -170 1504 -311 c 2,22,-1
 1504 -338 l 1,23,-1
 1495 -347 l 1,24,-1
 1476 -347 l 1,25,-1
 1458 -329 l 1,26,-1
 1448 -338 l 1,27,-1
 1402 -338 l 2,28,29
 1358 -338 1358 -338 1088 -144 c 1,30,31
 931 -209 931 -209 636 -209 c 0,32,33
 158 -209 158 -209 -57 280 c 1,34,-1
 -75 419 l 1,35,-1
 -75 502 l 2,36,37
 -75 901 -75 901 534 1351 c 1,38,39
 792 1490 792 1490 950 1490 c 2,0,-1
220 354 m 1,40,41
 220 166 220 166 553 133 c 1,42,-1
 571 133 l 1,43,-1
 784 160 l 1,44,45
 645 385 645 385 645 484 c 1,46,-1
 654 493 l 1,47,-1
 664 493 l 1,48,-1
 673 484 l 1,49,50
 673 531 673 531 719 557 c 1,51,-1
 756 539 l 1,52,-1
 784 548 l 1,53,54
 956 430 956 430 1061 280 c 1,55,-1
 1070 280 l 1,56,57
 1310 420 1310 420 1402 613 c 1,58,59
 1424 770 1424 770 1439 770 c 1,60,61
 1439 867 1439 867 1190 1084 c 1,62,63
 1190 1122 1190 1122 1125 1176 c 1,64,65
 740 1025 740 1025 525 844 c 1,66,67
 228 528 228 528 220 354 c 1,40,41
EndSplineSet
EndChar

StartChar: R
Encoding: 82 82 53
Width: 1283
Flags: W
LayerCount: 2
Fore
SplineSet
815 1523 m 2,0,-1
 893 1523 l 2,1,2
 1476 1523 1476 1523 1581 1140 c 1,3,-1
 1590 1087 l 1,4,-1
 1590 1061 l 2,5,6
 1590 946 1590 946 1067 678 c 1,7,8
 1198 123 1198 123 1198 -97 c 1,9,-1
 1207 -106 l 1,10,-1
 1207 -114 l 1,11,-1
 1198 -141 l 1,12,-1
 1207 -219 l 1,13,-1
 1198 -228 l 1,14,-1
 1181 -228 l 1,15,16
 1181 -193 1181 -193 1163 -193 c 1,17,18
 1163 -219 1163 -219 1146 -219 c 2,19,-1
 1128 -219 l 1,20,-1
 1120 -210 l 1,21,-1
 1111 -210 l 1,22,23
 1098 -245 1098 -245 1085 -245 c 2,24,-1
 1041 -236 l 1,25,-1
 1024 -254 l 1,26,27
 1018 -210 1018 -210 980 -210 c 1,28,29
 841 114 841 114 737 539 c 1,30,-1
 345 408 l 1,31,32
 291 285 291 285 258 269 c 1,33,-1
 249 225 l 1,34,-1
 223 225 l 1,35,-1
 258 321 l 1,36,-1
 258 330 l 1,37,-1
 249 330 l 1,38,-1
 205 234 l 1,39,-1
 223 216 l 1,40,41
 190 216 190 216 92 34 c 1,42,43
 80 33 80 33 40 -80 c 1,44,45
 22 -80 22 -80 -47 -254 c 1,46,-1
 -56 -254 l 1,47,48
 -56 -214 -56 -214 -143 -184 c 1,49,-1
 -160 -202 l 1,50,51
 -160 -184 -160 -184 -187 -184 c 1,52,-1
 -213 -193 l 1,53,54
 -232 -146 -232 -146 -265 -141 c 1,55,-1
 -265 -114 l 2,56,57
 -265 97 -265 97 214 1053 c 1,58,59
 31 1177 31 1177 31 1253 c 2,60,-1
 31 1296 l 1,61,62
 38 1342 38 1342 353 1453 c 1,63,64
 397 1523 397 1523 815 1523 c 2,0,-1
536 835 m 1,65,-1
 554 835 l 1,66,67
 1077 1059 1077 1059 1189 1192 c 1,68,-1
 1189 1201 l 1,69,-1
 1015 1209 l 1,70,-1
 998 1209 l 2,71,72
 667 1209 667 1209 667 1131 c 1,73,74
 564 868 564 868 536 835 c 1,65,-1
EndSplineSet
EndChar

StartChar: S
Encoding: 83 83 54
Width: 1085
Flags: W
LayerCount: 2
Fore
SplineSet
1250 1538 m 2,0,-1
 1269 1538 l 2,1,2
 1311 1538 1311 1538 1381 1473 c 2,3,-1
 1390 1464 l 1,4,-1
 1399 1464 l 1,5,-1
 1390 1427 l 1,6,-1
 1399 1315 l 1,7,8
 1384 1166 1384 1166 1297 1166 c 2,9,-1
 1241 1166 l 2,10,11
 877 1166 877 1166 330 915 c 1,12,-1
 330 897 l 1,13,-1
 339 897 l 1,14,15
 1015 841 1015 841 1083 711 c 1,16,17
 1148 673 1148 673 1148 580 c 1,18,19
 1123 274 1123 274 1074 274 c 1,20,21
 864 117 864 117 609 23 c 1,22,23
 226 -108 226 -108 -442 -275 c 1,24,-1
 -451 -266 l 1,25,-1
 -451 -256 l 1,26,-1
 -386 -229 l 1,27,-1
 -386 -210 l 1,28,-1
 -488 -229 l 1,29,-1
 -488 -219 l 2,30,31
 -488 -198 -488 -198 -442 -191 c 1,32,-1
 -442 -173 l 1,33,-1
 -470 -173 l 1,34,-1
 -470 -154 l 1,35,-1
 -451 -154 l 1,36,-1
 -451 -145 l 1,37,-1
 -507 -126 l 1,38,-1
 -498 -117 l 1,39,-1
 -498 -89 l 1,40,41
 -535 -89 -535 -89 -535 -61 c 1,42,-1
 -544 -70 l 1,43,-1
 -563 -70 l 1,44,-1
 -563 -61 l 1,45,-1
 -554 -52 l 1,46,-1
 -554 -43 l 1,47,-1
 -572 -43 l 1,48,49
 -572 -24 -572 -24 -600 -24 c 1,50,-1
 -600 -15 l 2,51,52
 -600 32 -600 32 153 246 c 1,53,54
 653 419 653 419 730 478 c 1,55,56
 -61 530 -61 530 -61 646 c 1,57,58
 -154 706 -154 706 -154 822 c 0,59,60
 -154 929 -154 929 -42 1073 c 1,61,62
 638 1538 638 1538 1250 1538 c 2,0,-1
-414 -117 m 1,63,-1
 -414 -126 l 1,64,-1
 -395 -126 l 1,65,-1
 -395 -117 l 1,66,-1
 -414 -117 l 1,63,-1
EndSplineSet
EndChar

StartChar: T
Encoding: 84 84 55
Width: 1350
Flags: W
LayerCount: 2
Fore
SplineSet
983 1545 m 1,0,-1
 1162 1536 l 1,1,-1
 1341 1536 l 2,2,3
 1393 1536 1393 1536 1417 1488 c 1,4,-1
 1407 1479 l 1,5,6
 1454 1476 1454 1476 1454 1451 c 2,7,-1
 1454 1441 l 1,8,-1
 1351 1441 l 1,9,-1
 1351 1432 l 1,10,-1
 1388 1432 l 1,11,-1
 1388 1413 l 1,12,-1
 1370 1413 l 1,13,-1
 1379 1403 l 1,14,-1
 1370 1394 l 1,15,-1
 1370 1375 l 1,16,-1
 1417 1366 l 1,17,-1
 1417 1356 l 1,18,-1
 1407 1347 l 1,19,-1
 1407 1337 l 1,20,21
 1464 1337 1464 1337 1464 1262 c 1,22,23
 1502 1257 1502 1257 1502 1234 c 2,24,-1
 1502 1215 l 1,25,-1
 945 1149 l 1,26,27
 874 1149 874 1149 832 970 c 1,28,29
 334 0 334 0 237 -266 c 1,30,31
 180 -323 180 -323 143 -323 c 1,32,-1
 105 -285 l 1,33,34
 49 -285 49 -285 49 -238 c 1,35,-1
 39 -248 l 1,36,-1
 30 -248 l 1,37,38
 28 -224 28 -224 -64 -163 c 1,39,-1
 -93 -115 l 1,40,41
 -93 75 -93 75 360 894 c 1,42,-1
 436 1073 l 1,43,-1
 86 1017 l 1,44,45
 -112 1017 -112 1017 -178 1196 c 1,46,-1
 -206 1309 l 1,47,-1
 -206 1328 l 2,48,49
 -206 1388 -206 1388 -131 1441 c 1,50,-1
 -8 1441 l 2,51,52
 288 1441 288 1441 983 1545 c 1,0,-1
EndSplineSet
EndChar

StartChar: U
Encoding: 85 85 56
Width: 1501
Flags: W
LayerCount: 2
Fore
SplineSet
505 1494 m 2,0,-1
 549 1494 l 2,1,2
 688 1494 688 1494 776 1346 c 1,3,-1
 784 1311 l 1,4,5
 784 1238 784 1238 592 874 c 1,6,7
 391 479 391 479 391 150 c 2,8,-1
 391 124 l 1,9,10
 617 271 617 271 758 482 c 1,11,12
 1090 905 1090 905 1151 1093 c 1,13,-1
 1203 1206 l 1,14,15
 1229 1206 1229 1206 1229 1232 c 1,16,-1
 1238 1241 l 1,17,-1
 1256 1241 l 1,18,-1
 1256 1206 l 1,19,-1
 1264 1206 l 1,20,21
 1288 1354 1288 1354 1308 1354 c 2,22,-1
 1317 1354 l 1,23,-1
 1317 1319 l 1,24,-1
 1325 1319 l 1,25,-1
 1325 1389 l 1,26,-1
 1343 1389 l 1,27,-1
 1343 1363 l 1,28,29
 1374 1379 1374 1379 1421 1494 c 1,30,-1
 1430 1494 l 1,31,32
 1517 1413 1517 1413 1517 1241 c 0,33,34
 1517 665 1517 665 776 -68 c 1,35,36
 634 -156 634 -156 453 -156 c 0,37,38
 118 -156 118 -156 7 89 c 1,39,-1
 -10 194 l 1,40,-1
 -10 237 l 2,41,42
 -10 581 -10 581 130 848 c 1,43,-1
 357 1381 l 1,44,45
 431 1494 431 1494 505 1494 c 2,0,-1
EndSplineSet
EndChar

StartChar: V
Encoding: 86 86 57
Width: 1456
Flags: W
LayerCount: 2
Fore
SplineSet
1670 1507 m 1,0,-1
 1689 1459 l 1,1,-1
 1699 1459 l 1,2,-1
 1708 1469 l 1,3,-1
 1718 1469 l 1,4,-1
 1727 1459 l 1,5,-1
 1718 1450 l 1,6,-1
 1718 1440 l 1,7,-1
 1737 1421 l 1,8,9
 1737 1385 1737 1385 1355 935 c 1,10,11
 826 253 826 253 659 -47 c 1,12,13
 618 -199 618 -199 526 -199 c 2,14,-1
 488 -199 l 2,15,16
 326 -199 326 -199 211 -76 c 1,17,-1
 230 10 l 1,18,-1
 30 1059 l 1,19,-1
 -46 1412 l 1,20,-1
 -46 1421 l 1,21,22
 2 1497 2 1497 68 1497 c 0,23,24
 195 1497 195 1497 316 1402 c 1,25,26
 412 1333 412 1333 412 1154 c 1,27,28
 424 1151 424 1151 526 468 c 1,29,-1
 536 468 l 1,30,-1
 764 763 l 1,31,32
 858 842 858 842 869 897 c 1,33,-1
 879 897 l 1,34,-1
 888 887 l 1,35,-1
 898 887 l 1,36,-1
 984 973 l 1,37,-1
 993 964 l 1,38,-1
 993 973 l 1,39,-1
 984 1002 l 1,40,-1
 1012 1021 l 1,41,-1
 1022 1021 l 1,42,-1
 1031 973 l 1,43,-1
 1050 992 l 1,44,-1
 1041 1030 l 1,45,-1
 1050 1030 l 1,46,-1
 1041 1059 l 1,47,48
 1067 1122 1067 1122 1098 1135 c 1,49,-1
 1108 1135 l 1,50,-1
 1117 1126 l 1,51,-1
 1127 1126 l 1,52,-1
 1146 1145 l 1,53,-1
 1146 1126 l 1,54,-1
 1136 1116 l 1,55,-1
 1136 1107 l 1,56,-1
 1146 1107 l 1,57,-1
 1251 1240 l 1,58,-1
 1260 1240 l 1,59,-1
 1260 1231 l 1,60,-1
 1193 1145 l 1,61,-1
 1193 1088 l 1,62,-1
 1298 1202 l 1,63,-1
 1308 1192 l 1,64,-1
 1317 1192 l 1,65,-1
 1317 1211 l 1,66,-1
 1327 1211 l 1,67,-1
 1308 1259 l 1,68,-1
 1317 1269 l 1,69,-1
 1327 1269 l 1,70,-1
 1336 1259 l 1,71,-1
 1346 1259 l 1,72,-1
 1441 1335 l 1,73,-1
 1451 1326 l 1,74,-1
 1451 1316 l 1,75,-1
 1403 1269 l 1,76,-1
 1403 1259 l 1,77,-1
 1422 1259 l 1,78,79
 1633 1504 1633 1504 1670 1507 c 1,0,-1
EndSplineSet
EndChar

StartChar: W
Encoding: 87 87 58
Width: 2030
Flags: W
LayerCount: 2
Fore
SplineSet
1846 1617 m 1,0,-1
 1855 1608 l 1,1,-1
 1855 1599 l 1,2,-1
 1882 1608 l 1,3,4
 1919 1599 1919 1599 1919 1572 c 1,5,-1
 1928 1572 l 1,6,-1
 1937 1599 l 1,7,8
 2063 1572 2063 1572 2063 1554 c 1,9,-1
 2054 1526 l 1,10,-1
 2063 1535 l 1,11,-1
 2072 1535 l 1,12,-1
 2099 1526 l 1,13,-1
 2099 1517 l 2,14,15
 2099 1451 2099 1451 1693 822 c 1,16,-1
 1250 54 l 1,17,-1
 1178 -100 l 1,18,19
 1106 -154 1106 -154 1051 -154 c 1,20,21
 825 -105 825 -105 825 -55 c 1,22,23
 699 54 699 54 699 379 c 1,24,25
 553 218 553 218 464 27 c 1,26,27
 399 -145 399 -145 274 -145 c 0,28,29
 216 -145 216 -145 166 -109 c 1,30,-1
 157 -118 l 1,31,-1
 148 -118 l 2,32,33
 131 -118 131 -118 94 -73 c 1,34,35
 28 -73 28 -73 -24 361 c 0,36,37
 -42 484 -42 484 -42 894 c 1,38,-1
 -24 1373 l 2,39,40
 -24 1448 -24 1448 139 1472 c 1,41,42
 258 1453 258 1453 337 1364 c 1,43,-1
 356 1310 l 1,44,-1
 356 1246 l 1,45,-1
 319 903 l 1,46,-1
 319 777 l 1,47,-1
 328 722 l 1,48,-1
 319 677 l 1,49,-1
 328 668 l 1,50,-1
 319 623 l 1,51,-1
 319 587 l 1,52,-1
 328 551 l 1,53,-1
 319 515 l 1,54,-1
 319 469 l 1,55,-1
 681 885 l 1,56,57
 702 885 702 885 726 1102 c 1,58,-1
 780 1120 l 1,59,-1
 798 1138 l 1,60,-1
 861 1129 l 1,61,-1
 889 1129 l 1,62,-1
 952 1138 l 1,63,-1
 961 1129 l 1,64,-1
 961 1120 l 1,65,-1
 952 1111 l 1,66,-1
 997 1102 l 1,67,-1
 1006 1102 l 1,68,-1
 1033 1120 l 1,69,-1
 1042 1120 l 1,70,-1
 1051 1111 l 1,71,-1
 1060 1120 l 1,72,-1
 1105 1120 l 1,73,-1
 1142 1075 l 1,74,75
 1169 1075 1169 1075 1169 1057 c 1,76,-1
 1069 813 l 1,77,-1
 1051 704 l 1,78,-1
 1051 542 l 1,79,-1
 1042 533 l 1,80,-1
 1051 442 l 1,81,-1
 1060 442 l 1,82,83
 1202 674 1202 674 1395 921 c 1,84,85
 1413 984 1413 984 1449 984 c 1,86,-1
 1440 993 l 1,87,-1
 1440 1002 l 1,88,89
 1618 1297 1618 1297 1657 1319 c 1,90,91
 1657 1355 1657 1355 1765 1535 c 1,92,93
 1765 1585 1765 1585 1846 1617 c 1,0,-1
1620 1210 m 1,94,-1
 1620 1201 l 1,95,-1
 1638 1219 l 1,96,-1
 1638 1228 l 1,97,-1
 1620 1210 l 1,94,-1
1557 1129 m 1,98,-1
 1557 1102 l 1,99,-1
 1566 1102 l 1,100,-1
 1566 1129 l 1,101,-1
 1557 1129 l 1,98,-1
EndSplineSet
EndChar

StartChar: X
Encoding: 88 88 59
Width: 1350
Flags: W
LayerCount: 2
Fore
SplineSet
1249 1474 m 2,0,-1
 1258 1474 l 2,1,2
 1323 1472 1323 1472 1323 1456 c 1,3,-1
 1333 1465 l 1,4,-1
 1342 1465 l 1,5,6
 1499 1363 1499 1363 1499 1289 c 1,7,8
 1494 1260 1494 1260 1166 1011 c 1,9,-1
 712 585 l 1,10,11
 953 137 953 137 953 -55 c 0,12,13
 953 -105 953 -105 915 -203 c 1,14,-1
 897 -203 l 1,15,-1
 832 -212 l 1,16,-1
 823 -203 l 1,17,-1
 823 -194 l 1,18,-1
 712 -231 l 1,19,-1
 702 -185 l 1,20,-1
 693 -194 l 1,21,-1
 684 -194 l 2,22,23
 672 -194 672 -194 573 93 c 1,24,-1
 434 344 l 1,25,26
 369 288 369 288 369 270 c 1,27,-1
 294 242 l 1,28,-1
 304 232 l 1,29,-1
 304 223 l 1,30,-1
 7 -73 l 2,31,32
 -54 -130 -54 -130 -132 -250 c 1,33,-1
 -197 -268 l 1,34,35
 -252 -249 -252 -249 -252 -231 c 1,36,-1
 -262 -240 l 1,37,-1
 -280 -240 l 1,38,-1
 -317 -212 l 1,39,-1
 -327 -222 l 1,40,41
 -407 -172 -407 -172 -447 -120 c 1,42,-1
 -447 -92 l 2,43,44
 -447 20 -447 20 285 659 c 1,45,-1
 294 668 l 1,46,-1
 294 677 l 1,47,48
 248 830 248 830 202 1169 c 1,49,50
 202 1348 202 1348 304 1447 c 1,51,-1
 406 1447 l 2,52,53
 539 1447 539 1447 610 1335 c 1,54,-1
 610 1280 l 1,55,-1
 591 1150 l 1,56,-1
 600 1141 l 1,57,-1
 591 1094 l 1,58,-1
 600 1039 l 1,59,-1
 591 1039 l 1,60,-1
 610 965 l 1,61,-1
 1138 1437 l 1,62,63
 1201 1474 1201 1474 1249 1474 c 2,0,-1
EndSplineSet
EndChar

StartChar: Y
Encoding: 89 89 60
Width: 1233
Flags: W
LayerCount: 2
Fore
SplineSet
1365 1484 m 2,0,-1
 1402 1484 l 2,1,2
 1470 1484 1470 1484 1576 1356 c 1,3,-1
 1576 1319 l 1,4,5
 471 244 471 244 332 176 c 1,6,7
 332 139 332 139 286 139 c 1,8,9
 286 110 286 110 85 -80 c 1,10,11
 -50 -202 -50 -202 -80 -309 c 1,12,-1
 -126 -318 l 1,13,14
 -179 -318 -179 -318 -217 -281 c 1,15,-1
 -235 -300 l 1,16,17
 -248 -245 -248 -245 -336 -245 c 1,18,-1
 -400 -172 l 1,19,-1
 -400 -153 l 2,20,21
 -400 -11 -400 -11 277 551 c 1,22,23
 460 738 460 738 460 761 c 1,24,25
 112 1109 112 1109 112 1347 c 2,26,-1
 112 1402 l 1,27,28
 159 1456 159 1456 268 1456 c 2,29,-1
 304 1456 l 2,30,31
 473 1456 473 1456 560 1200 c 1,32,33
 560 1108 560 1108 707 953 c 1,34,35
 797 1016 797 1016 1173 1420 c 1,36,37
 1282 1484 1282 1484 1365 1484 c 2,0,-1
EndSplineSet
EndChar

StartChar: Z
Encoding: 90 90 61
Width: 1124
Flags: W
LayerCount: 2
Fore
SplineSet
1283 1474 m 2,0,-1
 1321 1474 l 2,1,2
 1466 1474 1466 1474 1536 1240 c 1,3,-1
 1536 1231 l 2,4,5
 1536 1152 1536 1152 1255 960 c 1,6,7
 559 302 559 302 377 194 c 1,8,-1
 377 184 l 1,9,-1
 536 194 l 1,10,-1
 900 194 l 1,11,-1
 1218 184 l 1,12,-1
 1227 194 l 1,13,-1
 1237 194 l 1,14,-1
 1246 184 l 1,15,-1
 1293 194 l 1,16,-1
 1386 194 l 1,17,-1
 1405 175 l 1,18,-1
 1395 147 l 1,19,-1
 1405 147 l 2,20,21
 1442 147 1442 147 1442 128 c 1,22,-1
 1414 100 l 1,23,-1
 1442 72 l 1,24,-1
 1442 63 l 1,25,-1
 1423 7 l 1,26,-1
 1423 -3 l 1,27,28
 1451 -3 1451 -3 1451 -31 c 1,29,-1
 1489 -49 l 1,30,31
 1489 -162 1489 -162 1274 -162 c 1,32,-1
 1246 -152 l 1,33,-1
 1199 -162 l 1,34,-1
 975 -152 l 1,35,-1
 807 -152 l 2,36,37
 269 -152 269 -152 -63 -283 c 1,38,-1
 -128 -283 l 1,39,40
 -343 -207 -343 -207 -343 -21 c 2,41,-1
 -343 16 l 2,42,43
 -343 59 -343 59 -203 91 c 1,44,45
 -169 221 -169 221 330 624 c 1,46,47
 671 890 671 890 816 1035 c 1,48,-1
 807 1035 l 1,49,50
 554 988 554 988 442 988 c 0,51,52
 255 988 255 988 180 1194 c 1,53,-1
 180 1250 l 1,54,55
 240 1409 240 1409 853 1409 c 1,56,57
 1170 1474 1170 1474 1283 1474 c 2,0,-1
EndSplineSet
EndChar

StartChar: underscore
Encoding: 95 95 66
Width: 1024
Flags: W
LayerCount: 2
Fore
SplineSet
0 -100 m 1,0,-1
 1024 -100 l 1,1,-1
 1024 -160 l 1,2,-1
 0 -160 l 1,3,-1
 0 -100 l 1,0,-1
EndSplineSet
EndChar

StartChar: grave
Encoding: 96 96 67
Width: 1024
Flags: W
LayerCount: 2
Fore
SplineSet
808 1598 m 1,1,-1
 808 1592 l 1,2,-1
 792 1571 l 1,3,-1
 787 1571 l 1,4,-1
 782 1577 l 1,5,6
 782 1558 782 1558 761 1551 c 1,7,-1
 745 1551 l 1,8,-1
 741 1556 l 1,9,-1
 731 1545 l 1,10,-1
 715 1556 l 1,11,-1
 715 1540 l 2,12,13
 715 1519 715 1519 684 1519 c 1,14,-1
 684 1514 l 1,15,-1
 689 1509 l 1,16,-1
 689 1493 l 1,17,-1
 679 1493 l 2,18,19
 654 1493 654 1493 467 1624 c 1,20,21
 296 1708 296 1708 296 1749 c 2,22,-1
 296 1759 l 1,23,24
 319 1794 319 1794 332 1796 c 1,25,26
 332 1830 332 1830 451 1853 c 1,27,0
 680 1731 680 1731 808 1598 c 1,1,-1
EndSplineSet
EndChar

StartChar: a
Encoding: 97 97 68
Width: 1642
Flags: W
LayerCount: 2
Fore
SplineSet
717.53125 1454 m 0,0,1
 958.53125 1454 958.53125 1454 1012.53125 1311 c 1,2,3
 1043.53125 1184 1043.53125 1184 1087.53125 807 c 1,4,-1
 1096.53125 798 l 1,5,6
 1101.53125 739 1101.53125 739 1121.53125 739 c 2,7,-1
 1390.53125 773 l 1,8,-1
 1390.53125 756 l 1,9,-1
 1399.53125 756 l 1,10,-1
 1533.53125 764 l 1,11,-1
 1533.53125 748 l 1,12,-1
 1474.53125 731 l 1,13,-1
 1474.53125 722 l 1,14,-1
 1533.53125 722 l 1,15,-1
 1592.53125 731 l 1,16,-1
 1592.53125 714 l 1,17,18
 1506.53125 680 1506.53125 680 1458.53125 680 c 1,19,-1
 1458.53125 663 l 1,20,-1
 1500.53125 672 l 1,21,22
 1558.53125 655 1558.53125 655 1558.53125 638 c 1,23,-1
 1601.53125 647 l 1,24,25
 1769.53125 642 1769.53125 642 1769.53125 613 c 1,26,-1
 1760.53125 605 l 1,27,-1
 1819.53125 588 l 1,28,-1
 1819.53125 571 l 1,29,30
 1705.53125 512 1705.53125 512 1348.53125 470 c 1,31,-1
 1197.53125 445 l 1,32,33
 1306.53125 17 1306.53125 17 1306.53125 -136 c 2,34,-1
 1306.53125 -169 l 1,35,-1
 1281.53125 -195 l 1,36,-1
 1272.53125 -195 l 2,37,38
 1244.53125 -195 1244.53125 -195 1214.53125 -169 c 1,39,-1
 1214.53125 -195 l 1,40,-1
 1197.53125 -195 l 1,41,-1
 1197.53125 -178 l 1,42,-1
 1171.53125 -195 l 1,43,-1
 1138.53125 -169 l 1,44,-1
 1054.53125 -203 l 1,45,-1
 986.53125 -136 l 1,46,47
 944.53125 -68 944.53125 -68 860.53125 361 c 1,48,-1
 852.53125 361 l 1,49,50
 322.53125 215 322.53125 215 322.53125 133 c 1,51,52
 288.53125 112 288.53125 112 120.53125 -127 c 1,53,54
 62.53125 -195 62.53125 -195 27.53125 -195 c 1,55,-1
 10.53125 -153 l 1,56,-1
 2.53125 -161 l 1,57,-1
 -5.46875 -161 l 1,58,59
 -56.46875 -131 -56.46875 -131 -56.46875 -94 c 1,60,-1
 -64.46875 -102 l 1,61,-1
 -81.46875 -102 l 1,62,-1
 -81.46875 -85 l 1,63,64
 -116.46875 -85 -116.46875 -85 -148.46875 -35 c 1,65,66
 -182.46875 -35 -182.46875 -35 -182.46875 -18 c 2,67,-1
 -182.46875 41 l 2,68,69
 -182.46875 135 -182.46875 135 19.53125 352 c 1,70,71
 105.53125 495 105.53125 495 297.53125 748 c 1,72,-1
 583.53125 1252 l 1,73,-1
 641.53125 1421 l 1,74,75
 686.53125 1454 686.53125 1454 717.53125 1454 c 0,0,1
650.53125 638 m 1,76,-1
 650.53125 630 l 1,77,78
 793.53125 667 793.53125 667 793.53125 680 c 2,79,-1
 768.53125 815 l 1,80,81
 745.53125 805 745.53125 805 650.53125 638 c 1,76,-1
1432.53125 781 m 1,82,-1
 1449.53125 781 l 1,83,-1
 1449.53125 764 l 1,84,-1
 1432.53125 764 l 1,85,-1
 1432.53125 781 l 1,82,-1
1441.53125 722 m 1,86,-1
 1441.53125 714 l 1,87,-1
 1458.53125 714 l 1,88,-1
 1458.53125 722 l 1,89,-1
 1441.53125 722 l 1,86,-1
EndSplineSet
EndChar

StartChar: b
Encoding: 98 98 69
Width: 1219
Flags: W
LayerCount: 2
Fore
SplineSet
697 1432 m 1,0,-1
 805 1432 l 2,1,2
 1308 1432 1308 1432 1455 1143 c 1,3,4
 1500 1087 1500 1087 1500 1026 c 2,5,-1
 1500 1017 l 2,6,7
 1500 866 1500 866 1085 701 c 1,8,-1
 1085 692 l 1,9,10
 1283 518 1283 518 1283 431 c 2,11,-1
 1283 377 l 2,12,13
 1283 158 1283 158 -79 -273 c 1,14,-1
 -268 -318 l 1,15,-1
 -278 -309 l 1,16,-1
 -268 -300 l 1,17,-1
 -268 -273 l 1,18,19
 -314 -273 -314 -273 -314 -255 c 1,20,-1
 -323 -219 l 1,21,-1
 -232 -183 l 1,22,-1
 -232 -174 l 1,23,-1
 -241 -174 l 1,24,-1
 -359 -192 l 1,25,-1
 -359 -174 l 1,26,27
 -296 -165 -296 -165 -296 -147 c 1,28,-1
 -305 -147 l 1,29,-1
 -359 -165 l 1,30,-1
 -368 -156 l 1,31,-1
 -377 -156 l 1,32,-1
 -431 -165 l 1,33,-1
 -440 -165 l 1,34,-1
 -440 -156 l 1,35,-1
 -422 -129 l 1,36,-1
 -422 -120 l 1,37,-1
 -431 -120 l 1,38,-1
 -476 -129 l 1,39,-1
 -485 -120 l 1,40,-1
 -485 -111 l 1,41,42
 -400 -38 -400 -38 -341 -38 c 1,43,-1
 -359 52 l 1,44,45
 -283 238 -283 238 273 1062 c 1,46,47
 103 1062 103 1062 47 1152 c 1,48,49
 12 1162 12 1162 -25 1279 c 1,50,51
 -25 1388 -25 1388 381 1414 c 2,52,-1
 697 1432 l 1,0,-1
652 909 m 1,53,54
 924 1003 924 1003 1112 1098 c 1,55,56
 1112 1125 1112 1125 904 1125 c 2,57,-1
 778 1125 l 1,58,59
 652 941 652 941 652 909 c 1,53,54
192 178 m 1,60,-1
 192 169 l 1,61,62
 654 323 654 323 850 476 c 1,63,-1
 679 476 l 2,64,65
 345 476 345 476 345 413 c 1,66,-1
 192 178 l 1,60,-1
EndSplineSet
EndChar

StartChar: c
Encoding: 99 99 70
Width: 1399
Flags: W
LayerCount: 2
Fore
SplineSet
1188 1436 m 2,0,-1
 1253 1436 l 2,1,2
 1495 1436 1495 1436 1599 1296 c 1,3,-1
 1599 1212 l 2,4,5
 1599 1034 1599 1034 1468 1034 c 1,6,7
 1373 1062 1373 1062 1263 1062 c 0,8,9
 577 1062 577 1062 320 409 c 1,10,-1
 301 315 l 1,11,-1
 301 287 l 2,12,13
 301 146 301 146 488 110 c 1,14,15
 605 82 605 82 796 82 c 2,16,-1
 964 82 l 1,17,-1
 964 63 l 1,18,-1
 926 63 l 1,19,-1
 926 54 l 1,20,21
 948 54 948 54 973 17 c 1,22,-1
 982 17 l 1,23,-1
 982 -11 l 1,24,-1
 880 -21 l 1,25,-1
 880 -30 l 1,26,-1
 898 -30 l 1,27,-1
 880 -86 l 1,28,-1
 898 -86 l 1,29,-1
 898 -105 l 1,30,-1
 880 -105 l 1,31,-1
 880 -114 l 1,32,33
 917 -114 917 -114 917 -151 c 1,34,-1
 936 -151 l 1,35,-1
 926 -142 l 1,36,-1
 926 -133 l 1,37,-1
 936 -123 l 1,38,-1
 992 -123 l 1,39,-1
 992 -142 l 1,40,-1
 1001 -151 l 1,41,-1
 992 -161 l 1,42,-1
 964 -161 l 1,43,-1
 964 -170 l 1,44,-1
 982 -189 l 1,45,-1
 1010 -189 l 1,46,-1
 1001 -179 l 1,47,-1
 1001 -170 l 1,48,-1
 1029 -161 l 1,49,-1
 1057 -170 l 1,50,51
 1057 -254 1057 -254 404 -254 c 0,52,53
 -8 -254 -8 -254 -175 147 c 1,54,-1
 -175 269 l 2,55,56
 -175 702 -175 702 413 1193 c 1,57,58
 760 1436 760 1436 1188 1436 c 2,0,-1
982 45 m 1,59,-1
 1038 45 l 1,60,-1
 1038 26 l 1,61,-1
 982 26 l 1,62,-1
 982 45 l 1,59,-1
EndSplineSet
EndChar

StartChar: d
Encoding: 100 100 71
Width: 1518
Flags: W
LayerCount: 2
Fore
SplineSet
846 1445 m 1,0,-1
 890 1445 l 2,1,2
 1233 1445 1233 1445 1530 1237 c 1,3,4
 1651 1120 1651 1120 1651 1012 c 0,5,6
 1651 768 1651 768 1141 268 c 1,7,8
 873 71 873 71 604 -44 c 1,9,10
 296 -134 296 -134 223 -191 c 1,11,-1
 128 -182 l 1,12,13
 -33 -260 -33 -260 -71 -260 c 1,14,-1
 -80 -251 l 1,15,-1
 -54 -208 l 1,16,-1
 -62 -208 l 1,17,-1
 -114 -225 l 1,18,-1
 -123 -173 l 1,19,-1
 -106 -139 l 1,20,-1
 -114 -139 l 1,21,-1
 -157 -156 l 1,22,-1
 -166 -147 l 1,23,-1
 -166 -139 l 1,24,-1
 -157 -113 l 1,25,-1
 -166 -113 l 1,26,-1
 -201 -122 l 1,27,28
 -227 -122 -227 -122 -227 -87 c 1,29,30
 -270 -81 -270 -81 -270 -61 c 1,31,32
 -232 -20 -232 -20 -157 8 c 1,33,34
 -9 121 -9 121 249 718 c 0,35,36
 405 1077 405 1077 405 1125 c 1,37,38
 248 1125 248 1125 163 1332 c 1,39,40
 163 1405 163 1405 846 1445 c 1,0,-1
466 285 m 1,41,42
 1201 628 1201 628 1201 934 c 0,43,44
 1201 1135 1201 1135 881 1185 c 1,45,46
 817 1185 817 1185 786 1030 c 1,47,-1
 466 285 l 1,41,42
EndSplineSet
EndChar

StartChar: e
Encoding: 101 101 72
Width: 1151
Flags: W
LayerCount: 2
Fore
SplineSet
1185 1462 m 1,0,1
 1185 1428 1185 1428 1219 1428 c 1,2,-1
 1219 1411 l 1,3,-1
 1193 1411 l 1,4,-1
 1193 1402 l 1,5,6
 1236 1402 1236 1402 1236 1385 c 2,7,-1
 1236 1376 l 1,8,-1
 1202 1376 l 1,9,10
 1202 1350 1202 1350 1253 1350 c 1,11,-1
 1253 1333 l 1,12,-1
 1227 1333 l 1,13,-1
 1227 1325 l 1,14,-1
 1330 1325 l 1,15,-1
 1408 1282 l 1,16,-1
 1399 1273 l 1,17,-1
 1399 1265 l 1,18,19
 1442 1265 1442 1265 1442 1247 c 0,20,21
 1442 1216 1442 1216 1124 1179 c 1,22,23
 1016 1179 1016 1179 713 1059 c 1,24,-1
 618 870 l 1,25,-1
 627 870 l 1,26,27
 673 887 673 887 893 896 c 1,28,-1
 910 870 l 1,29,-1
 884 861 l 1,30,-1
 884 853 l 1,31,32
 953 853 953 853 953 836 c 1,33,-1
 910 818 l 1,34,-1
 910 810 l 1,35,-1
 927 810 l 1,36,-1
 919 784 l 1,37,38
 919 741 919 741 987 715 c 1,39,-1
 987 707 l 1,40,-1
 979 698 l 1,41,-1
 979 690 l 1,42,43
 1022 690 1022 690 1022 672 c 2,44,-1
 1022 664 l 2,45,46
 1022 638 1022 638 481 527 c 1,47,48
 414 527 414 527 309 269 c 1,49,-1
 927 372 l 1,50,-1
 927 355 l 1,51,-1
 936 355 l 1,52,-1
 979 364 l 1,53,54
 990 321 990 321 1022 321 c 1,55,-1
 1022 295 l 1,56,57
 1001 295 1001 295 979 269 c 1,58,-1
 961 269 l 1,59,-1
 961 261 l 1,60,-1
 1013 261 l 1,61,-1
 1013 243 l 1,62,-1
 970 243 l 1,63,-1
 979 235 l 1,64,-1
 979 226 l 1,65,-1
 970 218 l 1,66,67
 1097 218 1097 218 1107 175 c 1,68,-1
 1099 166 l 1,69,70
 1142 160 1142 160 1142 140 c 1,71,72
 1066 91 1066 91 627 12 c 1,73,74
 112 -75 112 -75 112 -143 c 1,75,76
 100 -188 100 -188 35 -220 c 1,77,-1
 26 -220 l 1,78,-1
 -25 -177 l 1,79,-1
 -43 -177 l 1,80,-1
 -86 -186 l 1,81,82
 -86 -164 -86 -164 -171 -143 c 1,83,-1
 -197 -151 l 1,84,-1
 -206 -143 l 1,85,-1
 -206 -134 l 1,86,-1
 -197 -108 l 1,87,-1
 -214 -108 l 1,88,-1
 -223 -117 l 1,89,-1
 -231 -117 l 1,90,-1
 -240 -108 l 1,91,-1
 -240 -100 l 1,92,93
 -169 155 -169 155 395 1342 c 1,94,95
 395 1428 395 1428 515 1445 c 1,96,-1
 850 1436 l 1,97,-1
 1185 1462 l 1,0,1
EndSplineSet
EndChar

StartChar: f
Encoding: 102 102 73
Width: 1079
Flags: W
LayerCount: 2
Fore
SplineSet
1370 1467 m 1,0,1
 1370 1452 1370 1452 1437 1429 c 1,2,3
 1437 1394 1437 1394 1484 1382 c 1,4,-1
 1484 1372 l 1,5,-1
 1475 1363 l 1,6,-1
 1475 1353 l 1,7,8
 1512 1353 1512 1353 1512 1334 c 1,9,-1
 1503 1325 l 1,10,11
 1548 1325 1548 1325 1616 1230 c 1,12,13
 1616 1192 1616 1192 651 1098 c 1,14,15
 555 1098 555 1098 528 947 c 1,16,17
 516 947 516 947 472 805 c 1,18,-1
 481 805 l 1,19,-1
 727 823 l 1,20,21
 770 767 770 767 793 767 c 1,22,-1
 793 719 l 1,23,-1
 812 691 l 1,24,-1
 812 682 l 1,25,-1
 784 682 l 1,26,-1
 784 672 l 1,27,-1
 793 672 l 1,28,-1
 850 682 l 1,29,-1
 907 663 l 1,30,-1
 907 653 l 1,31,-1
 897 644 l 1,32,-1
 897 634 l 1,33,34
 954 622 954 622 954 606 c 1,35,36
 840 515 840 515 292 407 c 1,37,38
 -21 -204 -21 -204 -77 -284 c 1,39,40
 -153 -284 -153 -284 -153 -312 c 1,41,-1
 -162 -312 l 1,42,-1
 -191 -293 l 1,43,-1
 -181 -284 l 1,44,-1
 -181 -246 l 1,45,-1
 -200 -246 l 1,46,47
 -200 -274 -200 -274 -219 -274 c 1,48,49
 -229 -227 -229 -227 -267 -227 c 1,50,-1
 -267 -236 l 1,51,52
 -273 -284 -273 -284 -295 -284 c 1,53,-1
 -304 -274 l 1,54,-1
 -314 -274 l 1,55,-1
 -333 -293 l 1,56,-1
 -371 -246 l 1,57,58
 -399 -246 -399 -246 -399 -217 c 0,59,60
 -399 -47 -399 -47 -106 521 c 1,61,62
 178 1089 178 1089 178 1306 c 1,63,64
 253 1439 253 1439 320 1439 c 1,65,-1
 472 1401 l 1,66,67
 981 1467 981 1467 1370 1467 c 1,0,1
EndSplineSet
EndChar

StartChar: g
Encoding: 103 103 74
Width: 1479
Flags: W
LayerCount: 2
Fore
SplineSet
1254 1444 m 2,0,-1
 1283 1444 l 2,1,2
 1535 1444 1535 1444 1633 1226 c 1,3,4
 1610 1027 1610 1027 1567 1027 c 2,5,-1
 1557 1027 l 2,6,7
 1498 1027 1498 1027 1358 1084 c 1,8,-1
 1169 1103 l 1,9,10
 652 1103 652 1103 298 677 c 1,11,12
 146 471 146 471 146 232 c 0,13,14
 146 99 146 99 345 99 c 0,15,16
 465 99 465 99 686 175 c 1,17,-1
 686 184 l 1,18,-1
 676 184 l 1,19,-1
 402 165 l 1,20,21
 402 191 402 191 326 232 c 1,22,-1
 335 241 l 1,23,-1
 335 251 l 1,24,-1
 279 251 l 1,25,-1
 279 270 l 1,26,-1
 335 279 l 1,27,-1
 335 288 l 1,28,-1
 260 298 l 1,29,-1
 260 317 l 1,30,-1
 288 317 l 1,31,-1
 288 326 l 1,32,-1
 241 326 l 1,33,-1
 241 336 l 1,34,-1
 260 364 l 1,35,36
 193 364 193 364 193 383 c 0,37,38
 193 446 193 446 1358 648 c 1,39,40
 1467 648 1467 648 1519 516 c 1,41,-1
 1529 487 l 1,42,43
 1529 389 1529 389 1396 279 c 1,44,45
 1396 186 1396 186 923 -100 c 1,46,47
 701 -223 701 -223 487 -223 c 2,48,-1
 402 -223 l 2,49,50
 -23 -223 -23 -223 -167 213 c 1,51,-1
 -176 298 l 1,52,-1
 -176 355 l 2,53,54
 -176 697 -176 697 354 1179 c 1,55,56
 746 1444 746 1444 1254 1444 c 2,0,-1
EndSplineSet
EndChar

StartChar: h
Encoding: 104 104 75
Width: 1579
Flags: W
LayerCount: 2
Fore
SplineSet
540 1499 m 1,0,1
 675 1499 675 1499 831 1275 c 1,2,3
 831 1196 831 1196 690 947 c 1,4,-1
 606 760 l 1,5,-1
 625 760 l 1,6,-1
 1196 910 l 1,7,8
 1324 1238 1324 1238 1467 1471 c 1,9,-1
 1561 1499 l 1,10,11
 1665 1496 1665 1496 1823 1321 c 1,12,-1
 1823 1265 l 2,13,14
 1823 1198 1823 1198 1636 910 c 1,15,16
 1579 767 1579 767 1579 713 c 1,17,-1
 1607 685 l 1,18,-1
 1607 666 l 1,19,-1
 1495 610 l 1,20,21
 1495 582 1495 582 1458 582 c 1,22,-1
 1458 573 l 1,23,-1
 1467 563 l 1,24,-1
 1467 554 l 1,25,26
 1451 554 1451 554 1439 498 c 1,27,28
 1415 498 1415 498 1373 395 c 1,29,-1
 1364 395 l 1,30,-1
 1355 404 l 1,31,-1
 1345 404 l 1,32,33
 1345 326 1345 326 1252 311 c 1,34,-1
 1261 301 l 1,35,-1
 1261 282 l 1,36,37
 1233 282 1233 282 1233 254 c 1,38,-1
 1214 254 l 1,39,-1
 1205 217 l 1,40,-1
 1214 208 l 1,41,-1
 1214 189 l 1,42,-1
 1205 189 l 1,43,-1
 1177 198 l 1,44,-1
 1177 170 l 1,45,-1
 1168 170 l 1,46,-1
 1177 161 l 1,47,-1
 1177 151 l 1,48,49
 1102 78 1102 78 1074 -83 c 1,50,51
 1074 -128 1074 -128 1018 -204 c 1,52,-1
 1008 -204 l 1,53,-1
 999 -195 l 1,54,-1
 990 -195 l 1,55,-1
 962 -223 l 1,56,57
 962 -204 962 -204 859 -195 c 1,58,-1
 849 -157 l 1,59,-1
 840 -167 l 1,60,-1
 831 -167 l 1,61,62
 803 -133 803 -133 803 -92 c 0,63,64
 803 84 803 84 962 395 c 1,65,-1
 1008 507 l 1,66,-1
 999 507 l 1,67,-1
 335 339 l 1,68,69
 313 282 313 282 297 282 c 1,70,-1
 288 292 l 1,71,-1
 278 292 l 1,72,73
 213 218 213 218 147 2 c 1,74,-1
 26 -186 l 1,75,-1
 16 -186 l 1,76,-1
 16 -167 l 1,77,-1
 -21 -195 l 1,78,-1
 -152 -148 l 1,79,80
 -152 -101 -152 -101 -199 -101 c 1,81,-1
 -199 -45 l 2,82,83
 -199 62 -199 62 -2 432 c 1,84,-1
 7 479 l 1,85,86
 -21 488 -21 488 -21 535 c 2,87,-1
 -21 610 l 1,88,89
 135 691 135 691 157 779 c 1,90,-1
 353 1247 l 1,91,-1
 344 1256 l 1,92,-1
 344 1265 l 1,93,-1
 428 1452 l 1,94,-1
 540 1499 l 1,0,1
EndSplineSet
EndChar

StartChar: i
Encoding: 105 105 76
Width: 786
Flags: W
LayerCount: 2
Fore
SplineSet
512 1442 m 2,0,-1
 567 1442 l 2,1,2
 733 1442 733 1442 825 1295 c 1,3,-1
 825 1258 l 2,4,5
 825 1232 825 1232 650 945 c 1,6,-1
 245 107 l 1,7,8
 166 -38 166 -38 134 -59 c 1,9,-1
 125 -49 l 1,10,-1
 116 -49 l 1,11,-1
 97 -95 l 1,12,-1
 79 -95 l 1,13,-1
 97 -31 l 1,14,-1
 -4 -197 l 1,15,-1
 -13 -197 l 1,16,-1
 -22 -188 l 1,17,-1
 -22 -178 l 1,18,-1
 -13 -169 l 1,19,-1
 -13 -151 l 1,20,-1
 -22 -151 l 1,21,-1
 -59 -234 l 1,22,-1
 -78 -234 l 1,23,-1
 -78 -224 l 1,24,-1
 -59 -178 l 1,25,-1
 -207 -298 l 1,26,-1
 -234 -280 l 1,27,-1
 -225 -270 l 1,28,-1
 -225 -243 l 1,29,-1
 -253 -261 l 1,30,-1
 -271 -243 l 1,31,32
 -271 -122 -271 -122 392 1332 c 1,33,34
 432 1442 432 1442 512 1442 c 2,0,-1
335 244 m 1,35,-1
 335 229 l 1,36,-1
 343 229 l 1,37,-1
 343 244 l 1,38,-1
 335 244 l 1,35,-1
EndSplineSet
EndChar

StartChar: j
Encoding: 106 106 77
Width: 657
Flags: W
LayerCount: 2
Fore
SplineSet
1013 1503 m 1,0,1
 1132 1503 1132 1503 1164 1442 c 1,2,3
 1199 1442 1199 1442 1199 1387 c 0,4,5
 1199 1288 1199 1288 862 608 c 0,6,7
 717 311 717 311 375 -75 c 1,8,9
 170 -270 170 -270 -148 -270 c 0,10,11
 -389 -270 -389 -270 -485 -30 c 1,12,13
 -503 4 -503 4 -503 68 c 2,14,-1
 -503 121 l 1,15,16
 -490 410 -490 410 -370 661 c 1,17,-1
 -352 661 l 1,18,19
 -281 598 -281 598 -273 545 c 1,20,21
 -255 545 -255 545 -255 572 c 1,22,-1
 -238 572 l 1,23,-1
 -238 510 l 1,24,25
 -219 510 -219 510 -219 555 c 1,26,-1
 -210 563 l 1,27,-1
 -201 563 l 1,28,-1
 -193 537 l 1,29,30
 -163 537 -163 537 -130 653 c 1,31,-1
 -95 661 l 1,32,33
 -95 608 -95 608 -69 608 c 1,34,-1
 -69 625 l 1,35,-1
 -51 625 l 1,36,-1
 -104 129 l 1,37,-1
 -87 40 l 1,38,-1
 -69 40 l 1,39,40
 62 79 62 79 312 457 c 1,41,42
 530 800 530 800 747 1326 c 1,43,44
 747 1464 747 1464 1013 1503 c 1,0,1
EndSplineSet
EndChar

StartChar: k
Encoding: 107 107 78
Width: 1382
Flags: W
LayerCount: 2
Fore
SplineSet
576 1496 m 1,0,-1
 602 1496 l 2,1,2
 656 1496 656 1496 759 1383 c 1,3,-1
 785 1313 l 1,4,-1
 785 1296 l 2,5,6
 785 1228 785 1228 663 1060 c 1,7,-1
 671 1060 l 1,8,-1
 1456 1461 l 1,9,-1
 1465 1461 l 1,10,11
 1465 1444 1465 1444 1439 1444 c 1,12,-1
 1439 1435 l 1,13,-1
 1456 1435 l 1,14,-1
 1517 1461 l 1,15,-1
 1526 1453 l 1,16,-1
 1526 1444 l 1,17,-1
 1535 1453 l 1,18,-1
 1578 1453 l 1,19,20
 1578 1435 1578 1435 1552 1435 c 1,21,-1
 1561 1409 l 1,22,-1
 1622 1418 l 1,23,-1
 1509 1313 l 1,24,-1
 1482 1304 l 1,25,-1
 1482 1296 l 1,26,-1
 1578 1313 l 1,27,28
 1578 1298 1578 1298 1509 1269 c 1,29,-1
 1526 1252 l 1,30,-1
 1535 1261 l 1,31,-1
 1543 1261 l 1,32,-1
 1570 1252 l 1,33,-1
 1570 1243 l 1,34,-1
 1552 1217 l 1,35,36
 1596 1217 1596 1217 1596 1182 c 1,37,-1
 916 790 l 1,38,-1
 916 781 l 1,39,40
 1012 417 1012 417 1073 -30 c 1,41,42
 1090 -30 1090 -30 1099 -134 c 1,43,-1
 994 -178 l 1,44,-1
 985 -169 l 1,45,-1
 977 -169 l 1,46,-1
 881 -213 l 1,47,48
 680 -64 680 -64 680 110 c 1,49,-1
 567 581 l 1,50,-1
 558 581 l 1,51,52
 264 421 264 421 253 336 c 1,53,-1
 113 118 l 1,54,55
 91 118 91 118 35 -4 c 1,56,-1
 18 -4 l 1,57,-1
 18 5 l 1,58,-1
 26 40 l 1,59,-1
 26 49 l 1,60,-1
 18 49 l 1,61,-1
 9 23 l 1,62,-1
 0 31 l 1,63,-1
 -9 31 l 1,64,-1
 -52 -21 l 1,65,-1
 -52 -30 l 1,66,-1
 -44 -30 l 1,67,-1
 -9 23 l 1,68,-1
 0 23 l 1,69,-1
 0 5 l 1,70,71
 -14 -47 -14 -47 -70 -47 c 1,72,73
 -162 -229 -162 -229 -166 -300 c 1,74,-1
 -192 -300 l 1,75,76
 -192 -265 -192 -265 -227 -265 c 1,77,-1
 -279 -248 l 1,78,-1
 -288 -239 l 1,79,-1
 -296 -239 l 1,80,-1
 -340 -248 l 1,81,82
 -340 -213 -340 -213 -375 -213 c 1,83,-1
 -401 -152 l 1,84,85
 -270 231 -270 231 227 1104 c 1,86,87
 463 1474 463 1474 576 1496 c 1,0,-1
26 84 m 1,88,-1
 44 84 l 1,89,-1
 61 118 l 1,90,-1
 61 127 l 1,91,-1
 52 127 l 2,92,93
 37 127 37 127 26 84 c 1,88,-1
EndSplineSet
EndChar

StartChar: l
Encoding: 108 108 79
Width: 1128
Flags: W
LayerCount: 2
Fore
SplineSet
736 1574 m 2,0,-1
 789 1574 l 1,1,2
 1021 1489 1021 1489 1021 1351 c 1,3,4
 961 1253 961 1253 540 346 c 1,5,-1
 469 221 l 1,6,-1
 1021 257 l 1,7,-1
 1092 248 l 1,8,-1
 1145 248 l 1,9,-1
 1145 230 l 1,10,-1
 1119 230 l 1,11,-1
 1119 203 l 1,12,-1
 1172 203 l 1,13,-1
 1172 185 l 1,14,-1
 1083 141 l 1,15,-1
 1101 88 l 1,16,-1
 1154 88 l 1,17,-1
 1234 7 l 1,18,19
 1234 -17 1234 -17 709 -90 c 1,20,21
 487 -135 487 -135 104 -242 c 1,22,-1
 95 -242 l 2,23,24
 46 -242 46 -242 -74 -99 c 1,25,-1
 -74 -90 l 1,26,-1
 -65 -82 l 1,27,-1
 -74 -73 l 1,28,-1
 -74 16 l 2,29,30
 -74 61 -74 61 6 123 c 1,31,32
 426 900 426 900 611 1440 c 1,33,-1
 602 1467 l 1,34,35
 658 1574 658 1574 736 1574 c 2,0,-1
EndSplineSet
EndChar

StartChar: m
Encoding: 109 109 80
Width: 1799
Flags: W
LayerCount: 2
Fore
SplineSet
671 1507 m 1,0,-1
 716 1507 l 2,1,2
 819 1507 819 1507 896 1372 c 1,3,-1
 878 1012 l 1,4,5
 878 860 878 860 923 768 c 1,6,7
 942 769 942 769 1104 949 c 1,8,9
 1134 958 1134 958 1464 1300 c 1,10,11
 1588 1471 1588 1471 1717 1471 c 1,12,-1
 1780 1480 l 1,13,14
 1868 1460 1868 1460 1879 1426 c 1,15,16
 1899 1426 1899 1426 1960 1354 c 1,17,-1
 1960 1336 l 2,18,19
 1960 1245 1960 1245 1698 669 c 1,20,21
 1609 453 1609 453 1581 453 c 1,22,-1
 1590 444 l 1,23,-1
 1590 435 l 1,24,-1
 1473 201 l 1,25,26
 1457 200 1457 200 1329 -97 c 1,27,-1
 1266 -178 l 1,28,-1
 1203 -178 l 1,29,-1
 1203 -160 l 1,30,-1
 1167 -178 l 1,31,32
 1167 -158 1167 -158 1104 -142 c 1,33,-1
 1086 -160 l 1,34,35
 1061 -157 1061 -157 1050 -115 c 1,36,37
 1014 -115 1014 -115 1014 -97 c 2,38,-1
 1014 -34 l 2,39,40
 1014 141 1014 141 1284 642 c 1,41,42
 1143 512 1143 512 1014 318 c 1,43,44
 984 318 984 318 932 264 c 1,45,-1
 923 264 l 1,46,47
 827 331 827 331 743 345 c 1,48,49
 652 407 652 407 581 714 c 1,50,-1
 572 714 l 1,51,52
 179 -188 179 -188 139 -223 c 1,53,-1
 121 -223 l 1,54,-1
 76 -196 l 1,55,-1
 49 -205 l 1,56,-1
 40 -196 l 1,57,-1
 31 -205 l 1,58,-1
 13 -169 l 1,59,-1
 -5 -187 l 1,60,-1
 -14 -178 l 1,61,-1
 -95 -196 l 1,62,63
 -115 -147 -115 -147 -149 -142 c 1,64,-1
 -149 -106 l 2,65,66
 -149 110 -149 110 365 1120 c 1,67,68
 486 1489 486 1489 563 1489 c 1,69,-1
 671 1507 l 1,0,-1
EndSplineSet
EndChar

StartChar: n
Encoding: 110 110 81
Width: 1605
Flags: W
LayerCount: 2
Fore
SplineSet
1501 1500 m 2,0,-1
 1564 1500 l 2,1,2
 1684 1500 1684 1500 1762 1392 c 1,3,-1
 1762 1365 l 1,4,-1
 1420 484 l 1,5,6
 1294 251 1294 251 1168 -173 c 1,7,-1
 1141 -200 l 1,8,-1
 1114 -200 l 1,9,-1
 1078 -173 l 1,10,-1
 1069 -182 l 1,11,-1
 1024 -182 l 1,12,-1
 979 -155 l 1,13,-1
 889 -164 l 1,14,-1
 817 -83 l 1,15,-1
 817 -20 l 2,16,17
 817 20 817 20 880 169 c 1,18,-1
 647 726 l 1,19,-1
 575 942 l 1,20,-1
 566 942 l 1,21,-1
 206 187 l 2,22,23
 143 58 143 58 116 -110 c 1,24,-1
 125 -119 l 1,25,-1
 125 -128 l 1,26,27
 110 -200 110 -200 89 -200 c 2,28,-1
 62 -200 l 1,29,-1
 -28 -146 l 1,30,-1
 -46 -146 l 1,31,-1
 -82 -155 l 1,32,-1
 -109 -146 l 1,33,-1
 -127 -164 l 1,34,-1
 -136 -155 l 1,35,-1
 -145 -155 l 1,36,-1
 -154 -164 l 1,37,-1
 -235 -56 l 1,38,-1
 -235 -20 l 2,39,40
 -235 142 -235 142 188 969 c 1,41,-1
 404 1428 l 1,42,43
 453 1467 453 1467 709 1482 c 0,44,45
 770 1482 770 1482 835 1392 c 1,46,-1
 835 1383 l 2,47,48
 835 1128 835 1128 1069 628 c 1,49,50
 1195 844 1195 844 1348 1365 c 0,51,52
 1379 1482 1379 1482 1456 1482 c 1,53,54
 1456 1498 1456 1498 1501 1500 c 2,0,-1
EndSplineSet
EndChar

StartChar: o
Encoding: 111 111 82
Width: 1614
Flags: W
LayerCount: 2
Fore
SplineSet
1307 1496 m 2,0,-1
 1317 1496 l 2,1,2
 1412 1496 1412 1496 1509 1313 c 1,3,-1
 1519 1303 l 1,4,-1
 1519 1258 l 2,5,6
 1519 1215 1519 1215 1375 1184 c 1,7,-1
 1375 1175 l 1,8,9
 1596 901 1596 901 1596 662 c 2,10,-1
 1596 616 l 2,11,12
 1596 24 1596 24 1086 -145 c 1,13,14
 912 -191 912 -191 798 -191 c 2,15,-1
 692 -191 l 2,16,17
 244 -191 244 -191 47 267 c 1,18,19
 19 273 19 273 9 432 c 1,20,-1
 9 497 l 2,21,22
 9 941 9 941 653 1303 c 1,23,24
 1060 1496 1060 1496 1307 1496 c 2,0,-1
365 414 m 2,25,-1
 365 405 l 2,26,27
 365 246 365 246 567 222 c 1,28,-1
 644 222 l 2,29,30
 955 222 955 222 1221 579 c 1,31,32
 1262 673 1262 673 1278 827 c 1,33,34
 1269 955 1269 955 1250 983 c 1,35,-1
 1259 1010 l 1,36,37
 1233 1148 1233 1148 1221 1148 c 0,38,39
 938 1110 938 1110 567 781 c 1,40,41
 365 585 365 585 365 414 c 2,25,-1
EndSplineSet
EndChar

StartChar: p
Encoding: 112 112 83
Width: 1327
Flags: W
LayerCount: 2
Fore
SplineSet
1262.1640625 1527 m 1,0,1
 1575.1640625 1527 1575.1640625 1527 1696.1640625 1301 c 1,2,-1
 1750.1640625 1075 l 1,3,4
 1750.1640625 935 1750.1640625 935 964.1640625 542 c 1,5,6
 556.1640625 367 556.1640625 367 539.1640625 325 c 1,7,8
 476.1640625 208 476.1640625 208 458.1640625 208 c 1,9,10
 413.1640625 172 413.1640625 172 377.1640625 100 c 1,11,-1
 359.1640625 100 l 1,12,-1
 359.1640625 91 l 1,13,-1
 350.1640625 100 l 1,14,-1
 341.1640625 100 l 2,15,16
 322.1640625 100 322.1640625 100 287.1640625 -18 c 1,17,-1
 269.1640625 -18 l 1,18,-1
 278.1640625 -27 l 1,19,-1
 278.1640625 -36 l 1,20,21
 250.1640625 -36 250.1640625 -36 142.1640625 -253 c 1,22,23
 115.1640625 -361 115.1640625 -361 34.1640625 -361 c 1,24,-1
 34.1640625 -343 l 1,25,-1
 25.1640625 -343 l 1,26,-1
 -10.8359375 -352 l 1,27,-1
 -20.8359375 -343 l 1,28,-1
 -29.8359375 -343 l 1,29,-1
 -56.8359375 -352 l 1,30,-1
 -74.8359375 -334 l 1,31,-1
 -92.8359375 -352 l 1,32,-1
 -155.8359375 -280 l 1,33,-1
 -155.8359375 -262 l 2,34,35
 -155.8359375 -172 -155.8359375 -172 70.1640625 298 c 1,36,-1
 43.1640625 307 l 1,37,-1
 52.1640625 316 l 1,38,-1
 52.1640625 325 l 1,39,-1
 7.1640625 362 l 1,40,-1
 -29.8359375 353 l 1,41,-1
 -47.8359375 380 l 1,42,-1
 -38.8359375 389 l 1,43,-1
 -38.8359375 398 l 1,44,45
 -92.8359375 398 -92.8359375 398 -92.8359375 425 c 1,46,47
 18.1640625 513 18.1640625 513 259.1640625 633 c 1,48,-1
 440.1640625 1003 l 1,49,-1
 431.1640625 1003 l 2,50,51
 323.1640625 1003 323.1640625 1003 223.1640625 1211 c 1,52,-1
 223.1640625 1292 l 1,53,54
 297.1640625 1386 297.1640625 1386 603.1640625 1445 c 0,55,56
 778.1640625 1482 778.1640625 1482 1262.1640625 1527 c 1,0,1
765.1640625 858 m 1,57,-1
 774.1640625 858 l 1,58,59
 1068.1640625 995 1068.1640625 995 1316.1640625 1193 c 1,60,-1
 1316.1640625 1202 l 1,61,-1
 1307.1640625 1202 l 1,62,63
 937.1640625 1188 937.1640625 1188 937.1640625 1147 c 1,64,-1
 765.1640625 858 l 1,57,-1
EndSplineSet
EndChar

StartChar: q
Encoding: 113 113 84
Width: 1614
Flags: W
LayerCount: 2
Fore
SplineSet
950 1490 m 2,0,-1
 996 1490 l 1,1,2
 1153 1472 1153 1472 1199 1305 c 1,3,4
 1199 1254 1199 1254 1153 1194 c 1,5,6
 1371 1134 1371 1134 1402 1093 c 1,7,-1
 1467 1037 l 1,8,-1
 1476 1037 l 1,9,-1
 1458 1065 l 1,10,-1
 1458 1074 l 1,11,-1
 1467 1074 l 1,12,13
 1633 926 1633 926 1633 816 c 1,14,15
 1707 724 1707 724 1707 604 c 2,16,-1
 1707 539 l 2,17,18
 1707 223 1707 223 1375 3 c 1,19,-1
 1328 -15 l 1,20,21
 1504 -170 1504 -170 1504 -311 c 2,22,-1
 1504 -338 l 1,23,-1
 1495 -347 l 1,24,-1
 1476 -347 l 1,25,-1
 1458 -329 l 1,26,-1
 1448 -338 l 1,27,-1
 1402 -338 l 2,28,29
 1358 -338 1358 -338 1088 -144 c 1,30,31
 931 -209 931 -209 636 -209 c 0,32,33
 158 -209 158 -209 -57 280 c 1,34,-1
 -75 419 l 1,35,-1
 -75 502 l 2,36,37
 -75 901 -75 901 534 1351 c 1,38,39
 792 1490 792 1490 950 1490 c 2,0,-1
220 354 m 1,40,41
 220 166 220 166 553 133 c 1,42,-1
 571 133 l 1,43,-1
 784 160 l 1,44,45
 645 385 645 385 645 484 c 1,46,-1
 654 493 l 1,47,-1
 664 493 l 1,48,-1
 673 484 l 1,49,50
 673 531 673 531 719 557 c 1,51,-1
 756 539 l 1,52,-1
 784 548 l 1,53,54
 956 430 956 430 1061 280 c 1,55,-1
 1070 280 l 1,56,57
 1310 420 1310 420 1402 613 c 1,58,59
 1424 770 1424 770 1439 770 c 1,60,61
 1439 867 1439 867 1190 1084 c 1,62,63
 1190 1122 1190 1122 1125 1176 c 1,64,65
 740 1025 740 1025 525 844 c 1,66,67
 228 528 228 528 220 354 c 1,40,41
EndSplineSet
EndChar

StartChar: r
Encoding: 114 114 85
Width: 1645
Flags: W
LayerCount: 2
Fore
SplineSet
815 1523 m 2,0,-1
 893 1523 l 2,1,2
 1476 1523 1476 1523 1581 1140 c 1,3,-1
 1590 1087 l 1,4,-1
 1590 1061 l 2,5,6
 1590 946 1590 946 1067 678 c 1,7,8
 1198 123 1198 123 1198 -97 c 1,9,-1
 1207 -106 l 1,10,-1
 1207 -114 l 1,11,-1
 1198 -141 l 1,12,-1
 1207 -219 l 1,13,-1
 1198 -228 l 1,14,-1
 1181 -228 l 1,15,16
 1181 -193 1181 -193 1163 -193 c 1,17,18
 1163 -219 1163 -219 1146 -219 c 2,19,-1
 1128 -219 l 1,20,-1
 1120 -210 l 1,21,-1
 1111 -210 l 1,22,23
 1098 -245 1098 -245 1085 -245 c 2,24,-1
 1041 -236 l 1,25,-1
 1024 -254 l 1,26,27
 1018 -210 1018 -210 980 -210 c 1,28,29
 841 114 841 114 737 539 c 1,30,-1
 345 408 l 1,31,32
 291 285 291 285 258 269 c 1,33,-1
 249 225 l 1,34,-1
 223 225 l 1,35,-1
 258 321 l 1,36,-1
 258 330 l 1,37,-1
 249 330 l 1,38,-1
 205 234 l 1,39,-1
 223 216 l 1,40,41
 190 216 190 216 92 34 c 1,42,43
 80 33 80 33 40 -80 c 1,44,45
 22 -80 22 -80 -47 -254 c 1,46,-1
 -56 -254 l 1,47,48
 -56 -214 -56 -214 -143 -184 c 1,49,-1
 -160 -202 l 1,50,51
 -160 -184 -160 -184 -187 -184 c 1,52,-1
 -213 -193 l 1,53,54
 -232 -146 -232 -146 -265 -141 c 1,55,-1
 -265 -114 l 2,56,57
 -265 97 -265 97 214 1053 c 1,58,59
 31 1177 31 1177 31 1253 c 2,60,-1
 31 1296 l 1,61,62
 38 1342 38 1342 353 1453 c 1,63,64
 397 1523 397 1523 815 1523 c 2,0,-1
536 835 m 1,65,-1
 554 835 l 1,66,67
 1077 1059 1077 1059 1189 1192 c 1,68,-1
 1189 1201 l 1,69,-1
 1015 1209 l 1,70,-1
 998 1209 l 2,71,72
 667 1209 667 1209 667 1131 c 1,73,74
 564 868 564 868 536 835 c 1,65,-1
EndSplineSet
EndChar

StartChar: s
Encoding: 115 115 86
Width: 1085
Flags: W
LayerCount: 2
Fore
SplineSet
1250 1538 m 2,0,-1
 1269 1538 l 2,1,2
 1311 1538 1311 1538 1381 1473 c 2,3,-1
 1390 1464 l 1,4,-1
 1399 1464 l 1,5,-1
 1390 1427 l 1,6,-1
 1399 1315 l 1,7,8
 1384 1166 1384 1166 1297 1166 c 2,9,-1
 1241 1166 l 2,10,11
 877 1166 877 1166 330 915 c 1,12,-1
 330 897 l 1,13,-1
 339 897 l 1,14,15
 1015 841 1015 841 1083 711 c 1,16,17
 1148 673 1148 673 1148 580 c 1,18,19
 1123 274 1123 274 1074 274 c 1,20,21
 864 117 864 117 609 23 c 1,22,23
 226 -108 226 -108 -442 -275 c 1,24,-1
 -451 -266 l 1,25,-1
 -451 -256 l 1,26,-1
 -386 -229 l 1,27,-1
 -386 -210 l 1,28,-1
 -488 -229 l 1,29,-1
 -488 -219 l 2,30,31
 -488 -198 -488 -198 -442 -191 c 1,32,-1
 -442 -173 l 1,33,-1
 -470 -173 l 1,34,-1
 -470 -154 l 1,35,-1
 -451 -154 l 1,36,-1
 -451 -145 l 1,37,-1
 -507 -126 l 1,38,-1
 -498 -117 l 1,39,-1
 -498 -89 l 1,40,41
 -535 -89 -535 -89 -535 -61 c 1,42,-1
 -544 -70 l 1,43,-1
 -563 -70 l 1,44,-1
 -563 -61 l 1,45,-1
 -554 -52 l 1,46,-1
 -554 -43 l 1,47,-1
 -572 -43 l 1,48,49
 -572 -24 -572 -24 -600 -24 c 1,50,-1
 -600 -15 l 2,51,52
 -600 32 -600 32 153 246 c 1,53,54
 653 419 653 419 730 478 c 1,55,56
 -61 530 -61 530 -61 646 c 1,57,58
 -154 706 -154 706 -154 822 c 0,59,60
 -154 929 -154 929 -42 1073 c 1,61,62
 638 1538 638 1538 1250 1538 c 2,0,-1
-414 -117 m 1,63,-1
 -414 -126 l 1,64,-1
 -395 -126 l 1,65,-1
 -395 -117 l 1,66,-1
 -414 -117 l 1,63,-1
EndSplineSet
EndChar

StartChar: t
Encoding: 116 116 87
Width: 1169
Flags: W
LayerCount: 2
Fore
SplineSet
983 1545 m 1,0,-1
 1162 1536 l 1,1,-1
 1341 1536 l 2,2,3
 1393 1536 1393 1536 1417 1488 c 1,4,-1
 1407 1479 l 1,5,6
 1454 1476 1454 1476 1454 1451 c 2,7,-1
 1454 1441 l 1,8,-1
 1351 1441 l 1,9,-1
 1351 1432 l 1,10,-1
 1388 1432 l 1,11,-1
 1388 1413 l 1,12,-1
 1370 1413 l 1,13,-1
 1379 1403 l 1,14,-1
 1370 1394 l 1,15,-1
 1370 1375 l 1,16,-1
 1417 1366 l 1,17,-1
 1417 1356 l 1,18,-1
 1407 1347 l 1,19,-1
 1407 1337 l 1,20,21
 1464 1337 1464 1337 1464 1262 c 1,22,23
 1502 1257 1502 1257 1502 1234 c 2,24,-1
 1502 1215 l 1,25,-1
 945 1149 l 1,26,27
 874 1149 874 1149 832 970 c 1,28,29
 334 0 334 0 237 -266 c 1,30,31
 180 -323 180 -323 143 -323 c 1,32,-1
 105 -285 l 1,33,34
 49 -285 49 -285 49 -238 c 1,35,-1
 39 -248 l 1,36,-1
 30 -248 l 1,37,38
 28 -224 28 -224 -64 -163 c 1,39,-1
 -93 -115 l 1,40,41
 -93 75 -93 75 360 894 c 1,42,-1
 436 1073 l 1,43,-1
 86 1017 l 1,44,45
 -112 1017 -112 1017 -178 1196 c 1,46,-1
 -206 1309 l 1,47,-1
 -206 1328 l 2,48,49
 -206 1388 -206 1388 -131 1441 c 1,50,-1
 -8 1441 l 2,51,52
 288 1441 288 1441 983 1545 c 1,0,-1
EndSplineSet
EndChar

StartChar: u
Encoding: 117 117 88
Width: 1501
Flags: W
LayerCount: 2
Fore
SplineSet
505 1494 m 2,0,-1
 549 1494 l 2,1,2
 688 1494 688 1494 776 1346 c 1,3,-1
 784 1311 l 1,4,5
 784 1238 784 1238 592 874 c 1,6,7
 391 479 391 479 391 150 c 2,8,-1
 391 124 l 1,9,10
 617 271 617 271 758 482 c 1,11,12
 1090 905 1090 905 1151 1093 c 1,13,-1
 1203 1206 l 1,14,15
 1229 1206 1229 1206 1229 1232 c 1,16,-1
 1238 1241 l 1,17,-1
 1256 1241 l 1,18,-1
 1256 1206 l 1,19,-1
 1264 1206 l 1,20,21
 1288 1354 1288 1354 1308 1354 c 2,22,-1
 1317 1354 l 1,23,-1
 1317 1319 l 1,24,-1
 1325 1319 l 1,25,-1
 1325 1389 l 1,26,-1
 1343 1389 l 1,27,-1
 1343 1363 l 1,28,29
 1374 1379 1374 1379 1421 1494 c 1,30,-1
 1430 1494 l 1,31,32
 1517 1413 1517 1413 1517 1241 c 0,33,34
 1517 665 1517 665 776 -68 c 1,35,36
 634 -156 634 -156 453 -156 c 0,37,38
 118 -156 118 -156 7 89 c 1,39,-1
 -10 194 l 1,40,-1
 -10 237 l 2,41,42
 -10 581 -10 581 130 848 c 1,43,-1
 357 1381 l 1,44,45
 431 1494 431 1494 505 1494 c 2,0,-1
EndSplineSet
EndChar

StartChar: v
Encoding: 118 118 89
Width: 1456
Flags: W
LayerCount: 2
Fore
SplineSet
1670 1507 m 1,0,-1
 1689 1459 l 1,1,-1
 1699 1459 l 1,2,-1
 1708 1469 l 1,3,-1
 1718 1469 l 1,4,-1
 1727 1459 l 1,5,-1
 1718 1450 l 1,6,-1
 1718 1440 l 1,7,-1
 1737 1421 l 1,8,9
 1737 1385 1737 1385 1355 935 c 1,10,11
 826 253 826 253 659 -47 c 1,12,13
 618 -199 618 -199 526 -199 c 2,14,-1
 488 -199 l 2,15,16
 326 -199 326 -199 211 -76 c 1,17,-1
 230 10 l 1,18,-1
 30 1059 l 1,19,-1
 -46 1412 l 1,20,-1
 -46 1421 l 1,21,22
 2 1497 2 1497 68 1497 c 0,23,24
 195 1497 195 1497 316 1402 c 1,25,26
 412 1333 412 1333 412 1154 c 1,27,28
 424 1151 424 1151 526 468 c 1,29,-1
 536 468 l 1,30,-1
 764 763 l 1,31,32
 858 842 858 842 869 897 c 1,33,-1
 879 897 l 1,34,-1
 888 887 l 1,35,-1
 898 887 l 1,36,-1
 984 973 l 1,37,-1
 993 964 l 1,38,-1
 993 973 l 1,39,-1
 984 1002 l 1,40,-1
 1012 1021 l 1,41,-1
 1022 1021 l 1,42,-1
 1031 973 l 1,43,-1
 1050 992 l 1,44,-1
 1041 1030 l 1,45,-1
 1050 1030 l 1,46,-1
 1041 1059 l 1,47,48
 1067 1122 1067 1122 1098 1135 c 1,49,-1
 1108 1135 l 1,50,-1
 1117 1126 l 1,51,-1
 1127 1126 l 1,52,-1
 1146 1145 l 1,53,-1
 1146 1126 l 1,54,-1
 1136 1116 l 1,55,-1
 1136 1107 l 1,56,-1
 1146 1107 l 1,57,-1
 1251 1240 l 1,58,-1
 1260 1240 l 1,59,-1
 1260 1231 l 1,60,-1
 1193 1145 l 1,61,-1
 1193 1088 l 1,62,-1
 1298 1202 l 1,63,-1
 1308 1192 l 1,64,-1
 1317 1192 l 1,65,-1
 1317 1211 l 1,66,-1
 1327 1211 l 1,67,-1
 1308 1259 l 1,68,-1
 1317 1269 l 1,69,-1
 1327 1269 l 1,70,-1
 1336 1259 l 1,71,-1
 1346 1259 l 1,72,-1
 1441 1335 l 1,73,-1
 1451 1326 l 1,74,-1
 1451 1316 l 1,75,-1
 1403 1269 l 1,76,-1
 1403 1259 l 1,77,-1
 1422 1259 l 1,78,79
 1633 1504 1633 1504 1670 1507 c 1,0,-1
EndSplineSet
EndChar

StartChar: w
Encoding: 119 119 90
Width: 1669
Flags: W
LayerCount: 2
Fore
SplineSet
1846 1617 m 1,0,-1
 1855 1608 l 1,1,-1
 1855 1599 l 1,2,-1
 1882 1608 l 1,3,4
 1919 1599 1919 1599 1919 1572 c 1,5,-1
 1928 1572 l 1,6,-1
 1937 1599 l 1,7,8
 2063 1572 2063 1572 2063 1554 c 1,9,-1
 2054 1526 l 1,10,-1
 2063 1535 l 1,11,-1
 2072 1535 l 1,12,-1
 2099 1526 l 1,13,-1
 2099 1517 l 2,14,15
 2099 1451 2099 1451 1693 822 c 1,16,-1
 1250 54 l 1,17,-1
 1178 -100 l 1,18,19
 1106 -154 1106 -154 1051 -154 c 1,20,21
 825 -105 825 -105 825 -55 c 1,22,23
 699 54 699 54 699 379 c 1,24,25
 553 218 553 218 464 27 c 1,26,27
 399 -145 399 -145 274 -145 c 0,28,29
 216 -145 216 -145 166 -109 c 1,30,-1
 157 -118 l 1,31,-1
 148 -118 l 2,32,33
 131 -118 131 -118 94 -73 c 1,34,35
 28 -73 28 -73 -24 361 c 0,36,37
 -42 484 -42 484 -42 894 c 1,38,-1
 -24 1373 l 2,39,40
 -24 1448 -24 1448 139 1472 c 1,41,42
 258 1453 258 1453 337 1364 c 1,43,-1
 356 1310 l 1,44,-1
 356 1246 l 1,45,-1
 319 903 l 1,46,-1
 319 777 l 1,47,-1
 328 722 l 1,48,-1
 319 677 l 1,49,-1
 328 668 l 1,50,-1
 319 623 l 1,51,-1
 319 587 l 1,52,-1
 328 551 l 1,53,-1
 319 515 l 1,54,-1
 319 469 l 1,55,-1
 681 885 l 1,56,57
 702 885 702 885 726 1102 c 1,58,-1
 780 1120 l 1,59,-1
 798 1138 l 1,60,-1
 861 1129 l 1,61,-1
 889 1129 l 1,62,-1
 952 1138 l 1,63,-1
 961 1129 l 1,64,-1
 961 1120 l 1,65,-1
 952 1111 l 1,66,-1
 997 1102 l 1,67,-1
 1006 1102 l 1,68,-1
 1033 1120 l 1,69,-1
 1042 1120 l 1,70,-1
 1051 1111 l 1,71,-1
 1060 1120 l 1,72,-1
 1105 1120 l 1,73,-1
 1142 1075 l 1,74,75
 1169 1075 1169 1075 1169 1057 c 1,76,-1
 1069 813 l 1,77,-1
 1051 704 l 1,78,-1
 1051 542 l 1,79,-1
 1042 533 l 1,80,-1
 1051 442 l 1,81,-1
 1060 442 l 1,82,83
 1202 674 1202 674 1395 921 c 1,84,85
 1413 984 1413 984 1449 984 c 1,86,-1
 1440 993 l 1,87,-1
 1440 1002 l 1,88,89
 1618 1297 1618 1297 1657 1319 c 1,90,91
 1657 1355 1657 1355 1765 1535 c 1,92,93
 1765 1585 1765 1585 1846 1617 c 1,0,-1
1620 1210 m 1,94,-1
 1620 1201 l 1,95,-1
 1638 1219 l 1,96,-1
 1638 1228 l 1,97,-1
 1620 1210 l 1,94,-1
1557 1129 m 1,98,-1
 1557 1102 l 1,99,-1
 1566 1102 l 1,100,-1
 1566 1129 l 1,101,-1
 1557 1129 l 1,98,-1
EndSplineSet
EndChar

StartChar: x
Encoding: 120 120 91
Width: 1350
Flags: W
LayerCount: 2
Fore
SplineSet
1249 1474 m 2,0,-1
 1258 1474 l 2,1,2
 1323 1472 1323 1472 1323 1456 c 1,3,-1
 1333 1465 l 1,4,-1
 1342 1465 l 1,5,6
 1499 1363 1499 1363 1499 1289 c 1,7,8
 1494 1260 1494 1260 1166 1011 c 1,9,-1
 712 585 l 1,10,11
 953 137 953 137 953 -55 c 0,12,13
 953 -105 953 -105 915 -203 c 1,14,-1
 897 -203 l 1,15,-1
 832 -212 l 1,16,-1
 823 -203 l 1,17,-1
 823 -194 l 1,18,-1
 712 -231 l 1,19,-1
 702 -185 l 1,20,-1
 693 -194 l 1,21,-1
 684 -194 l 2,22,23
 672 -194 672 -194 573 93 c 1,24,-1
 434 344 l 1,25,26
 369 288 369 288 369 270 c 1,27,-1
 294 242 l 1,28,-1
 304 232 l 1,29,-1
 304 223 l 1,30,-1
 7 -73 l 2,31,32
 -54 -130 -54 -130 -132 -250 c 1,33,-1
 -197 -268 l 1,34,35
 -252 -249 -252 -249 -252 -231 c 1,36,-1
 -262 -240 l 1,37,-1
 -280 -240 l 1,38,-1
 -317 -212 l 1,39,-1
 -327 -222 l 1,40,41
 -407 -172 -407 -172 -447 -120 c 1,42,-1
 -447 -92 l 2,43,44
 -447 20 -447 20 285 659 c 1,45,-1
 294 668 l 1,46,-1
 294 677 l 1,47,48
 248 830 248 830 202 1169 c 1,49,50
 202 1348 202 1348 304 1447 c 1,51,-1
 406 1447 l 2,52,53
 539 1447 539 1447 610 1335 c 1,54,-1
 610 1280 l 1,55,-1
 591 1150 l 1,56,-1
 600 1141 l 1,57,-1
 591 1094 l 1,58,-1
 600 1039 l 1,59,-1
 591 1039 l 1,60,-1
 610 965 l 1,61,-1
 1138 1437 l 1,62,63
 1201 1474 1201 1474 1249 1474 c 2,0,-1
EndSplineSet
EndChar

StartChar: y
Encoding: 121 121 92
Width: 1233
Flags: W
LayerCount: 2
Fore
SplineSet
1365 1484 m 2,0,-1
 1402 1484 l 2,1,2
 1470 1484 1470 1484 1576 1356 c 1,3,-1
 1576 1319 l 1,4,5
 471 244 471 244 332 176 c 1,6,7
 332 139 332 139 286 139 c 1,8,9
 286 110 286 110 85 -80 c 1,10,11
 -50 -202 -50 -202 -80 -309 c 1,12,-1
 -126 -318 l 1,13,14
 -179 -318 -179 -318 -217 -281 c 1,15,-1
 -235 -300 l 1,16,17
 -248 -245 -248 -245 -336 -245 c 1,18,-1
 -400 -172 l 1,19,-1
 -400 -153 l 2,20,21
 -400 -11 -400 -11 277 551 c 1,22,23
 460 738 460 738 460 761 c 1,24,25
 112 1109 112 1109 112 1347 c 2,26,-1
 112 1402 l 1,27,28
 159 1456 159 1456 268 1456 c 2,29,-1
 304 1456 l 2,30,31
 473 1456 473 1456 560 1200 c 1,32,33
 560 1108 560 1108 707 953 c 1,34,35
 797 1016 797 1016 1173 1420 c 1,36,37
 1282 1484 1282 1484 1365 1484 c 2,0,-1
EndSplineSet
EndChar

StartChar: z
Encoding: 122 122 93
Width: 1124
Flags: W
LayerCount: 2
Fore
SplineSet
1283 1474 m 2,0,-1
 1321 1474 l 2,1,2
 1466 1474 1466 1474 1536 1240 c 1,3,-1
 1536 1231 l 2,4,5
 1536 1152 1536 1152 1255 960 c 1,6,7
 559 302 559 302 377 194 c 1,8,-1
 377 184 l 1,9,-1
 536 194 l 1,10,-1
 900 194 l 1,11,-1
 1218 184 l 1,12,-1
 1227 194 l 1,13,-1
 1237 194 l 1,14,-1
 1246 184 l 1,15,-1
 1293 194 l 1,16,-1
 1386 194 l 1,17,-1
 1405 175 l 1,18,-1
 1395 147 l 1,19,-1
 1405 147 l 2,20,21
 1442 147 1442 147 1442 128 c 1,22,-1
 1414 100 l 1,23,-1
 1442 72 l 1,24,-1
 1442 63 l 1,25,-1
 1423 7 l 1,26,-1
 1423 -3 l 1,27,28
 1451 -3 1451 -3 1451 -31 c 1,29,-1
 1489 -49 l 1,30,31
 1489 -162 1489 -162 1274 -162 c 1,32,-1
 1246 -152 l 1,33,-1
 1199 -162 l 1,34,-1
 975 -152 l 1,35,-1
 807 -152 l 2,36,37
 269 -152 269 -152 -63 -283 c 1,38,-1
 -128 -283 l 1,39,40
 -343 -207 -343 -207 -343 -21 c 2,41,-1
 -343 16 l 2,42,43
 -343 59 -343 59 -203 91 c 1,44,45
 -169 221 -169 221 330 624 c 1,46,47
 671 890 671 890 816 1035 c 1,48,-1
 807 1035 l 1,49,50
 554 988 554 988 442 988 c 0,51,52
 255 988 255 988 180 1194 c 1,53,-1
 180 1250 l 1,54,55
 240 1409 240 1409 853 1409 c 1,56,57
 1170 1474 1170 1474 1283 1474 c 2,0,-1
EndSplineSet
EndChar

StartChar: braceleft
Encoding: 123 123 94
Width: 1014
Flags: W
LayerCount: 2
Fore
SplineSet
240 698 m 1,0,1
 412 703 412 703 463 769 c 128,-1,2
 514 835 514 835 514 902 c 2,3,-1
 514 1370 l 2,4,5
 514 1444 514 1444 591 1511.5 c 128,-1,6
 668 1579 668 1579 776 1579 c 2,7,-1
 884 1579 l 1,8,-1
 884 1529 l 1,9,-1
 794 1529 l 2,10,11
 733 1529 733 1529 687 1495.5 c 128,-1,12
 641 1462 641 1462 640 1404 c 2,13,-1
 640 904 l 2,14,15
 640 821 640 821 579.5 745.5 c 128,-1,16
 519 670 519 670 437 669 c 1,17,-1
 437 667 l 1,18,19
 519 666 519 666 580 591 c 128,-1,20
 641 516 641 516 641 433 c 2,21,-1
 640 -67 l 2,22,23
 641 -125 641 -125 687 -158.5 c 128,-1,24
 733 -192 733 -192 794 -192 c 2,25,-1
 884 -192 l 1,26,-1
 884 -242 l 1,27,-1
 776 -242 l 2,28,29
 668 -242 668 -242 591.5 -174.5 c 128,-1,30
 515 -107 515 -107 514 -33 c 2,31,-1
 514 435 l 2,32,33
 514 501 514 501 463 567 c 128,-1,34
 412 633 412 633 240 638 c 1,35,-1
 240 698 l 1,0,1
EndSplineSet
EndChar

StartChar: bar
Encoding: 124 124 95
Width: 1014
Flags: W
LayerCount: 2
Fore
SplineSet
427 1577 m 1,0,-1
 587 1577 l 1,1,-1
 587 -418 l 1,2,-1
 427 -418 l 1,3,-1
 427 1577 l 1,0,-1
EndSplineSet
EndChar

StartChar: braceright
Encoding: 125 125 96
Width: 1014
Flags: W
LayerCount: 2
Fore
SplineSet
774 638 m 1,0,1
 602 633 602 633 551 567 c 128,-1,2
 500 501 500 501 500 435 c 2,3,-1
 500 -33 l 2,4,5
 499 -107 499 -107 422.5 -174.5 c 128,-1,6
 346 -242 346 -242 238 -242 c 2,7,-1
 130 -242 l 1,8,-1
 130 -192 l 1,9,-1
 220 -192 l 2,10,11
 281 -192 281 -192 327 -158.5 c 128,-1,12
 373 -125 373 -125 374 -67 c 2,13,-1
 373 433 l 2,14,15
 373 516 373 516 434 591 c 128,-1,16
 495 666 495 666 578 667 c 1,17,-1
 578 669 l 1,18,19
 495 670 495 670 434.5 745.5 c 128,-1,20
 374 821 374 821 374 904 c 2,21,-1
 374 1404 l 2,22,23
 373 1462 373 1462 327 1495.5 c 128,-1,24
 281 1529 281 1529 220 1529 c 2,25,-1
 130 1529 l 1,26,-1
 130 1579 l 1,27,-1
 238 1579 l 2,28,29
 346 1579 346 1579 423 1511.5 c 128,-1,30
 500 1444 500 1444 500 1370 c 2,31,-1
 500 902 l 2,32,33
 500 835 500 835 551 769 c 128,-1,34
 602 703 602 703 774 698 c 1,35,-1
 774 638 l 1,0,1
EndSplineSet
EndChar

StartChar: asciitilde
Encoding: 126 126 97
Width: 1014
Flags: W
LayerCount: 2
Fore
SplineSet
281 867 m 2,0,-1
 309 867 l 2,1,2
 363 867 363 867 759 723 c 1,3,-1
 834 708 l 1,4,5
 875 708 875 708 1003 759 c 1,6,-1
 1003 751 l 1,7,-1
 1012 759 l 1,8,-1
 1050 759 l 1,9,-1
 1050 751 l 1,10,-1
 965 658 l 1,11,-1
 975 658 l 1,12,-1
 984 665 l 1,13,-1
 984 650 l 1,14,-1
 1022 672 l 1,15,-1
 1031 665 l 1,16,-1
 1040 665 l 1,17,-1
 1059 679 l 1,18,-1
 1059 672 l 1,19,20
 959 542 959 542 834 542 c 2,21,-1
 797 542 l 2,22,23
 744 542 744 542 375 636 c 1,24,-1
 347 636 l 2,25,26
 309 636 309 636 141 585 c 1,27,-1
 19 564 l 1,28,-1
 0 585 l 1,29,-1
 0 600 l 2,30,31
 0 724 0 724 122 824 c 1,32,33
 187 867 187 867 281 867 c 2,0,-1
EndSplineSet
EndChar

StartChar: exclamdown
Encoding: 161 161 98
Width: 672
Flags: W
LayerCount: 2
Fore
SplineSet
521 1496 m 1,0,-1
 530 1496 l 1,1,2
 717 1460 717 1460 717 1445 c 0,3,4
 717 1422 717 1422 759 1403 c 1,5,-1
 759 1369 l 2,6,7
 759 1187 759 1187 606 1063 c 1,8,-1
 564 1054 l 1,9,10
 474 1054 474 1054 351 1216 c 1,11,-1
 351 1233 l 1,12,13
 489 1471 489 1471 521 1496 c 1,0,-1
326 1071 m 2,14,-1
 343 1071 l 1,15,16
 393 1029 393 1029 445 1029 c 1,17,18
 547 954 547 954 547 918 c 1,19,-1
 105 26 l 1,20,21
 61 0 61 0 20 0 c 2,22,-1
 -6 0 l 2,23,24
 -82 0 -82 0 -176 119 c 1,25,-1
 -176 162 l 1,26,-1
 156 816 l 1,27,28
 185 851 185 851 258 1020 c 1,29,-1
 249 1046 l 1,30,31
 282 1071 282 1071 326 1071 c 2,14,-1
EndSplineSet
EndChar

StartChar: sterling
Encoding: 163 163 100
Width: 1014
Flags: W
LayerCount: 2
Fore
SplineSet
748 1347 m 1,0,1
 676 1378 676 1378 588 1378 c 2,2,-1
 586 1378 l 2,3,4
 486 1378 486 1378 396 1277 c 0,5,6
 312 1184 312 1184 312 1036 c 0,7,8
 312 1021 312 1021 313 1006 c 0,9,10
 313 871 313 871 366 733 c 1,11,-1
 726 733 l 1,12,-1
 726 673 l 1,13,-1
 392 673 l 1,14,15
 406 643 406 643 423 613 c 0,16,17
 458 550 458 550 458 475 c 0,18,19
 458 314 458 314 296 100 c 1,20,-1
 698 100 l 2,21,22
 828 100 828 100 887 232 c 1,23,-1
 936 231 l 1,24,-1
 833 0 l 1,25,-1
 114 0 l 1,26,-1
 115 50 l 1,27,28
 302 288 302 288 302 468 c 0,29,30
 302 545 302 545 268 611 c 0,31,32
 251 643 251 643 237 673 c 1,33,-1
 76 673 l 1,34,-1
 76 733 l 1,35,-1
 211 733 l 1,36,37
 153 876 153 876 153 986 c 0,38,39
 153 1212 153 1212 276.5 1333 c 128,-1,40
 400 1454 400 1454 583 1454 c 2,41,-1
 587 1454 l 2,42,43
 662 1454 662 1454 772.5 1440 c 128,-1,44
 883 1426 883 1426 883 1406 c 2,45,-1
 883 1245 l 1,46,-1
 825 1245 l 1,47,48
 820 1306 820 1306 748 1347 c 1,0,1
EndSplineSet
EndChar

StartChar: currency
Encoding: 164 164 101
Width: 1014
Flags: W
LayerCount: 2
Fore
SplineSet
350 560 m 0,0,1
 391 520 391 520 449 503 c 0,2,3
 478 495 478 495 507 495 c 256,4,5
 536 495 536 495 565 503 c 0,6,7
 623 520 623 520 664 560 c 0,8,9
 704 601 704 601 721 659 c 0,10,11
 730 688 730 688 730 717 c 256,12,13
 730 746 730 746 721 775 c 0,14,15
 704 833 704 833 664 874 c 0,16,17
 623 914 623 914 564 931 c 0,18,19
 535 939 535 939 506 939 c 256,20,21
 477 939 477 939 448 930 c 0,22,23
 390 913 390 913 350 874 c 0,24,25
 311 834 311 834 294 776 c 0,26,27
 284 746 284 746 284 716 c 0,28,29
 284 688 284 688 293 660 c 0,30,31
 309 601 309 601 350 560 c 0,0,1
240 903 m 1,32,-1
 122 1021 l 1,33,-1
 202 1102 l 1,34,-1
 320 984 l 1,35,36
 364 1014 364 1014 419 1030 c 0,37,38
 463 1044 463 1044 508 1044 c 0,39,40
 549 1044 549 1044 591 1032 c 0,41,42
 648 1015 648 1015 693 984 c 1,43,-1
 811 1102 l 1,44,-1
 891 1021 l 1,45,-1
 774 904 l 1,46,47
 805 858 805 858 822 802 c 0,48,49
 834 760 834 760 834 717 c 0,50,51
 834 675 834 675 822 632 c 0,52,53
 805 576 805 576 774 530 c 1,54,-1
 891 413 l 1,55,-1
 811 332 l 1,56,-1
 693 450 l 1,57,58
 648 418 648 418 592 402 c 0,59,60
 550 390 550 390 507 390 c 0,61,62
 465 390 465 390 422 402 c 0,63,64
 365 418 365 418 320 450 c 1,65,-1
 202 332 l 1,66,-1
 122 413 l 1,67,-1
 240 530 l 1,68,69
 208 576 208 576 192 633 c 0,70,71
 180 675 180 675 180 717 c 0,72,73
 180 761 180 761 193 804 c 0,74,75
 209 859 209 859 240 903 c 1,32,-1
EndSplineSet
EndChar

StartChar: yen
Encoding: 165 165 102
Width: 1262
Flags: W
LayerCount: 2
Fore
SplineSet
547 225 m 2,0,-1
 545 467 l 2,1,2
 545 486 545 486 543.5 502 c 128,-1,3
 542 518 542 518 539 534 c 1,4,-1
 55 535 l 2,5,6
 41 535 41 535 34 541.5 c 128,-1,7
 27 548 27 548 27 561 c 256,8,9
 27 574 27 574 33.5 580 c 128,-1,10
 40 586 40 586 55 586 c 2,11,-1
 522 586 l 1,12,-1
 401 758 l 1,13,-1
 57 758 l 2,14,15
 40 758 40 758 33.5 763.5 c 128,-1,16
 27 769 27 769 27 782 c 0,17,18
 27 796 27 796 33 801.5 c 128,-1,19
 39 807 39 807 55 807 c 2,20,-1
 362 807 l 1,21,22
 319 864 319 864 254 962 c 0,23,24
 123 1159 123 1159 27 1159 c 0,25,26
 20 1159 20 1159 14 1164.5 c 128,-1,27
 8 1170 8 1170 8 1176 c 0,28,29
 8 1195 8 1195 18.5 1203.5 c 128,-1,30
 29 1212 29 1212 51 1212 c 0,31,32
 78 1212 78 1212 174 1204 c 128,-1,33
 270 1196 270 1196 338 1196 c 2,34,-1
 395 1196 l 1,35,-1
 426 1196 l 2,36,37
 459 1196 459 1196 467 1189.5 c 128,-1,38
 475 1183 475 1183 475 1163 c 0,39,40
 475 1155 475 1155 460 1149 c 128,-1,41
 445 1143 445 1143 422 1143 c 0,42,43
 416 1143 416 1143 403.5 1145 c 128,-1,44
 391 1147 391 1147 385 1147 c 0,45,46
 361 1147 361 1147 347.5 1137.5 c 128,-1,47
 334 1128 334 1128 334 1112 c 0,48,49
 334 1094 334 1094 350.5 1060 c 128,-1,50
 367 1026 367 1026 397 983 c 2,51,-1
 555 762 l 2,52,53
 568 743 568 743 588 709 c 0,54,55
 629 639 629 639 659 639 c 0,56,57
 668 639 668 639 675.5 644 c 128,-1,58
 683 649 683 649 690 659 c 2,59,-1
 967 1055 l 2,60,61
 975 1067 975 1067 980 1081.5 c 128,-1,62
 985 1096 985 1096 985 1106 c 0,63,64
 985 1124 985 1124 975 1133 c 128,-1,65
 965 1142 965 1142 938 1147 c 0,66,67
 923 1149 923 1149 897 1151 c 0,68,69
 850 1154 850 1154 850 1176 c 0,70,71
 850 1191 850 1191 858 1198.5 c 128,-1,72
 866 1206 866 1206 883 1206 c 0,73,74
 886 1206 886 1206 898 1205 c 0,75,76
 954 1198 954 1198 1006 1198 c 2,77,-1
 1145 1198 l 2,78,79
 1175 1198 1175 1198 1210 1199 c 128,-1,80
 1245 1200 1245 1200 1247 1200 c 0,81,82
 1258 1200 1258 1200 1265.5 1195.5 c 128,-1,83
 1273 1191 1273 1191 1274 1184 c 0,84,85
 1274 1156 1274 1156 1236 1150 c 0,86,87
 1218 1147 1218 1147 1209 1145 c 0,88,89
 1146 1130 1146 1130 1062 1028 c 0,90,91
 1055 1019 1055 1019 1050 1013 c 2,92,-1
 881 807 l 1,93,-1
 1204 807 l 2,94,95
 1219 807 1219 807 1228 801 c 128,-1,96
 1237 795 1237 795 1237 784 c 0,97,98
 1237 769 1237 769 1231 763.5 c 128,-1,99
 1225 758 1225 758 1208 758 c 2,100,-1
 842 758 l 1,101,102
 796 701 796 701 745.5 645.5 c 128,-1,103
 695 590 695 590 693 586 c 1,104,-1
 1204 586 l 2,105,106
 1222 586 1222 586 1229.5 580.5 c 128,-1,107
 1237 575 1237 575 1237 563 c 0,108,109
 1237 549 1237 549 1230 542 c 128,-1,110
 1223 535 1223 535 1208 535 c 2,111,-1
 678 535 l 1,112,113
 678 524 678 524 677 504.5 c 128,-1,114
 676 485 676 485 676 475 c 2,115,-1
 678 260 l 2,116,117
 678 146 678 146 683.5 110 c 128,-1,118
 689 74 689 74 704 66 c 0,119,120
 734 49 734 49 811.5 47 c 128,-1,121
 889 45 889 45 889 16 c 0,122,123
 889 4 889 4 879 -4 c 128,-1,124
 869 -12 869 -12 854 -12 c 0,125,126
 852 -12 852 -12 818.5 -8 c 128,-1,127
 785 -4 785 -4 754 -4 c 0,128,129
 663 -4 663 -4 545.5 -8 c 128,-1,130
 428 -12 428 -12 403 -12 c 0,131,132
 372 -12 372 -12 363 -8 c 128,-1,133
 354 -4 354 -4 354 8 c 256,134,135
 354 20 354 20 362 26.5 c 128,-1,136
 370 33 370 33 399 39 c 0,137,138
 408 41 408 41 424 44 c 0,139,140
 498 60 498 60 516 76 c 0,141,142
 533 89 533 89 540 123 c 128,-1,143
 547 157 547 157 547 225 c 2,0,-1
EndSplineSet
EndChar

StartChar: brokenbar
Encoding: 166 166 103
Width: 1014
Flags: W
LayerCount: 2
Fore
SplineSet
427 371 m 1,0,-1
 587 371 l 1,1,-1
 587 -418 l 1,2,-1
 427 -418 l 1,3,-1
 427 371 l 1,0,-1
427 1578 m 1,4,-1
 587 1578 l 1,5,-1
 587 789 l 1,6,-1
 427 789 l 1,7,-1
 427 1578 l 1,4,-1
EndSplineSet
EndChar

StartChar: section
Encoding: 167 167 104
Width: 1014
Flags: W
LayerCount: 2
Fore
SplineSet
545 321 m 1,0,1
 601 337 601 337 642 374 c 0,2,3
 715 439 715 439 715 540 c 0,4,5
 715 545 715 545 714 550 c 1,6,-1
 712 550 l 1,7,8
 711 564 711 564 708 577 c 0,9,10
 686 638 686 638 595 704 c 1,11,12
 536 733 536 733 469 733 c 0,13,14
 391 733 391 733 344 688.5 c 128,-1,15
 297 644 297 644 297 571 c 0,16,17
 297 448 297 448 545 321 c 1,0,1
466 -346 m 1,18,19
 579 -340 579 -340 651 -277 c 0,20,21
 723 -213 723 -213 723 -112 c 0,22,23
 723 13 723 13 407 164 c 1,24,25
 284 228 284 228 231.5 301 c 128,-1,26
 179 374 179 374 179 478 c 0,27,28
 179 626 179 626 268 715 c 0,29,30
 335 780 335 780 438 797 c 1,31,-1
 398 816 l 1,32,33
 275 880 275 880 222.5 953 c 128,-1,34
 170 1026 170 1026 170 1130 c 0,35,36
 170 1278 170 1278 259 1367 c 0,37,38
 341 1446 341 1446 475 1453 c 0,39,40
 483 1454 483 1454 492 1454 c 2,41,-1
 495 1454 l 2,42,43
 561 1454 561 1454 658 1437.5 c 128,-1,44
 755 1421 755 1421 755 1396 c 2,45,-1
 755 1202 l 1,46,-1
 704 1202 l 1,47,48
 699 1283 699 1283 624 1334 c 0,49,50
 554 1381 554 1381 475 1385 c 1,51,-1
 460 1385 l 2,52,53
 382 1385 382 1385 335 1340.5 c 128,-1,54
 288 1296 288 1296 288 1223 c 0,55,56
 288 1091 288 1091 575 954 c 0,57,58
 724 887 724 887 779.5 810.5 c 128,-1,59
 835 734 835 734 835 623 c 0,60,61
 835 452 835 452 734 341 c 1,62,63
 687 302 687 302 635 277 c 1,64,65
 743 221 743 221 789 159 c 0,66,67
 844 82 844 82 844 -28 c 0,68,69
 844 -199 844 -199 743 -311 c 1,70,71
 619 -413 619 -413 466 -416 c 1,72,-1
 466 -415 l 1,73,74
 460 -416 460 -416 453 -416 c 2,75,-1
 450 -416 l 2,76,77
 384 -416 384 -416 287 -399.5 c 128,-1,78
 190 -383 190 -383 190 -358 c 2,79,-1
 190 -164 l 1,80,-1
 241 -164 l 1,81,82
 246 -245 246 -245 321 -296 c 0,83,84
 389 -341 389 -341 466 -346 c 1,18,19
EndSplineSet
EndChar

StartChar: dieresis
Encoding: 168 168 105
Width: 1024
Flags: W
LayerCount: 2
Fore
SplineSet
278 1366 m 1,0,-1
 302 1366 l 2,1,2
 353 1366 353 1366 402 1298 c 1,3,-1
 402 1290 l 1,4,5
 311 1162 311 1162 298 1162 c 2,6,-1
 294 1162 l 1,7,8
 270 1170 270 1170 270 1182 c 1,9,-1
 266 1178 l 1,10,-1
 262 1178 l 2,11,12
 212 1178 212 1178 178 1222 c 1,13,-1
 178 1234 l 2,14,15
 178 1273 178 1273 250 1362 c 1,16,-1
 278 1366 l 1,0,-1
662 1366 m 2,17,18
 726 1366 726 1366 778 1298 c 1,19,-1
 778 1294 l 2,20,21
 778 1267 778 1267 682 1150 c 1,22,-1
 670 1150 l 1,23,-1
 650 1166 l 1,24,-1
 630 1162 l 1,25,-1
 622 1178 l 1,26,-1
 606 1166 l 1,27,-1
 586 1166 l 1,28,29
 554 1190 554 1190 554 1218 c 1,30,31
 593 1366 593 1366 646 1366 c 2,32,-1
 662 1366 l 2,17,18
EndSplineSet
EndChar

StartChar: copyright
Encoding: 169 169 106
Width: 1674
Flags: W
LayerCount: 2
Fore
SplineSet
840 1456 m 0,0,1
 985 1456 985 1456 1120 1399.5 c 128,-1,2
 1255 1343 1255 1343 1359 1239 c 0,3,4
 1461 1138 1461 1138 1517.5 1001 c 128,-1,5
 1574 864 1574 864 1574 718 c 0,6,7
 1574 571 1574 571 1517.5 436 c 128,-1,8
 1461 301 1461 301 1355 196 c 0,9,10
 1250 91 1250 91 1116 36.5 c 128,-1,11
 982 -18 982 -18 833 -18 c 0,12,13
 687 -18 687 -18 555 37.5 c 128,-1,14
 423 93 423 93 317 198 c 0,15,16
 211 302 211 302 155.5 435.5 c 128,-1,17
 100 569 100 569 100 718 c 0,18,19
 100 866 100 866 155.5 1001 c 128,-1,20
 211 1136 211 1136 315 1239 c 0,21,22
 417 1343 417 1343 553.5 1399.5 c 128,-1,23
 690 1456 690 1456 840 1456 c 0,0,1
357 1197 m 256,24,25
 262 1101 262 1101 211 977.5 c 128,-1,26
 160 854 160 854 160 718 c 0,27,28
 160 581 160 581 211 459 c 128,-1,29
 262 337 262 337 359 240 c 0,30,31
 457 144 457 144 578 93 c 128,-1,32
 699 42 699 42 834 42 c 0,33,34
 971 42 971 42 1093.5 92.5 c 128,-1,35
 1216 143 1216 143 1313 238 c 0,36,37
 1410 336 1410 336 1462 459.5 c 128,-1,38
 1514 583 1514 583 1514 718 c 0,39,40
 1514 852 1514 852 1462 977.5 c 128,-1,41
 1410 1103 1410 1103 1317 1197 c 0,42,43
 1221 1293 1221 1293 1097 1344.5 c 128,-1,44
 973 1396 973 1396 839 1396 c 0,45,46
 702 1396 702 1396 577 1344.5 c 128,-1,47
 452 1293 452 1293 357 1197 c 256,24,25
865 223 m 0,48,49
 723 223 723 223 601 291 c 128,-1,50
 479 359 479 359 415 476 c 128,-1,51
 351 593 351 593 351 719 c 256,52,53
 351 845 351 845 416.5 963 c 128,-1,54
 482 1081 482 1081 604 1147.5 c 128,-1,55
 726 1214 726 1214 858 1214 c 0,56,57
 896 1214 896 1214 933 1207.5 c 128,-1,58
 970 1201 970 1201 1009 1187 c 0,59,60
 1014 1186 1014 1186 1018 1186 c 0,61,62
 1037 1186 1037 1186 1044 1216 c 1,63,-1
 1086 1216 l 1,64,-1
 1158 1018 l 1,65,-1
 1114 1018 l 1,66,67
 1062 1112 1062 1112 983 1142 c 0,68,69
 911 1168 911 1168 836 1168 c 2,70,-1
 821 1168 l 1,71,72
 735 1160 735 1160 654.5 1097 c 128,-1,73
 574 1034 574 1034 533 920 c 0,74,75
 500 830 500 830 500 736 c 0,76,77
 500 711 500 711 502 686 c 0,78,79
 513 565 513 565 571.5 462 c 128,-1,80
 630 359 630 359 721 310 c 0,81,82
 793 270 793 270 887 268 c 0,83,84
 1011 268 1011 268 1081 324 c 128,-1,85
 1151 380 1151 380 1151 450 c 1,86,-1
 1204 450 l 1,87,-1
 1204 350 l 2,88,89
 1204 304 1204 304 1107.5 263.5 c 128,-1,90
 1011 223 1011 223 865 223 c 0,48,49
EndSplineSet
EndChar

StartChar: guillemotleft
Encoding: 171 171 108
Width: 944
Flags: W
LayerCount: 2
Fore
SplineSet
174 479 m 1,0,-1
 516 782 l 1,1,-1
 530 782 l 1,2,-1
 530 745 l 1,3,-1
 325 479 l 1,4,-1
 530 213 l 1,5,-1
 530 176 l 1,6,-1
 516 176 l 1,7,-1
 174 479 l 1,0,-1
487 479 m 1,8,-1
 829 782 l 1,9,-1
 843 782 l 1,10,-1
 843 745 l 1,11,-1
 638 479 l 1,12,-1
 843 213 l 1,13,-1
 843 176 l 1,14,-1
 829 176 l 1,15,-1
 487 479 l 1,8,-1
EndSplineSet
EndChar

StartChar: logicalnot
Encoding: 172 172 109
Width: 1014
Flags: W
LayerCount: 2
Fore
SplineSet
87 767 m 1,0,-1
 927 767 l 1,1,-1
 927 276 l 1,2,-1
 926 275 l 1,3,-1
 828 275 l 1,4,-1
 828 667 l 1,5,-1
 87 667 l 1,6,-1
 87 767 l 1,0,-1
EndSplineSet
EndChar

StartChar: registered
Encoding: 174 174 110
Width: 1674
Flags: W
LayerCount: 2
Fore
SplineSet
751 1099 m 1,0,-1
 751 725 l 1,1,-1
 754 717 l 2,2,3
 777 661 777 661 810 636 c 0,4,5
 839 614 839 614 866 614 c 2,6,-1
 872 614 l 1,7,8
 903 618 903 618 933.5 652.5 c 128,-1,9
 964 687 964 687 980 750 c 0,10,11
 993 800 993 800 993 853 c 0,12,13
 993 866 993 866 992 880 c 0,14,15
 988 947 988 947 964 1004.5 c 128,-1,16
 940 1062 940 1062 907.5 1080.5 c 128,-1,17
 875 1099 875 1099 844 1099 c 2,18,-1
 751 1099 l 1,0,-1
984 576 m 1,19,-1
 1066 460 l 2,20,21
 1166 319 1166 319 1216 319 c 2,22,-1
 1250 319 l 1,23,-1
 1250 269 l 1,24,-1
 904 269 l 1,25,-1
 904 319 l 1,26,-1
 949 319 l 2,27,28
 979 319 979 319 979 341 c 0,29,30
 979 370 979 370 910 455 c 1,31,-1
 835 557 l 1,32,33
 793 557 793 557 751 599 c 1,34,-1
 751 440 l 2,35,36
 751 319 751 319 787 319 c 2,37,-1
 840 319 l 1,38,-1
 840 269 l 1,39,-1
 524 269 l 1,40,-1
 524 319 l 1,41,-1
 567 319 l 2,42,43
 604 319 604 319 604 440 c 2,44,-1
 604 978 l 2,45,46
 604 1099 604 1099 567 1099 c 2,47,-1
 524 1099 l 1,48,-1
 524 1169 l 1,49,-1
 880 1169 l 2,50,51
 944 1168 944 1168 1005 1127 c 0,52,53
 1065 1086 1065 1086 1097.5 1013 c 128,-1,54
 1130 940 1130 940 1130 861 c 0,55,56
 1130 783 1130 783 1098 710.5 c 128,-1,57
 1066 638 1066 638 984 576 c 1,19,-1
840 1456 m 0,58,59
 985 1456 985 1456 1120 1399.5 c 128,-1,60
 1255 1343 1255 1343 1359 1239 c 0,61,62
 1461 1138 1461 1138 1517.5 1001 c 128,-1,63
 1574 864 1574 864 1574 718 c 0,64,65
 1574 571 1574 571 1517.5 436 c 128,-1,66
 1461 301 1461 301 1355 196 c 0,67,68
 1250 91 1250 91 1116 36.5 c 128,-1,69
 982 -18 982 -18 833 -18 c 0,70,71
 687 -18 687 -18 555 37.5 c 128,-1,72
 423 93 423 93 317 198 c 0,73,74
 211 302 211 302 155.5 435.5 c 128,-1,75
 100 569 100 569 100 718 c 0,76,77
 100 866 100 866 155.5 1001 c 128,-1,78
 211 1136 211 1136 315 1239 c 0,79,80
 417 1343 417 1343 553.5 1399.5 c 128,-1,81
 690 1456 690 1456 840 1456 c 0,58,59
357 1197 m 256,82,83
 262 1101 262 1101 211 977.5 c 128,-1,84
 160 854 160 854 160 718 c 0,85,86
 160 581 160 581 211 459 c 128,-1,87
 262 337 262 337 359 240 c 0,88,89
 457 144 457 144 578 93 c 128,-1,90
 699 42 699 42 834 42 c 0,91,92
 971 42 971 42 1093.5 92.5 c 128,-1,93
 1216 143 1216 143 1313 238 c 0,94,95
 1410 336 1410 336 1462 459.5 c 128,-1,96
 1514 583 1514 583 1514 718 c 0,97,98
 1514 852 1514 852 1462 977.5 c 128,-1,99
 1410 1103 1410 1103 1317 1197 c 0,100,101
 1221 1293 1221 1293 1097 1344.5 c 128,-1,102
 973 1396 973 1396 839 1396 c 0,103,104
 702 1396 702 1396 577 1344.5 c 128,-1,105
 452 1293 452 1293 357 1197 c 256,82,83
EndSplineSet
EndChar

StartChar: degree
Encoding: 176 176 112
Width: 674
Flags: W
LayerCount: 2
Fore
SplineSet
339 1372 m 256,0,1
 253 1372 253 1372 191.5 1311 c 128,-1,2
 130 1250 130 1250 130 1163 c 256,3,4
 130 1076 130 1076 191 1016 c 128,-1,5
 252 956 252 956 339 956 c 256,6,7
 426 956 426 956 486 1016 c 128,-1,8
 546 1076 546 1076 546 1163 c 256,9,10
 546 1250 546 1250 485.5 1311 c 128,-1,11
 425 1372 425 1372 339 1372 c 256,0,1
339 1442 m 0,12,13
 454 1442 454 1442 535 1360.5 c 128,-1,14
 616 1279 616 1279 616 1164 c 0,15,16
 616 1050 616 1050 534 968 c 128,-1,17
 452 886 452 886 337 886 c 0,18,19
 220 886 220 886 140 967 c 128,-1,20
 60 1048 60 1048 60 1164 c 256,21,22
 60 1280 60 1280 141.5 1361 c 128,-1,23
 223 1442 223 1442 339 1442 c 0,12,13
EndSplineSet
EndChar

StartChar: acute
Encoding: 180 180 116
Width: 1024
Flags: W
LayerCount: 2
Fore
SplineSet
681 1853 m 1,0,1
 801 1830 801 1830 801 1796 c 1,2,3
 814 1794 814 1794 837 1759 c 1,4,-1
 837 1749 l 2,5,6
 837 1708 837 1708 665 1624 c 1,7,8
 476 1493 476 1493 451 1493 c 2,9,-1
 441 1493 l 1,10,-1
 441 1509 l 1,11,-1
 446 1514 l 1,12,-1
 446 1519 l 1,13,14
 415 1519 415 1519 415 1540 c 2,15,-1
 415 1556 l 1,16,-1
 399 1545 l 1,17,-1
 389 1556 l 1,18,-1
 384 1551 l 1,19,-1
 368 1551 l 1,20,21
 347 1558 347 1558 347 1577 c 1,22,-1
 342 1571 l 1,23,-1
 337 1571 l 1,24,-1
 321 1592 l 1,25,-1
 321 1598 l 1,26,27
 450 1731 450 1731 681 1853 c 1,0,1
EndSplineSet
EndChar

StartChar: paragraph
Encoding: 182 182 118
Width: 1024
Flags: W
LayerCount: 2
Fore
SplineSet
929 1435 m 1,0,-1
 929 1365 l 1,1,-1
 802 1365 l 1,2,-1
 802 0 l 1,3,-1
 720 0 l 1,4,-1
 720 1365 l 1,5,-1
 554 1365 l 1,6,-1
 554 0 l 1,7,-1
 470 0 l 1,8,-1
 470 738 l 1,9,10
 296 746 296 746 194.5 840.5 c 128,-1,11
 93 935 93 935 93 1086 c 0,12,13
 93 1243 93 1243 200.5 1339 c 128,-1,14
 308 1435 308 1435 486 1435 c 2,15,-1
 929 1435 l 1,0,-1
EndSplineSet
EndChar

StartChar: periodcentered
Encoding: 183 183 119
AltUni2: 002219.ffffffff.0
Width: 508
Flags: W
LayerCount: 2
Fore
SplineSet
145 740 m 2,0,-1
 227 824 l 2,1,2
 242 838 242 838 256 838 c 0,3,4
 269 838 269 838 287 822 c 2,5,-1
 367 736 l 2,6,7
 379 720 379 720 379 707 c 0,8,9
 379 692 379 692 365 676 c 2,10,-1
 285 588 l 2,11,12
 265 568 265 568 256 568 c 0,13,14
 240 568 240 568 227 582 c 2,15,-1
 139 683 l 2,16,17
 129 696 129 696 129 709 c 0,18,19
 129 724 129 724 145 740 c 2,0,-1
EndSplineSet
EndChar

StartChar: cedilla
Encoding: 184 184 120
Width: 1024
Flags: W
LayerCount: 2
Fore
SplineSet
506 -200 m 2,0,-1
 528 -200 l 2,1,2
 585 -200 585 -200 594 -252 c 1,3,4
 550 -325 550 -325 550 -347 c 1,5,-1
 594 -347 l 2,6,7
 801 -347 801 -347 801 -495 c 0,8,9
 801 -676 801 -676 476 -746 c 1,10,-1
 402 -746 l 1,11,-1
 277 -739 l 1,12,-1
 277 -724 l 1,13,-1
 351 -702 l 1,14,-1
 336 -680 l 1,15,-1
 351 -665 l 1,16,-1
 439 -665 l 2,17,18
 591 -665 591 -665 631 -576 c 1,19,-1
 639 -539 l 1,20,-1
 639 -517 l 2,21,22
 639 -436 639 -436 491 -436 c 1,23,-1
 410 -443 l 1,24,-1
 402 -436 l 1,25,-1
 402 -429 l 1,26,-1
 484 -229 l 2,27,28
 495 -200 495 -200 506 -200 c 2,0,-1
EndSplineSet
EndChar

StartChar: guillemotright
Encoding: 187 187 123
Width: 944
Flags: W
LayerCount: 2
Fore
SplineSet
115 176 m 1,0,-1
 101 176 l 1,1,-1
 101 213 l 1,2,-1
 306 479 l 1,3,-1
 101 745 l 1,4,-1
 101 782 l 1,5,-1
 115 782 l 1,6,-1
 457 479 l 1,7,-1
 115 176 l 1,0,-1
428 176 m 1,8,-1
 414 176 l 1,9,-1
 414 213 l 1,10,-1
 619 479 l 1,11,-1
 414 745 l 1,12,-1
 414 782 l 1,13,-1
 428 782 l 1,14,-1
 770 479 l 1,15,-1
 428 176 l 1,8,-1
EndSplineSet
EndChar

StartChar: questiondown
Encoding: 191 191 127
Width: 748
Flags: W
LayerCount: 2
Fore
SplineSet
692 1499 m 1,0,-1
 725 1499 l 1,1,2
 866 1422 866 1422 910 1378 c 1,3,-1
 934 1281 l 1,4,-1
 934 1273 l 2,5,6
 934 1230 934 1230 894 1209 c 1,7,-1
 886 1217 l 1,8,-1
 878 1217 l 1,9,-1
 870 1209 l 1,10,-1
 870 1201 l 1,11,12
 958 1097 958 1097 974 1096 c 1,13,-1
 974 1056 l 1,14,-1
 982 1056 l 1,15,-1
 990 1064 l 1,16,-1
 999 1064 l 1,17,-1
 1015 1024 l 1,18,19
 1015 688 1015 688 217 298 c 1,20,-1
 64 234 l 1,21,-1
 64 226 l 1,22,-1
 88 226 l 2,23,24
 365 226 365 226 765 492 c 1,25,-1
 789 492 l 1,26,27
 982 436 982 436 982 322 c 0,28,29
 982 251 982 251 660 113 c 0,30,31
 395 0 395 0 152 0 c 0,32,33
 -146 0 -146 0 -299 306 c 1,34,-1
 -299 330 l 2,35,36
 -299 389 -299 389 209 604 c 1,37,38
 720 887 720 887 789 1104 c 1,39,-1
 757 1209 l 1,40,-1
 773 1225 l 1,41,-1
 797 1217 l 1,42,-1
 805 1225 l 1,43,-1
 805 1233 l 1,44,45
 769 1233 769 1233 652 1378 c 1,46,-1
 652 1459 l 1,47,-1
 692 1499 l 1,0,-1
829 1217 m 1,48,-1
 845 1201 l 1,49,-1
 845 1217 l 1,50,-1
 829 1217 l 1,48,-1
EndSplineSet
EndChar

StartChar: Agrave
Encoding: 192 192 128
Width: 1540
Flags: W
LayerCount: 2
Fore
SplineSet
889 1605 m 1,1,-1
 889 1599 l 1,2,-1
 877 1578 l 1,3,-1
 873 1578 l 1,4,-1
 869 1584 l 1,5,6
 869 1565 869 1565 854 1558 c 1,7,-1
 842 1558 l 1,8,-1
 838 1563 l 1,9,-1
 830 1552 l 1,10,-1
 818 1563 l 1,11,-1
 818 1547 l 2,12,13
 818 1526 818 1526 795 1526 c 1,14,-1
 795 1521 l 1,15,-1
 799 1516 l 1,16,-1
 799 1500 l 1,17,-1
 791 1500 l 2,18,19
 772 1500 772 1500 630 1631 c 1,20,21
 500 1715 500 1715 500 1756 c 2,22,-1
 500 1766 l 1,23,24
 517 1801 517 1801 527 1803 c 1,25,26
 527 1837 527 1837 618 1860 c 1,27,0
 792 1738 792 1738 889 1605 c 1,1,-1
719 1454 m 0,28,29
 960 1454 960 1454 1014 1311 c 1,30,31
 1045 1184 1045 1184 1089 807 c 1,32,-1
 1098 798 l 1,33,34
 1103 739 1103 739 1123 739 c 2,35,-1
 1392 773 l 1,36,-1
 1392 756 l 1,37,-1
 1401 756 l 1,38,-1
 1535 764 l 1,39,-1
 1535 748 l 1,40,-1
 1476 731 l 1,41,-1
 1476 722 l 1,42,-1
 1535 722 l 1,43,-1
 1594 731 l 1,44,-1
 1594 714 l 1,45,46
 1508 680 1508 680 1460 680 c 1,47,-1
 1460 663 l 1,48,-1
 1502 672 l 1,49,50
 1560 655 1560 655 1560 638 c 1,51,-1
 1603 647 l 1,52,53
 1771 642 1771 642 1771 613 c 1,54,-1
 1762 605 l 1,55,-1
 1821 588 l 1,56,-1
 1821 571 l 1,57,58
 1707 512 1707 512 1350 470 c 1,59,-1
 1199 445 l 1,60,61
 1308 17 1308 17 1308 -136 c 2,62,-1
 1308 -169 l 1,63,-1
 1283 -195 l 1,64,-1
 1274 -195 l 2,65,66
 1246 -195 1246 -195 1216 -169 c 1,67,-1
 1216 -195 l 1,68,-1
 1199 -195 l 1,69,-1
 1199 -178 l 1,70,-1
 1173 -195 l 1,71,-1
 1140 -169 l 1,72,-1
 1056 -203 l 1,73,-1
 988 -136 l 1,74,75
 946 -68 946 -68 862 361 c 1,76,-1
 854 361 l 1,77,78
 324 215 324 215 324 133 c 1,79,80
 290 112 290 112 122 -127 c 1,81,82
 64 -195 64 -195 29 -195 c 1,83,-1
 12 -153 l 1,84,-1
 4 -161 l 1,85,-1
 -4 -161 l 1,86,87
 -55 -131 -55 -131 -55 -94 c 1,88,-1
 -63 -102 l 1,89,-1
 -80 -102 l 1,90,-1
 -80 -85 l 1,91,92
 -115 -85 -115 -85 -147 -35 c 1,93,94
 -181 -35 -181 -35 -181 -18 c 2,95,-1
 -181 41 l 2,96,97
 -181 135 -181 135 21 352 c 1,98,99
 107 495 107 495 299 748 c 1,100,-1
 585 1252 l 1,101,-1
 643 1421 l 1,102,103
 688 1454 688 1454 719 1454 c 0,28,29
652 638 m 1,104,-1
 652 630 l 1,105,106
 795 667 795 667 795 680 c 2,107,-1
 770 815 l 1,108,109
 747 805 747 805 652 638 c 1,104,-1
1434 781 m 1,110,-1
 1451 781 l 1,111,-1
 1451 764 l 1,112,-1
 1434 764 l 1,113,-1
 1434 781 l 1,110,-1
1443 722 m 1,114,-1
 1443 714 l 1,115,-1
 1460 714 l 1,116,-1
 1460 722 l 1,117,-1
 1443 722 l 1,114,-1
EndSplineSet
EndChar

StartChar: Aacute
Encoding: 193 193 129
Width: 1540
Flags: W
LayerCount: 2
Fore
SplineSet
922 1853 m 1,0,1
 1042 1830 1042 1830 1042 1796 c 1,2,3
 1055 1794 1055 1794 1078 1759 c 1,4,-1
 1078 1749 l 2,5,6
 1078 1708 1078 1708 906 1624 c 1,7,8
 717 1493 717 1493 692 1493 c 2,9,-1
 682 1493 l 1,10,-1
 682 1509 l 1,11,-1
 687 1514 l 1,12,-1
 687 1519 l 1,13,14
 656 1519 656 1519 656 1540 c 2,15,-1
 656 1556 l 1,16,-1
 640 1545 l 1,17,-1
 630 1556 l 1,18,-1
 625 1551 l 1,19,-1
 609 1551 l 1,20,21
 588 1558 588 1558 588 1577 c 1,22,-1
 583 1571 l 1,23,-1
 578 1571 l 1,24,-1
 562 1592 l 1,25,-1
 562 1598 l 1,26,27
 691 1731 691 1731 922 1853 c 1,0,1
719 1454 m 0,28,29
 960 1454 960 1454 1014 1311 c 1,30,31
 1045 1184 1045 1184 1089 807 c 1,32,-1
 1098 798 l 1,33,34
 1103 739 1103 739 1123 739 c 2,35,-1
 1392 773 l 1,36,-1
 1392 756 l 1,37,-1
 1401 756 l 1,38,-1
 1535 764 l 1,39,-1
 1535 748 l 1,40,-1
 1476 731 l 1,41,-1
 1476 722 l 1,42,-1
 1535 722 l 1,43,-1
 1594 731 l 1,44,-1
 1594 714 l 1,45,46
 1508 680 1508 680 1460 680 c 1,47,-1
 1460 663 l 1,48,-1
 1502 672 l 1,49,50
 1560 655 1560 655 1560 638 c 1,51,-1
 1603 647 l 1,52,53
 1771 642 1771 642 1771 613 c 1,54,-1
 1762 605 l 1,55,-1
 1821 588 l 1,56,-1
 1821 571 l 1,57,58
 1707 512 1707 512 1350 470 c 1,59,-1
 1199 445 l 1,60,61
 1308 17 1308 17 1308 -136 c 2,62,-1
 1308 -169 l 1,63,-1
 1283 -195 l 1,64,-1
 1274 -195 l 2,65,66
 1246 -195 1246 -195 1216 -169 c 1,67,-1
 1216 -195 l 1,68,-1
 1199 -195 l 1,69,-1
 1199 -178 l 1,70,-1
 1173 -195 l 1,71,-1
 1140 -169 l 1,72,-1
 1056 -203 l 1,73,-1
 988 -136 l 1,74,75
 946 -68 946 -68 862 361 c 1,76,-1
 854 361 l 1,77,78
 324 215 324 215 324 133 c 1,79,80
 290 112 290 112 122 -127 c 1,81,82
 64 -195 64 -195 29 -195 c 1,83,-1
 12 -153 l 1,84,-1
 4 -161 l 1,85,-1
 -4 -161 l 1,86,87
 -55 -131 -55 -131 -55 -94 c 1,88,-1
 -63 -102 l 1,89,-1
 -80 -102 l 1,90,-1
 -80 -85 l 1,91,92
 -115 -85 -115 -85 -147 -35 c 1,93,94
 -181 -35 -181 -35 -181 -18 c 2,95,-1
 -181 41 l 2,96,97
 -181 135 -181 135 21 352 c 1,98,99
 107 495 107 495 299 748 c 1,100,-1
 585 1252 l 1,101,-1
 643 1421 l 1,102,103
 688 1454 688 1454 719 1454 c 0,28,29
652 638 m 1,104,-1
 652 630 l 1,105,106
 795 667 795 667 795 680 c 2,107,-1
 770 815 l 1,108,109
 747 805 747 805 652 638 c 1,104,-1
1434 781 m 1,110,-1
 1451 781 l 1,111,-1
 1451 764 l 1,112,-1
 1434 764 l 1,113,-1
 1434 781 l 1,110,-1
1443 722 m 1,114,-1
 1443 714 l 1,115,-1
 1460 714 l 1,116,-1
 1460 722 l 1,117,-1
 1443 722 l 1,114,-1
EndSplineSet
EndChar

StartChar: Atilde
Encoding: 195 195 131
Width: 1540
Flags: W
LayerCount: 2
Fore
SplineSet
702 1859 m 2,0,-1
 730 1859 l 2,1,2
 784 1859 784 1859 1180 1715 c 1,3,-1
 1255 1700 l 1,4,5
 1296 1700 1296 1700 1424 1751 c 1,6,-1
 1424 1743 l 1,7,-1
 1433 1751 l 1,8,-1
 1471 1751 l 1,9,-1
 1471 1743 l 1,10,-1
 1386 1650 l 1,11,-1
 1396 1650 l 1,12,-1
 1405 1657 l 1,13,-1
 1405 1642 l 1,14,-1
 1443 1664 l 1,15,-1
 1452 1657 l 1,16,-1
 1461 1657 l 1,17,-1
 1480 1671 l 1,18,-1
 1480 1664 l 1,19,20
 1380 1534 1380 1534 1255 1534 c 2,21,-1
 1218 1534 l 2,22,23
 1165 1534 1165 1534 796 1628 c 1,24,-1
 768 1628 l 2,25,26
 730 1628 730 1628 562 1577 c 1,27,-1
 440 1556 l 1,28,-1
 421 1577 l 1,29,-1
 421 1592 l 2,30,31
 421 1716 421 1716 543 1816 c 1,32,33
 608 1859 608 1859 702 1859 c 2,0,-1
779 1454 m 0,34,35
 1020 1454 1020 1454 1074 1311 c 1,36,37
 1105 1184 1105 1184 1149 807 c 1,38,-1
 1158 798 l 1,39,40
 1163 739 1163 739 1183 739 c 2,41,-1
 1452 773 l 1,42,-1
 1452 756 l 1,43,-1
 1461 756 l 1,44,-1
 1595 764 l 1,45,-1
 1595 748 l 1,46,-1
 1536 731 l 1,47,-1
 1536 722 l 1,48,-1
 1595 722 l 1,49,-1
 1654 731 l 1,50,-1
 1654 714 l 1,51,52
 1568 680 1568 680 1520 680 c 1,53,-1
 1520 663 l 1,54,-1
 1562 672 l 1,55,56
 1620 655 1620 655 1620 638 c 1,57,-1
 1663 647 l 1,58,59
 1831 642 1831 642 1831 613 c 1,60,-1
 1822 605 l 1,61,-1
 1881 588 l 1,62,-1
 1881 571 l 1,63,64
 1767 512 1767 512 1410 470 c 1,65,-1
 1259 445 l 1,66,67
 1368 17 1368 17 1368 -136 c 2,68,-1
 1368 -169 l 1,69,-1
 1343 -195 l 1,70,-1
 1334 -195 l 2,71,72
 1306 -195 1306 -195 1276 -169 c 1,73,-1
 1276 -195 l 1,74,-1
 1259 -195 l 1,75,-1
 1259 -178 l 1,76,-1
 1233 -195 l 1,77,-1
 1200 -169 l 1,78,-1
 1116 -203 l 1,79,-1
 1048 -136 l 1,80,81
 1006 -68 1006 -68 922 361 c 1,82,-1
 914 361 l 1,83,84
 384 215 384 215 384 133 c 1,85,86
 350 112 350 112 182 -127 c 1,87,88
 124 -195 124 -195 89 -195 c 1,89,-1
 72 -153 l 1,90,-1
 64 -161 l 1,91,-1
 56 -161 l 1,92,93
 5 -131 5 -131 5 -94 c 1,94,-1
 -3 -102 l 1,95,-1
 -20 -102 l 1,96,-1
 -20 -85 l 1,97,98
 -55 -85 -55 -85 -87 -35 c 1,99,100
 -121 -35 -121 -35 -121 -18 c 2,101,-1
 -121 41 l 2,102,103
 -121 135 -121 135 81 352 c 1,104,105
 167 495 167 495 359 748 c 1,106,-1
 645 1252 l 1,107,-1
 703 1421 l 1,108,109
 748 1454 748 1454 779 1454 c 0,34,35
712 638 m 1,110,-1
 712 630 l 1,111,112
 855 667 855 667 855 680 c 2,113,-1
 830 815 l 1,114,115
 807 805 807 805 712 638 c 1,110,-1
1494 781 m 1,116,-1
 1511 781 l 1,117,-1
 1511 764 l 1,118,-1
 1494 764 l 1,119,-1
 1494 781 l 1,116,-1
1503 722 m 1,120,-1
 1503 714 l 1,121,-1
 1520 714 l 1,122,-1
 1520 722 l 1,123,-1
 1503 722 l 1,120,-1
EndSplineSet
EndChar

StartChar: Adieresis
Encoding: 196 196 132
Width: 1540
Flags: W
LayerCount: 2
Fore
SplineSet
619 1800 m 1,0,-1
 643 1800 l 2,1,2
 694 1800 694 1800 743 1732 c 1,3,-1
 743 1724 l 1,4,5
 652 1596 652 1596 639 1596 c 2,6,-1
 635 1596 l 1,7,8
 611 1604 611 1604 611 1616 c 1,9,-1
 607 1612 l 1,10,-1
 603 1612 l 2,11,12
 553 1612 553 1612 519 1656 c 1,13,-1
 519 1668 l 2,14,15
 519 1707 519 1707 591 1796 c 1,16,-1
 619 1800 l 1,0,-1
1003 1800 m 2,17,18
 1067 1800 1067 1800 1119 1732 c 1,19,-1
 1119 1728 l 2,20,21
 1119 1701 1119 1701 1023 1584 c 1,22,-1
 1011 1584 l 1,23,-1
 991 1600 l 1,24,-1
 971 1596 l 1,25,-1
 963 1612 l 1,26,-1
 947 1600 l 1,27,-1
 927 1600 l 1,28,29
 895 1624 895 1624 895 1652 c 1,30,31
 934 1800 934 1800 987 1800 c 2,32,-1
 1003 1800 l 2,17,18
719 1454 m 0,33,34
 960 1454 960 1454 1014 1311 c 1,35,36
 1045 1184 1045 1184 1089 807 c 1,37,-1
 1098 798 l 1,38,39
 1103 739 1103 739 1123 739 c 2,40,-1
 1392 773 l 1,41,-1
 1392 756 l 1,42,-1
 1401 756 l 1,43,-1
 1535 764 l 1,44,-1
 1535 748 l 1,45,-1
 1476 731 l 1,46,-1
 1476 722 l 1,47,-1
 1535 722 l 1,48,-1
 1594 731 l 1,49,-1
 1594 714 l 1,50,51
 1508 680 1508 680 1460 680 c 1,52,-1
 1460 663 l 1,53,-1
 1502 672 l 1,54,55
 1560 655 1560 655 1560 638 c 1,56,-1
 1603 647 l 1,57,58
 1771 642 1771 642 1771 613 c 1,59,-1
 1762 605 l 1,60,-1
 1821 588 l 1,61,-1
 1821 571 l 1,62,63
 1707 512 1707 512 1350 470 c 1,64,-1
 1199 445 l 1,65,66
 1308 17 1308 17 1308 -136 c 2,67,-1
 1308 -169 l 1,68,-1
 1283 -195 l 1,69,-1
 1274 -195 l 2,70,71
 1246 -195 1246 -195 1216 -169 c 1,72,-1
 1216 -195 l 1,73,-1
 1199 -195 l 1,74,-1
 1199 -178 l 1,75,-1
 1173 -195 l 1,76,-1
 1140 -169 l 1,77,-1
 1056 -203 l 1,78,-1
 988 -136 l 1,79,80
 946 -68 946 -68 862 361 c 1,81,-1
 854 361 l 1,82,83
 324 215 324 215 324 133 c 1,84,85
 290 112 290 112 122 -127 c 1,86,87
 64 -195 64 -195 29 -195 c 1,88,-1
 12 -153 l 1,89,-1
 4 -161 l 1,90,-1
 -4 -161 l 1,91,92
 -55 -131 -55 -131 -55 -94 c 1,93,-1
 -63 -102 l 1,94,-1
 -80 -102 l 1,95,-1
 -80 -85 l 1,96,97
 -115 -85 -115 -85 -147 -35 c 1,98,99
 -181 -35 -181 -35 -181 -18 c 2,100,-1
 -181 41 l 2,101,102
 -181 135 -181 135 21 352 c 1,103,104
 107 495 107 495 299 748 c 1,105,-1
 585 1252 l 1,106,-1
 643 1421 l 1,107,108
 688 1454 688 1454 719 1454 c 0,33,34
652 638 m 1,109,-1
 652 630 l 1,110,111
 795 667 795 667 795 680 c 2,112,-1
 770 815 l 1,113,114
 747 805 747 805 652 638 c 1,109,-1
1434 781 m 1,115,-1
 1451 781 l 1,116,-1
 1451 764 l 1,117,-1
 1434 764 l 1,118,-1
 1434 781 l 1,115,-1
1443 722 m 1,119,-1
 1443 714 l 1,120,-1
 1460 714 l 1,121,-1
 1460 722 l 1,122,-1
 1443 722 l 1,119,-1
EndSplineSet
EndChar

StartChar: Ccedilla
Encoding: 199 199 135
Width: 1399
Flags: W
LayerCount: 2
Fore
SplineSet
1188 1436 m 2,0,-1
 1253 1436 l 2,1,2
 1495 1436 1495 1436 1599 1296 c 1,3,-1
 1599 1212 l 2,4,5
 1599 1034 1599 1034 1468 1034 c 1,6,7
 1373 1062 1373 1062 1263 1062 c 0,8,9
 577 1062 577 1062 320 409 c 1,10,-1
 301 315 l 1,11,-1
 301 287 l 2,12,13
 301 146 301 146 488 110 c 1,14,15
 605 82 605 82 796 82 c 2,16,-1
 964 82 l 1,17,-1
 964 63 l 1,18,-1
 926 63 l 1,19,-1
 926 54 l 1,20,21
 948 54 948 54 973 17 c 1,22,-1
 982 17 l 1,23,-1
 982 -11 l 1,24,-1
 880 -21 l 1,25,-1
 880 -30 l 1,26,-1
 898 -30 l 1,27,-1
 880 -86 l 1,28,-1
 898 -86 l 1,29,-1
 898 -105 l 1,30,-1
 880 -105 l 1,31,-1
 880 -114 l 1,32,33
 917 -114 917 -114 917 -151 c 1,34,-1
 936 -151 l 1,35,-1
 926 -142 l 1,36,-1
 926 -133 l 1,37,-1
 936 -123 l 1,38,-1
 992 -123 l 1,39,-1
 992 -142 l 1,40,-1
 1001 -151 l 1,41,-1
 992 -161 l 1,42,-1
 964 -161 l 1,43,-1
 964 -170 l 1,44,-1
 982 -189 l 1,45,-1
 1010 -189 l 1,46,-1
 1001 -179 l 1,47,-1
 1001 -170 l 1,48,-1
 1029 -161 l 1,49,-1
 1057 -170 l 1,50,51
 1057 -254 1057 -254 404 -254 c 0,52,53
 -8 -254 -8 -254 -175 147 c 1,54,-1
 -175 269 l 2,55,56
 -175 702 -175 702 413 1193 c 1,57,58
 760 1436 760 1436 1188 1436 c 2,0,-1
982 45 m 1,59,-1
 1038 45 l 1,60,-1
 1038 26 l 1,61,-1
 982 26 l 1,62,-1
 982 45 l 1,59,-1
506 -200 m 2,63,-1
 528 -200 l 2,64,65
 585 -200 585 -200 594 -252 c 1,66,67
 550 -325 550 -325 550 -347 c 1,68,-1
 594 -347 l 2,69,70
 801 -347 801 -347 801 -495 c 0,71,72
 801 -676 801 -676 476 -746 c 1,73,-1
 402 -746 l 1,74,-1
 277 -739 l 1,75,-1
 277 -724 l 1,76,-1
 351 -702 l 1,77,-1
 336 -680 l 1,78,-1
 351 -665 l 1,79,-1
 439 -665 l 2,80,81
 591 -665 591 -665 631 -576 c 1,82,-1
 639 -539 l 1,83,-1
 639 -517 l 2,84,85
 639 -436 639 -436 491 -436 c 1,86,-1
 410 -443 l 1,87,-1
 402 -436 l 1,88,-1
 402 -429 l 1,89,-1
 484 -229 l 2,90,91
 495 -200 495 -200 506 -200 c 2,63,-1
EndSplineSet
EndChar

StartChar: Egrave
Encoding: 200 200 136
Width: 1151
Flags: W
LayerCount: 2
Fore
SplineSet
869 1605 m 1,1,-1
 869 1599 l 1,2,-1
 857 1578 l 1,3,-1
 853 1578 l 1,4,-1
 849 1584 l 1,5,6
 849 1565 849 1565 834 1558 c 1,7,-1
 822 1558 l 1,8,-1
 818 1563 l 1,9,-1
 810 1552 l 1,10,-1
 798 1563 l 1,11,-1
 798 1547 l 2,12,13
 798 1526 798 1526 775 1526 c 1,14,-1
 775 1521 l 1,15,-1
 779 1516 l 1,16,-1
 779 1500 l 1,17,-1
 771 1500 l 2,18,19
 752 1500 752 1500 610 1631 c 1,20,21
 480 1715 480 1715 480 1756 c 2,22,-1
 480 1766 l 1,23,24
 497 1801 497 1801 507 1803 c 1,25,26
 507 1837 507 1837 598 1860 c 1,27,0
 772 1738 772 1738 869 1605 c 1,1,-1
1165 1462 m 1,28,29
 1165 1428 1165 1428 1199 1428 c 1,30,-1
 1199 1411 l 1,31,-1
 1173 1411 l 1,32,-1
 1173 1402 l 1,33,34
 1216 1402 1216 1402 1216 1385 c 2,35,-1
 1216 1376 l 1,36,-1
 1182 1376 l 1,37,38
 1182 1350 1182 1350 1233 1350 c 1,39,-1
 1233 1333 l 1,40,-1
 1207 1333 l 1,41,-1
 1207 1325 l 1,42,-1
 1310 1325 l 1,43,-1
 1388 1282 l 1,44,-1
 1379 1273 l 1,45,-1
 1379 1265 l 1,46,47
 1422 1265 1422 1265 1422 1247 c 0,48,49
 1422 1216 1422 1216 1104 1179 c 1,50,51
 996 1179 996 1179 693 1059 c 1,52,-1
 598 870 l 1,53,-1
 607 870 l 1,54,55
 653 887 653 887 873 896 c 1,56,-1
 890 870 l 1,57,-1
 864 861 l 1,58,-1
 864 853 l 1,59,60
 933 853 933 853 933 836 c 1,61,-1
 890 818 l 1,62,-1
 890 810 l 1,63,-1
 907 810 l 1,64,-1
 899 784 l 1,65,66
 899 741 899 741 967 715 c 1,67,-1
 967 707 l 1,68,-1
 959 698 l 1,69,-1
 959 690 l 1,70,71
 1002 690 1002 690 1002 672 c 2,72,-1
 1002 664 l 2,73,74
 1002 638 1002 638 461 527 c 1,75,76
 394 527 394 527 289 269 c 1,77,-1
 907 372 l 1,78,-1
 907 355 l 1,79,-1
 916 355 l 1,80,-1
 959 364 l 1,81,82
 970 321 970 321 1002 321 c 1,83,-1
 1002 295 l 1,84,85
 981 295 981 295 959 269 c 1,86,-1
 941 269 l 1,87,-1
 941 261 l 1,88,-1
 993 261 l 1,89,-1
 993 243 l 1,90,-1
 950 243 l 1,91,-1
 959 235 l 1,92,-1
 959 226 l 1,93,-1
 950 218 l 1,94,95
 1077 218 1077 218 1087 175 c 1,96,-1
 1079 166 l 1,97,98
 1122 160 1122 160 1122 140 c 1,99,100
 1046 91 1046 91 607 12 c 1,101,102
 92 -75 92 -75 92 -143 c 1,103,104
 80 -188 80 -188 15 -220 c 1,105,-1
 6 -220 l 1,106,-1
 -45 -177 l 1,107,-1
 -63 -177 l 1,108,-1
 -106 -186 l 1,109,110
 -106 -164 -106 -164 -191 -143 c 1,111,-1
 -217 -151 l 1,112,-1
 -226 -143 l 1,113,-1
 -226 -134 l 1,114,-1
 -217 -108 l 1,115,-1
 -234 -108 l 1,116,-1
 -243 -117 l 1,117,-1
 -251 -117 l 1,118,-1
 -260 -108 l 1,119,-1
 -260 -100 l 1,120,121
 -189 155 -189 155 375 1342 c 1,122,123
 375 1428 375 1428 495 1445 c 1,124,-1
 830 1436 l 1,125,-1
 1165 1462 l 1,28,29
EndSplineSet
EndChar

StartChar: Eacute
Encoding: 201 201 137
Width: 1151
Flags: W
LayerCount: 2
Fore
SplineSet
1102 1853 m 1,0,1
 1222 1830 1222 1830 1222 1796 c 1,2,3
 1235 1794 1235 1794 1258 1759 c 1,4,-1
 1258 1749 l 2,5,6
 1258 1708 1258 1708 1086 1624 c 1,7,8
 897 1493 897 1493 872 1493 c 2,9,-1
 862 1493 l 1,10,-1
 862 1509 l 1,11,-1
 867 1514 l 1,12,-1
 867 1519 l 1,13,14
 836 1519 836 1519 836 1540 c 2,15,-1
 836 1556 l 1,16,-1
 820 1545 l 1,17,-1
 810 1556 l 1,18,-1
 805 1551 l 1,19,-1
 789 1551 l 1,20,21
 768 1558 768 1558 768 1577 c 1,22,-1
 763 1571 l 1,23,-1
 758 1571 l 1,24,-1
 742 1592 l 1,25,-1
 742 1598 l 1,26,27
 871 1731 871 1731 1102 1853 c 1,0,1
1185 1462 m 1,28,29
 1185 1428 1185 1428 1219 1428 c 1,30,-1
 1219 1411 l 1,31,-1
 1193 1411 l 1,32,-1
 1193 1402 l 1,33,34
 1236 1402 1236 1402 1236 1385 c 2,35,-1
 1236 1376 l 1,36,-1
 1202 1376 l 1,37,38
 1202 1350 1202 1350 1253 1350 c 1,39,-1
 1253 1333 l 1,40,-1
 1227 1333 l 1,41,-1
 1227 1325 l 1,42,-1
 1330 1325 l 1,43,-1
 1408 1282 l 1,44,-1
 1399 1273 l 1,45,-1
 1399 1265 l 1,46,47
 1442 1265 1442 1265 1442 1247 c 0,48,49
 1442 1216 1442 1216 1124 1179 c 1,50,51
 1016 1179 1016 1179 713 1059 c 1,52,-1
 618 870 l 1,53,-1
 627 870 l 1,54,55
 673 887 673 887 893 896 c 1,56,-1
 910 870 l 1,57,-1
 884 861 l 1,58,-1
 884 853 l 1,59,60
 953 853 953 853 953 836 c 1,61,-1
 910 818 l 1,62,-1
 910 810 l 1,63,-1
 927 810 l 1,64,-1
 919 784 l 1,65,66
 919 741 919 741 987 715 c 1,67,-1
 987 707 l 1,68,-1
 979 698 l 1,69,-1
 979 690 l 1,70,71
 1022 690 1022 690 1022 672 c 2,72,-1
 1022 664 l 2,73,74
 1022 638 1022 638 481 527 c 1,75,76
 414 527 414 527 309 269 c 1,77,-1
 927 372 l 1,78,-1
 927 355 l 1,79,-1
 936 355 l 1,80,-1
 979 364 l 1,81,82
 990 321 990 321 1022 321 c 1,83,-1
 1022 295 l 1,84,85
 1001 295 1001 295 979 269 c 1,86,-1
 961 269 l 1,87,-1
 961 261 l 1,88,-1
 1013 261 l 1,89,-1
 1013 243 l 1,90,-1
 970 243 l 1,91,-1
 979 235 l 1,92,-1
 979 226 l 1,93,-1
 970 218 l 1,94,95
 1097 218 1097 218 1107 175 c 1,96,-1
 1099 166 l 1,97,98
 1142 160 1142 160 1142 140 c 1,99,100
 1066 91 1066 91 627 12 c 1,101,102
 112 -75 112 -75 112 -143 c 1,103,104
 100 -188 100 -188 35 -220 c 1,105,-1
 26 -220 l 1,106,-1
 -25 -177 l 1,107,-1
 -43 -177 l 1,108,-1
 -86 -186 l 1,109,110
 -86 -164 -86 -164 -171 -143 c 1,111,-1
 -197 -151 l 1,112,-1
 -206 -143 l 1,113,-1
 -206 -134 l 1,114,-1
 -197 -108 l 1,115,-1
 -214 -108 l 1,116,-1
 -223 -117 l 1,117,-1
 -231 -117 l 1,118,-1
 -240 -108 l 1,119,-1
 -240 -100 l 1,120,121
 -169 155 -169 155 395 1342 c 1,122,123
 395 1428 395 1428 515 1445 c 1,124,-1
 850 1436 l 1,125,-1
 1185 1462 l 1,28,29
EndSplineSet
EndChar

StartChar: Edieresis
Encoding: 203 203 139
Width: 1151
Flags: W
LayerCount: 2
Fore
SplineSet
690 1800 m 1,0,-1
 714 1800 l 2,1,2
 765 1800 765 1800 814 1732 c 1,3,-1
 814 1724 l 1,4,5
 723 1596 723 1596 710 1596 c 2,6,-1
 706 1596 l 1,7,8
 682 1604 682 1604 682 1616 c 1,9,-1
 678 1612 l 1,10,-1
 674 1612 l 2,11,12
 624 1612 624 1612 590 1656 c 1,13,-1
 590 1668 l 2,14,15
 590 1707 590 1707 662 1796 c 1,16,-1
 690 1800 l 1,0,-1
1074 1800 m 2,17,18
 1138 1800 1138 1800 1190 1732 c 1,19,-1
 1190 1728 l 2,20,21
 1190 1701 1190 1701 1094 1584 c 1,22,-1
 1082 1584 l 1,23,-1
 1062 1600 l 1,24,-1
 1042 1596 l 1,25,-1
 1034 1612 l 1,26,-1
 1018 1600 l 1,27,-1
 998 1600 l 1,28,29
 966 1624 966 1624 966 1652 c 1,30,31
 1005 1800 1005 1800 1058 1800 c 2,32,-1
 1074 1800 l 2,17,18
1165 1462 m 1,33,34
 1165 1428 1165 1428 1199 1428 c 1,35,-1
 1199 1411 l 1,36,-1
 1173 1411 l 1,37,-1
 1173 1402 l 1,38,39
 1216 1402 1216 1402 1216 1385 c 2,40,-1
 1216 1376 l 1,41,-1
 1182 1376 l 1,42,43
 1182 1350 1182 1350 1233 1350 c 1,44,-1
 1233 1333 l 1,45,-1
 1207 1333 l 1,46,-1
 1207 1325 l 1,47,-1
 1310 1325 l 1,48,-1
 1388 1282 l 1,49,-1
 1379 1273 l 1,50,-1
 1379 1265 l 1,51,52
 1422 1265 1422 1265 1422 1247 c 0,53,54
 1422 1216 1422 1216 1104 1179 c 1,55,56
 996 1179 996 1179 693 1059 c 1,57,-1
 598 870 l 1,58,-1
 607 870 l 1,59,60
 653 887 653 887 873 896 c 1,61,-1
 890 870 l 1,62,-1
 864 861 l 1,63,-1
 864 853 l 1,64,65
 933 853 933 853 933 836 c 1,66,-1
 890 818 l 1,67,-1
 890 810 l 1,68,-1
 907 810 l 1,69,-1
 899 784 l 1,70,71
 899 741 899 741 967 715 c 1,72,-1
 967 707 l 1,73,-1
 959 698 l 1,74,-1
 959 690 l 1,75,76
 1002 690 1002 690 1002 672 c 2,77,-1
 1002 664 l 2,78,79
 1002 638 1002 638 461 527 c 1,80,81
 394 527 394 527 289 269 c 1,82,-1
 907 372 l 1,83,-1
 907 355 l 1,84,-1
 916 355 l 1,85,-1
 959 364 l 1,86,87
 970 321 970 321 1002 321 c 1,88,-1
 1002 295 l 1,89,90
 981 295 981 295 959 269 c 1,91,-1
 941 269 l 1,92,-1
 941 261 l 1,93,-1
 993 261 l 1,94,-1
 993 243 l 1,95,-1
 950 243 l 1,96,-1
 959 235 l 1,97,-1
 959 226 l 1,98,-1
 950 218 l 1,99,100
 1077 218 1077 218 1087 175 c 1,101,-1
 1079 166 l 1,102,103
 1122 160 1122 160 1122 140 c 1,104,105
 1046 91 1046 91 607 12 c 1,106,107
 92 -75 92 -75 92 -143 c 1,108,109
 80 -188 80 -188 15 -220 c 1,110,-1
 6 -220 l 1,111,-1
 -45 -177 l 1,112,-1
 -63 -177 l 1,113,-1
 -106 -186 l 1,114,115
 -106 -164 -106 -164 -191 -143 c 1,116,-1
 -217 -151 l 1,117,-1
 -226 -143 l 1,118,-1
 -226 -134 l 1,119,-1
 -217 -108 l 1,120,-1
 -234 -108 l 1,121,-1
 -243 -117 l 1,122,-1
 -251 -117 l 1,123,-1
 -260 -108 l 1,124,-1
 -260 -100 l 1,125,126
 -189 155 -189 155 375 1342 c 1,127,128
 375 1428 375 1428 495 1445 c 1,129,-1
 830 1436 l 1,130,-1
 1165 1462 l 1,33,34
EndSplineSet
EndChar

StartChar: Igrave
Encoding: 204 204 140
Width: 657
Flags: W
LayerCount: 2
Fore
SplineSet
763 1605 m 1,1,-1
 763 1599 l 1,2,-1
 751 1578 l 1,3,-1
 747 1578 l 1,4,-1
 743 1584 l 1,5,6
 743 1565 743 1565 728 1558 c 1,7,-1
 716 1558 l 1,8,-1
 712 1563 l 1,9,-1
 704 1552 l 1,10,-1
 692 1563 l 1,11,-1
 692 1547 l 2,12,13
 692 1526 692 1526 669 1526 c 1,14,-1
 669 1521 l 1,15,-1
 673 1516 l 1,16,-1
 673 1500 l 1,17,-1
 665 1500 l 2,18,19
 646 1500 646 1500 504 1631 c 1,20,21
 374 1715 374 1715 374 1756 c 2,22,-1
 374 1766 l 1,23,24
 391 1801 391 1801 401 1803 c 1,25,26
 401 1837 401 1837 492 1860 c 1,27,0
 666 1738 666 1738 763 1605 c 1,1,-1
484 1442 m 2,28,-1
 539 1442 l 2,29,30
 705 1442 705 1442 797 1295 c 1,31,-1
 797 1258 l 2,32,33
 797 1232 797 1232 622 945 c 1,34,-1
 217 107 l 1,35,36
 138 -38 138 -38 106 -59 c 1,37,-1
 97 -49 l 1,38,-1
 88 -49 l 1,39,-1
 69 -95 l 1,40,-1
 51 -95 l 1,41,-1
 69 -31 l 1,42,-1
 -32 -197 l 1,43,-1
 -41 -197 l 1,44,-1
 -50 -188 l 1,45,-1
 -50 -178 l 1,46,-1
 -41 -169 l 1,47,-1
 -41 -151 l 1,48,-1
 -50 -151 l 1,49,-1
 -87 -234 l 1,50,-1
 -106 -234 l 1,51,-1
 -106 -224 l 1,52,-1
 -87 -178 l 1,53,-1
 -235 -298 l 1,54,-1
 -262 -280 l 1,55,-1
 -253 -270 l 1,56,-1
 -253 -243 l 1,57,-1
 -281 -261 l 1,58,-1
 -299 -243 l 1,59,60
 -299 -122 -299 -122 364 1332 c 1,61,62
 404 1442 404 1442 484 1442 c 2,28,-1
EndSplineSet
EndChar

StartChar: Iacute
Encoding: 205 205 141
Width: 657
Flags: W
LayerCount: 2
Fore
SplineSet
878 1853 m 1,0,1
 998 1830 998 1830 998 1796 c 1,2,3
 1011 1794 1011 1794 1034 1759 c 1,4,-1
 1034 1749 l 2,5,6
 1034 1708 1034 1708 862 1624 c 1,7,8
 673 1493 673 1493 648 1493 c 2,9,-1
 638 1493 l 1,10,-1
 638 1509 l 1,11,-1
 643 1514 l 1,12,-1
 643 1519 l 1,13,14
 612 1519 612 1519 612 1540 c 2,15,-1
 612 1556 l 1,16,-1
 596 1545 l 1,17,-1
 586 1556 l 1,18,-1
 581 1551 l 1,19,-1
 565 1551 l 1,20,21
 544 1558 544 1558 544 1577 c 1,22,-1
 539 1571 l 1,23,-1
 534 1571 l 1,24,-1
 518 1592 l 1,25,-1
 518 1598 l 1,26,27
 647 1731 647 1731 878 1853 c 1,0,1
472 1442 m 2,28,-1
 527 1442 l 2,29,30
 693 1442 693 1442 785 1295 c 1,31,-1
 785 1258 l 2,32,33
 785 1232 785 1232 610 945 c 1,34,-1
 205 107 l 1,35,36
 126 -38 126 -38 94 -59 c 1,37,-1
 85 -49 l 1,38,-1
 76 -49 l 1,39,-1
 57 -95 l 1,40,-1
 39 -95 l 1,41,-1
 57 -31 l 1,42,-1
 -44 -197 l 1,43,-1
 -53 -197 l 1,44,-1
 -62 -188 l 1,45,-1
 -62 -178 l 1,46,-1
 -53 -169 l 1,47,-1
 -53 -151 l 1,48,-1
 -62 -151 l 1,49,-1
 -99 -234 l 1,50,-1
 -118 -234 l 1,51,-1
 -118 -224 l 1,52,-1
 -99 -178 l 1,53,-1
 -247 -298 l 1,54,-1
 -274 -280 l 1,55,-1
 -265 -270 l 1,56,-1
 -265 -243 l 1,57,-1
 -293 -261 l 1,58,-1
 -311 -243 l 1,59,60
 -311 -122 -311 -122 352 1332 c 1,61,62
 392 1442 392 1442 472 1442 c 2,28,-1
EndSplineSet
EndChar

StartChar: Idieresis
Encoding: 207 207 143
Width: 657
Flags: W
LayerCount: 2
Fore
SplineSet
450 1800 m 1,0,-1
 474 1800 l 2,1,2
 525 1800 525 1800 574 1732 c 1,3,-1
 574 1724 l 1,4,5
 483 1596 483 1596 470 1596 c 2,6,-1
 466 1596 l 1,7,8
 442 1604 442 1604 442 1616 c 1,9,-1
 438 1612 l 1,10,-1
 434 1612 l 2,11,12
 384 1612 384 1612 350 1656 c 1,13,-1
 350 1668 l 2,14,15
 350 1707 350 1707 422 1796 c 1,16,-1
 450 1800 l 1,0,-1
834 1800 m 2,17,18
 898 1800 898 1800 950 1732 c 1,19,-1
 950 1728 l 2,20,21
 950 1701 950 1701 854 1584 c 1,22,-1
 842 1584 l 1,23,-1
 822 1600 l 1,24,-1
 802 1596 l 1,25,-1
 794 1612 l 1,26,-1
 778 1600 l 1,27,-1
 758 1600 l 1,28,29
 726 1624 726 1624 726 1652 c 1,30,31
 765 1800 765 1800 818 1800 c 2,32,-1
 834 1800 l 2,17,18
442 1442 m 2,33,-1
 497 1442 l 2,34,35
 663 1442 663 1442 755 1295 c 1,36,-1
 755 1258 l 2,37,38
 755 1232 755 1232 580 945 c 1,39,-1
 175 107 l 1,40,41
 96 -38 96 -38 64 -59 c 1,42,-1
 55 -49 l 1,43,-1
 46 -49 l 1,44,-1
 27 -95 l 1,45,-1
 9 -95 l 1,46,-1
 27 -31 l 1,47,-1
 -74 -197 l 1,48,-1
 -83 -197 l 1,49,-1
 -92 -188 l 1,50,-1
 -92 -178 l 1,51,-1
 -83 -169 l 1,52,-1
 -83 -151 l 1,53,-1
 -92 -151 l 1,54,-1
 -129 -234 l 1,55,-1
 -148 -234 l 1,56,-1
 -148 -224 l 1,57,-1
 -129 -178 l 1,58,-1
 -277 -298 l 1,59,-1
 -304 -280 l 1,60,-1
 -295 -270 l 1,61,-1
 -295 -243 l 1,62,-1
 -323 -261 l 1,63,-1
 -341 -243 l 1,64,65
 -341 -122 -341 -122 322 1332 c 1,66,67
 362 1442 362 1442 442 1442 c 2,33,-1
EndSplineSet
EndChar

StartChar: Ntilde
Encoding: 209 209 145
Width: 1554
Flags: W
LayerCount: 2
Fore
SplineSet
893 1859 m 2,0,-1
 921 1859 l 2,1,2
 975 1859 975 1859 1371 1715 c 1,3,-1
 1446 1700 l 1,4,5
 1487 1700 1487 1700 1615 1751 c 1,6,-1
 1615 1743 l 1,7,-1
 1624 1751 l 1,8,-1
 1662 1751 l 1,9,-1
 1662 1743 l 1,10,-1
 1577 1650 l 1,11,-1
 1587 1650 l 1,12,-1
 1596 1657 l 1,13,-1
 1596 1642 l 1,14,-1
 1634 1664 l 1,15,-1
 1643 1657 l 1,16,-1
 1652 1657 l 1,17,-1
 1671 1671 l 1,18,-1
 1671 1664 l 1,19,20
 1571 1534 1571 1534 1446 1534 c 2,21,-1
 1409 1534 l 2,22,23
 1356 1534 1356 1534 987 1628 c 1,24,-1
 959 1628 l 2,25,26
 921 1628 921 1628 753 1577 c 1,27,-1
 631 1556 l 1,28,-1
 612 1577 l 1,29,-1
 612 1592 l 2,30,31
 612 1716 612 1716 734 1816 c 1,32,33
 799 1859 799 1859 893 1859 c 2,0,-1
1501 1500 m 2,34,-1
 1564 1500 l 2,35,36
 1684 1500 1684 1500 1762 1392 c 1,37,-1
 1762 1365 l 1,38,-1
 1420 484 l 1,39,40
 1294 251 1294 251 1168 -173 c 1,41,-1
 1141 -200 l 1,42,-1
 1114 -200 l 1,43,-1
 1078 -173 l 1,44,-1
 1069 -182 l 1,45,-1
 1024 -182 l 1,46,-1
 979 -155 l 1,47,-1
 889 -164 l 1,48,-1
 817 -83 l 1,49,-1
 817 -20 l 2,50,51
 817 20 817 20 880 169 c 1,52,-1
 647 726 l 1,53,-1
 575 942 l 1,54,-1
 566 942 l 1,55,-1
 206 187 l 2,56,57
 143 58 143 58 116 -110 c 1,58,-1
 125 -119 l 1,59,-1
 125 -128 l 1,60,61
 110 -200 110 -200 89 -200 c 2,62,-1
 62 -200 l 1,63,-1
 -28 -146 l 1,64,-1
 -46 -146 l 1,65,-1
 -82 -155 l 1,66,-1
 -109 -146 l 1,67,-1
 -127 -164 l 1,68,-1
 -136 -155 l 1,69,-1
 -145 -155 l 1,70,-1
 -154 -164 l 1,71,-1
 -235 -56 l 1,72,-1
 -235 -20 l 2,73,74
 -235 142 -235 142 188 969 c 1,75,-1
 404 1428 l 1,76,77
 453 1467 453 1467 709 1482 c 0,78,79
 770 1482 770 1482 835 1392 c 1,80,-1
 835 1383 l 2,81,82
 835 1128 835 1128 1069 628 c 1,83,84
 1195 844 1195 844 1348 1365 c 0,85,86
 1379 1482 1379 1482 1456 1482 c 1,87,88
 1456 1498 1456 1498 1501 1500 c 2,34,-1
EndSplineSet
EndChar

StartChar: Ograve
Encoding: 210 210 146
Width: 1614
Flags: W
LayerCount: 2
Fore
SplineSet
1163 1605 m 1,1,-1
 1163 1599 l 1,2,-1
 1151 1578 l 1,3,-1
 1147 1578 l 1,4,-1
 1143 1584 l 1,5,6
 1143 1565 1143 1565 1128 1558 c 1,7,-1
 1116 1558 l 1,8,-1
 1112 1563 l 1,9,-1
 1104 1552 l 1,10,-1
 1092 1563 l 1,11,-1
 1092 1547 l 2,12,13
 1092 1526 1092 1526 1069 1526 c 1,14,-1
 1069 1521 l 1,15,-1
 1073 1516 l 1,16,-1
 1073 1500 l 1,17,-1
 1065 1500 l 2,18,19
 1046 1500 1046 1500 904 1631 c 1,20,21
 774 1715 774 1715 774 1756 c 2,22,-1
 774 1766 l 1,23,24
 791 1801 791 1801 801 1803 c 1,25,26
 801 1837 801 1837 892 1860 c 1,27,0
 1066 1738 1066 1738 1163 1605 c 1,1,-1
1312 1496 m 2,28,-1
 1322 1496 l 2,29,30
 1417 1496 1417 1496 1514 1313 c 1,31,-1
 1524 1303 l 1,32,-1
 1524 1258 l 2,33,34
 1524 1215 1524 1215 1380 1184 c 1,35,-1
 1380 1175 l 1,36,37
 1601 901 1601 901 1601 662 c 2,38,-1
 1601 616 l 2,39,40
 1601 24 1601 24 1091 -145 c 1,41,42
 917 -191 917 -191 803 -191 c 2,43,-1
 697 -191 l 2,44,45
 249 -191 249 -191 52 267 c 1,46,47
 24 273 24 273 14 432 c 1,48,-1
 14 497 l 2,49,50
 14 941 14 941 658 1303 c 1,51,52
 1065 1496 1065 1496 1312 1496 c 2,28,-1
370 414 m 2,53,-1
 370 405 l 2,54,55
 370 246 370 246 572 222 c 1,56,-1
 649 222 l 2,57,58
 960 222 960 222 1226 579 c 1,59,60
 1267 673 1267 673 1283 827 c 1,61,62
 1274 955 1274 955 1255 983 c 1,63,-1
 1264 1010 l 1,64,65
 1238 1148 1238 1148 1226 1148 c 0,66,67
 943 1110 943 1110 572 781 c 1,68,69
 370 585 370 585 370 414 c 2,53,-1
EndSplineSet
EndChar

StartChar: Oacute
Encoding: 211 211 147
Width: 1010
Flags: W
LayerCount: 2
Fore
SplineSet
1045 1853 m 1,0,1
 1165 1830 1165 1830 1165 1796 c 1,2,3
 1178 1794 1178 1794 1201 1759 c 1,4,-1
 1201 1749 l 2,5,6
 1201 1708 1201 1708 1029 1624 c 1,7,8
 840 1493 840 1493 815 1493 c 2,9,-1
 805 1493 l 1,10,-1
 805 1509 l 1,11,-1
 810 1514 l 1,12,-1
 810 1519 l 1,13,14
 779 1519 779 1519 779 1540 c 2,15,-1
 779 1556 l 1,16,-1
 763 1545 l 1,17,-1
 753 1556 l 1,18,-1
 748 1551 l 1,19,-1
 732 1551 l 1,20,21
 711 1558 711 1558 711 1577 c 1,22,-1
 706 1571 l 1,23,-1
 701 1571 l 1,24,-1
 685 1592 l 1,25,-1
 685 1598 l 1,26,27
 814 1731 814 1731 1045 1853 c 1,0,1
1051 1496 m 2,28,-1
 1061 1496 l 2,29,30
 1156 1496 1156 1496 1253 1313 c 1,31,-1
 1263 1303 l 1,32,-1
 1263 1258 l 2,33,34
 1263 1215 1263 1215 1119 1184 c 1,35,-1
 1119 1175 l 1,36,37
 1340 901 1340 901 1340 662 c 2,38,-1
 1340 616 l 2,39,40
 1340 24 1340 24 830 -145 c 1,41,42
 656 -191 656 -191 542 -191 c 2,43,-1
 436 -191 l 2,44,45
 -12 -191 -12 -191 -209 267 c 1,46,47
 -237 273 -237 273 -247 432 c 1,48,-1
 -247 497 l 2,49,50
 -247 941 -247 941 397 1303 c 1,51,52
 804 1496 804 1496 1051 1496 c 2,28,-1
109 414 m 2,53,-1
 109 405 l 2,54,55
 109 246 109 246 311 222 c 1,56,-1
 388 222 l 2,57,58
 699 222 699 222 965 579 c 1,59,60
 1006 673 1006 673 1022 827 c 1,61,62
 1013 955 1013 955 994 983 c 1,63,-1
 1003 1010 l 1,64,65
 977 1148 977 1148 965 1148 c 0,66,67
 682 1110 682 1110 311 781 c 1,68,69
 109 585 109 585 109 414 c 2,53,-1
EndSplineSet
EndChar

StartChar: Otilde
Encoding: 213 213 149
Width: 1614
Flags: W
LayerCount: 2
Fore
SplineSet
902 1859 m 2,0,-1
 930 1859 l 2,1,2
 984 1859 984 1859 1380 1715 c 1,3,-1
 1455 1700 l 1,4,5
 1496 1700 1496 1700 1624 1751 c 1,6,-1
 1624 1743 l 1,7,-1
 1633 1751 l 1,8,-1
 1671 1751 l 1,9,-1
 1671 1743 l 1,10,-1
 1586 1650 l 1,11,-1
 1596 1650 l 1,12,-1
 1605 1657 l 1,13,-1
 1605 1642 l 1,14,-1
 1643 1664 l 1,15,-1
 1652 1657 l 1,16,-1
 1661 1657 l 1,17,-1
 1680 1671 l 1,18,-1
 1680 1664 l 1,19,20
 1580 1534 1580 1534 1455 1534 c 2,21,-1
 1418 1534 l 2,22,23
 1365 1534 1365 1534 996 1628 c 1,24,-1
 968 1628 l 2,25,26
 930 1628 930 1628 762 1577 c 1,27,-1
 640 1556 l 1,28,-1
 621 1577 l 1,29,-1
 621 1592 l 2,30,31
 621 1716 621 1716 743 1816 c 1,32,33
 808 1859 808 1859 902 1859 c 2,0,-1
1231 1496 m 2,34,-1
 1241 1496 l 2,35,36
 1336 1496 1336 1496 1433 1313 c 1,37,-1
 1443 1303 l 1,38,-1
 1443 1258 l 2,39,40
 1443 1215 1443 1215 1299 1184 c 1,41,-1
 1299 1175 l 1,42,43
 1520 901 1520 901 1520 662 c 2,44,-1
 1520 616 l 2,45,46
 1520 24 1520 24 1010 -145 c 1,47,48
 836 -191 836 -191 722 -191 c 2,49,-1
 616 -191 l 2,50,51
 168 -191 168 -191 -29 267 c 1,52,53
 -57 273 -57 273 -67 432 c 1,54,-1
 -67 497 l 2,55,56
 -67 941 -67 941 577 1303 c 1,57,58
 984 1496 984 1496 1231 1496 c 2,34,-1
289 414 m 2,59,-1
 289 405 l 2,60,61
 289 246 289 246 491 222 c 1,62,-1
 568 222 l 2,63,64
 879 222 879 222 1145 579 c 1,65,66
 1186 673 1186 673 1202 827 c 1,67,68
 1193 955 1193 955 1174 983 c 1,69,-1
 1183 1010 l 1,70,71
 1157 1148 1157 1148 1145 1148 c 0,72,73
 862 1110 862 1110 491 781 c 1,74,75
 289 585 289 585 289 414 c 2,59,-1
EndSplineSet
EndChar

StartChar: Odieresis
Encoding: 214 214 150
Width: 1010
Flags: W
LayerCount: 2
Fore
SplineSet
631 1800 m 1,0,-1
 655 1800 l 2,1,2
 706 1800 706 1800 755 1732 c 1,3,-1
 755 1724 l 1,4,5
 664 1596 664 1596 651 1596 c 2,6,-1
 647 1596 l 1,7,8
 623 1604 623 1604 623 1616 c 1,9,-1
 619 1612 l 1,10,-1
 615 1612 l 2,11,12
 565 1612 565 1612 531 1656 c 1,13,-1
 531 1668 l 2,14,15
 531 1707 531 1707 603 1796 c 1,16,-1
 631 1800 l 1,0,-1
1015 1800 m 2,17,18
 1079 1800 1079 1800 1131 1732 c 1,19,-1
 1131 1728 l 2,20,21
 1131 1701 1131 1701 1035 1584 c 1,22,-1
 1023 1584 l 1,23,-1
 1003 1600 l 1,24,-1
 983 1596 l 1,25,-1
 975 1612 l 1,26,-1
 959 1600 l 1,27,-1
 939 1600 l 1,28,29
 907 1624 907 1624 907 1652 c 1,30,31
 946 1800 946 1800 999 1800 c 2,32,-1
 1015 1800 l 2,17,18
1009 1496 m 2,33,-1
 1019 1496 l 2,34,35
 1114 1496 1114 1496 1211 1313 c 1,36,-1
 1221 1303 l 1,37,-1
 1221 1258 l 2,38,39
 1221 1215 1221 1215 1077 1184 c 1,40,-1
 1077 1175 l 1,41,42
 1298 901 1298 901 1298 662 c 2,43,-1
 1298 616 l 2,44,45
 1298 24 1298 24 788 -145 c 1,46,47
 614 -191 614 -191 500 -191 c 2,48,-1
 394 -191 l 2,49,50
 -54 -191 -54 -191 -251 267 c 1,51,52
 -279 273 -279 273 -289 432 c 1,53,-1
 -289 497 l 2,54,55
 -289 941 -289 941 355 1303 c 1,56,57
 762 1496 762 1496 1009 1496 c 2,33,-1
67 414 m 2,58,-1
 67 405 l 2,59,60
 67 246 67 246 269 222 c 1,61,-1
 346 222 l 2,62,63
 657 222 657 222 923 579 c 1,64,65
 964 673 964 673 980 827 c 1,66,67
 971 955 971 955 952 983 c 1,68,-1
 961 1010 l 1,69,70
 935 1148 935 1148 923 1148 c 0,71,72
 640 1110 640 1110 269 781 c 1,73,74
 67 585 67 585 67 414 c 2,58,-1
EndSplineSet
EndChar

StartChar: multiply
Encoding: 215 215 151
Width: 1014
Flags: W
LayerCount: 2
Fore
SplineSet
507 618 m 1,0,-1
 260 371 l 1,1,-1
 161 470 l 1,2,-1
 408 717 l 1,3,-1
 161 965 l 1,4,-1
 260 1063 l 1,5,-1
 507 816 l 1,6,-1
 755 1063 l 1,7,-1
 853 964 l 1,8,-1
 606 717 l 1,9,-1
 853 470 l 1,10,-1
 754 371 l 1,11,-1
 507 618 l 1,0,-1
EndSplineSet
EndChar

StartChar: Ugrave
Encoding: 217 217 153
Width: 1501
Flags: W
LayerCount: 2
Fore
SplineSet
958 1605 m 1,1,-1
 958 1599 l 1,2,-1
 946 1578 l 1,3,-1
 942 1578 l 1,4,-1
 938 1584 l 1,5,6
 938 1565 938 1565 923 1558 c 1,7,-1
 911 1558 l 1,8,-1
 907 1563 l 1,9,-1
 899 1552 l 1,10,-1
 887 1563 l 1,11,-1
 887 1547 l 2,12,13
 887 1526 887 1526 864 1526 c 1,14,-1
 864 1521 l 1,15,-1
 868 1516 l 1,16,-1
 868 1500 l 1,17,-1
 860 1500 l 2,18,19
 841 1500 841 1500 699 1631 c 1,20,21
 569 1715 569 1715 569 1756 c 2,22,-1
 569 1766 l 1,23,24
 586 1801 586 1801 596 1803 c 1,25,26
 596 1837 596 1837 687 1860 c 1,27,0
 861 1738 861 1738 958 1605 c 1,1,-1
305 1494 m 2,28,-1
 349 1494 l 2,29,30
 488 1494 488 1494 576 1346 c 1,31,-1
 584 1311 l 1,32,33
 584 1238 584 1238 392 874 c 1,34,35
 191 479 191 479 191 150 c 2,36,-1
 191 124 l 1,37,38
 417 271 417 271 558 482 c 1,39,40
 890 905 890 905 951 1093 c 1,41,-1
 1003 1206 l 1,42,43
 1029 1206 1029 1206 1029 1232 c 1,44,-1
 1038 1241 l 1,45,-1
 1056 1241 l 1,46,-1
 1056 1206 l 1,47,-1
 1064 1206 l 1,48,49
 1088 1354 1088 1354 1108 1354 c 2,50,-1
 1117 1354 l 1,51,-1
 1117 1319 l 1,52,-1
 1125 1319 l 1,53,-1
 1125 1389 l 1,54,-1
 1143 1389 l 1,55,-1
 1143 1363 l 1,56,57
 1174 1379 1174 1379 1221 1494 c 1,58,-1
 1230 1494 l 1,59,60
 1317 1413 1317 1413 1317 1241 c 0,61,62
 1317 665 1317 665 576 -68 c 1,63,64
 434 -156 434 -156 253 -156 c 0,65,66
 -82 -156 -82 -156 -193 89 c 1,67,-1
 -210 194 l 1,68,-1
 -210 237 l 2,69,70
 -210 581 -210 581 -70 848 c 1,71,-1
 157 1381 l 1,72,73
 231 1494 231 1494 305 1494 c 2,28,-1
EndSplineSet
EndChar

StartChar: Uacute
Encoding: 218 218 154
Width: 1059
Flags: W
LayerCount: 2
Fore
SplineSet
1033 1853 m 1,0,1
 1153 1830 1153 1830 1153 1796 c 1,2,3
 1166 1794 1166 1794 1189 1759 c 1,4,-1
 1189 1749 l 2,5,6
 1189 1708 1189 1708 1017 1624 c 1,7,8
 828 1493 828 1493 803 1493 c 2,9,-1
 793 1493 l 1,10,-1
 793 1509 l 1,11,-1
 798 1514 l 1,12,-1
 798 1519 l 1,13,14
 767 1519 767 1519 767 1540 c 2,15,-1
 767 1556 l 1,16,-1
 751 1545 l 1,17,-1
 741 1556 l 1,18,-1
 736 1551 l 1,19,-1
 720 1551 l 1,20,21
 699 1558 699 1558 699 1577 c 1,22,-1
 694 1571 l 1,23,-1
 689 1571 l 1,24,-1
 673 1592 l 1,25,-1
 673 1598 l 1,26,27
 802 1731 802 1731 1033 1853 c 1,0,1
295 1494 m 2,28,-1
 339 1494 l 2,29,30
 478 1494 478 1494 566 1346 c 1,31,-1
 574 1311 l 1,32,33
 574 1238 574 1238 382 874 c 1,34,35
 181 479 181 479 181 150 c 2,36,-1
 181 124 l 1,37,38
 407 271 407 271 548 482 c 1,39,40
 880 905 880 905 941 1093 c 1,41,-1
 993 1206 l 1,42,43
 1019 1206 1019 1206 1019 1232 c 1,44,-1
 1028 1241 l 1,45,-1
 1046 1241 l 1,46,-1
 1046 1206 l 1,47,-1
 1054 1206 l 1,48,49
 1078 1354 1078 1354 1098 1354 c 2,50,-1
 1107 1354 l 1,51,-1
 1107 1319 l 1,52,-1
 1115 1319 l 1,53,-1
 1115 1389 l 1,54,-1
 1133 1389 l 1,55,-1
 1133 1363 l 1,56,57
 1164 1379 1164 1379 1211 1494 c 1,58,-1
 1220 1494 l 1,59,60
 1307 1413 1307 1413 1307 1241 c 0,61,62
 1307 665 1307 665 566 -68 c 1,63,64
 424 -156 424 -156 243 -156 c 0,65,66
 -92 -156 -92 -156 -203 89 c 1,67,-1
 -220 194 l 1,68,-1
 -220 237 l 2,69,70
 -220 581 -220 581 -80 848 c 1,71,-1
 147 1381 l 1,72,73
 221 1494 221 1494 295 1494 c 2,28,-1
EndSplineSet
EndChar

StartChar: Udieresis
Encoding: 220 220 156
Width: 1059
Flags: W
LayerCount: 2
Fore
SplineSet
641 1800 m 1,0,-1
 665 1800 l 2,1,2
 716 1800 716 1800 765 1732 c 1,3,-1
 765 1724 l 1,4,5
 674 1596 674 1596 661 1596 c 2,6,-1
 657 1596 l 1,7,8
 633 1604 633 1604 633 1616 c 1,9,-1
 629 1612 l 1,10,-1
 625 1612 l 2,11,12
 575 1612 575 1612 541 1656 c 1,13,-1
 541 1668 l 2,14,15
 541 1707 541 1707 613 1796 c 1,16,-1
 641 1800 l 1,0,-1
1025 1800 m 2,17,18
 1089 1800 1089 1800 1141 1732 c 1,19,-1
 1141 1728 l 2,20,21
 1141 1701 1141 1701 1045 1584 c 1,22,-1
 1033 1584 l 1,23,-1
 1013 1600 l 1,24,-1
 993 1596 l 1,25,-1
 985 1612 l 1,26,-1
 969 1600 l 1,27,-1
 949 1600 l 1,28,29
 917 1624 917 1624 917 1652 c 1,30,31
 956 1800 956 1800 1009 1800 c 2,32,-1
 1025 1800 l 2,17,18
305 1494 m 2,33,-1
 349 1494 l 2,34,35
 488 1494 488 1494 576 1346 c 1,36,-1
 584 1311 l 1,37,38
 584 1238 584 1238 392 874 c 1,39,40
 191 479 191 479 191 150 c 2,41,-1
 191 124 l 1,42,43
 417 271 417 271 558 482 c 1,44,45
 890 905 890 905 951 1093 c 1,46,-1
 1003 1206 l 1,47,48
 1029 1206 1029 1206 1029 1232 c 1,49,-1
 1038 1241 l 1,50,-1
 1056 1241 l 1,51,-1
 1056 1206 l 1,52,-1
 1064 1206 l 1,53,54
 1088 1354 1088 1354 1108 1354 c 2,55,-1
 1117 1354 l 1,56,-1
 1117 1319 l 1,57,-1
 1125 1319 l 1,58,-1
 1125 1389 l 1,59,-1
 1143 1389 l 1,60,-1
 1143 1363 l 1,61,62
 1174 1379 1174 1379 1221 1494 c 1,63,-1
 1230 1494 l 1,64,65
 1317 1413 1317 1413 1317 1241 c 0,66,67
 1317 665 1317 665 576 -68 c 1,68,69
 434 -156 434 -156 253 -156 c 0,70,71
 -82 -156 -82 -156 -193 89 c 1,72,-1
 -210 194 l 1,73,-1
 -210 237 l 2,74,75
 -210 581 -210 581 -70 848 c 1,76,-1
 157 1381 l 1,77,78
 231 1494 231 1494 305 1494 c 2,33,-1
EndSplineSet
EndChar

StartChar: aacute
Encoding: 225 225 161
Width: 1540
Flags: W
LayerCount: 2
Fore
SplineSet
922 1853 m 1,0,1
 1042 1830 1042 1830 1042 1796 c 1,2,3
 1055 1794 1055 1794 1078 1759 c 1,4,-1
 1078 1749 l 2,5,6
 1078 1708 1078 1708 906 1624 c 1,7,8
 717 1493 717 1493 692 1493 c 2,9,-1
 682 1493 l 1,10,-1
 682 1509 l 1,11,-1
 687 1514 l 1,12,-1
 687 1519 l 1,13,14
 656 1519 656 1519 656 1540 c 2,15,-1
 656 1556 l 1,16,-1
 640 1545 l 1,17,-1
 630 1556 l 1,18,-1
 625 1551 l 1,19,-1
 609 1551 l 1,20,21
 588 1558 588 1558 588 1577 c 1,22,-1
 583 1571 l 1,23,-1
 578 1571 l 1,24,-1
 562 1592 l 1,25,-1
 562 1598 l 1,26,27
 691 1731 691 1731 922 1853 c 1,0,1
719 1454 m 0,28,29
 960 1454 960 1454 1014 1311 c 1,30,31
 1045 1184 1045 1184 1089 807 c 1,32,-1
 1098 798 l 1,33,34
 1103 739 1103 739 1123 739 c 2,35,-1
 1392 773 l 1,36,-1
 1392 756 l 1,37,-1
 1401 756 l 1,38,-1
 1535 764 l 1,39,-1
 1535 748 l 1,40,-1
 1476 731 l 1,41,-1
 1476 722 l 1,42,-1
 1535 722 l 1,43,-1
 1594 731 l 1,44,-1
 1594 714 l 1,45,46
 1508 680 1508 680 1460 680 c 1,47,-1
 1460 663 l 1,48,-1
 1502 672 l 1,49,50
 1560 655 1560 655 1560 638 c 1,51,-1
 1603 647 l 1,52,53
 1771 642 1771 642 1771 613 c 1,54,-1
 1762 605 l 1,55,-1
 1821 588 l 1,56,-1
 1821 571 l 1,57,58
 1707 512 1707 512 1350 470 c 1,59,-1
 1199 445 l 1,60,61
 1308 17 1308 17 1308 -136 c 2,62,-1
 1308 -169 l 1,63,-1
 1283 -195 l 1,64,-1
 1274 -195 l 2,65,66
 1246 -195 1246 -195 1216 -169 c 1,67,-1
 1216 -195 l 1,68,-1
 1199 -195 l 1,69,-1
 1199 -178 l 1,70,-1
 1173 -195 l 1,71,-1
 1140 -169 l 1,72,-1
 1056 -203 l 1,73,-1
 988 -136 l 1,74,75
 946 -68 946 -68 862 361 c 1,76,-1
 854 361 l 1,77,78
 324 215 324 215 324 133 c 1,79,80
 290 112 290 112 122 -127 c 1,81,82
 64 -195 64 -195 29 -195 c 1,83,-1
 12 -153 l 1,84,-1
 4 -161 l 1,85,-1
 -4 -161 l 1,86,87
 -55 -131 -55 -131 -55 -94 c 1,88,-1
 -63 -102 l 1,89,-1
 -80 -102 l 1,90,-1
 -80 -85 l 1,91,92
 -115 -85 -115 -85 -147 -35 c 1,93,94
 -181 -35 -181 -35 -181 -18 c 2,95,-1
 -181 41 l 2,96,97
 -181 135 -181 135 21 352 c 1,98,99
 107 495 107 495 299 748 c 1,100,-1
 585 1252 l 1,101,-1
 643 1421 l 1,102,103
 688 1454 688 1454 719 1454 c 0,28,29
652 638 m 1,104,-1
 652 630 l 1,105,106
 795 667 795 667 795 680 c 2,107,-1
 770 815 l 1,108,109
 747 805 747 805 652 638 c 1,104,-1
1434 781 m 1,110,-1
 1451 781 l 1,111,-1
 1451 764 l 1,112,-1
 1434 764 l 1,113,-1
 1434 781 l 1,110,-1
1443 722 m 1,114,-1
 1443 714 l 1,115,-1
 1460 714 l 1,116,-1
 1460 722 l 1,117,-1
 1443 722 l 1,114,-1
EndSplineSet
EndChar

StartChar: atilde
Encoding: 227 227 163
Width: 1540
Flags: W
LayerCount: 2
Fore
SplineSet
702 1859 m 2,0,-1
 730 1859 l 2,1,2
 784 1859 784 1859 1180 1715 c 1,3,-1
 1255 1700 l 1,4,5
 1296 1700 1296 1700 1424 1751 c 1,6,-1
 1424 1743 l 1,7,-1
 1433 1751 l 1,8,-1
 1471 1751 l 1,9,-1
 1471 1743 l 1,10,-1
 1386 1650 l 1,11,-1
 1396 1650 l 1,12,-1
 1405 1657 l 1,13,-1
 1405 1642 l 1,14,-1
 1443 1664 l 1,15,-1
 1452 1657 l 1,16,-1
 1461 1657 l 1,17,-1
 1480 1671 l 1,18,-1
 1480 1664 l 1,19,20
 1380 1534 1380 1534 1255 1534 c 2,21,-1
 1218 1534 l 2,22,23
 1165 1534 1165 1534 796 1628 c 1,24,-1
 768 1628 l 2,25,26
 730 1628 730 1628 562 1577 c 1,27,-1
 440 1556 l 1,28,-1
 421 1577 l 1,29,-1
 421 1592 l 2,30,31
 421 1716 421 1716 543 1816 c 1,32,33
 608 1859 608 1859 702 1859 c 2,0,-1
779 1454 m 0,34,35
 1020 1454 1020 1454 1074 1311 c 1,36,37
 1105 1184 1105 1184 1149 807 c 1,38,-1
 1158 798 l 1,39,40
 1163 739 1163 739 1183 739 c 2,41,-1
 1452 773 l 1,42,-1
 1452 756 l 1,43,-1
 1461 756 l 1,44,-1
 1595 764 l 1,45,-1
 1595 748 l 1,46,-1
 1536 731 l 1,47,-1
 1536 722 l 1,48,-1
 1595 722 l 1,49,-1
 1654 731 l 1,50,-1
 1654 714 l 1,51,52
 1568 680 1568 680 1520 680 c 1,53,-1
 1520 663 l 1,54,-1
 1562 672 l 1,55,56
 1620 655 1620 655 1620 638 c 1,57,-1
 1663 647 l 1,58,59
 1831 642 1831 642 1831 613 c 1,60,-1
 1822 605 l 1,61,-1
 1881 588 l 1,62,-1
 1881 571 l 1,63,64
 1767 512 1767 512 1410 470 c 1,65,-1
 1259 445 l 1,66,67
 1368 17 1368 17 1368 -136 c 2,68,-1
 1368 -169 l 1,69,-1
 1343 -195 l 1,70,-1
 1334 -195 l 2,71,72
 1306 -195 1306 -195 1276 -169 c 1,73,-1
 1276 -195 l 1,74,-1
 1259 -195 l 1,75,-1
 1259 -178 l 1,76,-1
 1233 -195 l 1,77,-1
 1200 -169 l 1,78,-1
 1116 -203 l 1,79,-1
 1048 -136 l 1,80,81
 1006 -68 1006 -68 922 361 c 1,82,-1
 914 361 l 1,83,84
 384 215 384 215 384 133 c 1,85,86
 350 112 350 112 182 -127 c 1,87,88
 124 -195 124 -195 89 -195 c 1,89,-1
 72 -153 l 1,90,-1
 64 -161 l 1,91,-1
 56 -161 l 1,92,93
 5 -131 5 -131 5 -94 c 1,94,-1
 -3 -102 l 1,95,-1
 -20 -102 l 1,96,-1
 -20 -85 l 1,97,98
 -55 -85 -55 -85 -87 -35 c 1,99,100
 -121 -35 -121 -35 -121 -18 c 2,101,-1
 -121 41 l 2,102,103
 -121 135 -121 135 81 352 c 1,104,105
 167 495 167 495 359 748 c 1,106,-1
 645 1252 l 1,107,-1
 703 1421 l 1,108,109
 748 1454 748 1454 779 1454 c 0,34,35
712 638 m 1,110,-1
 712 630 l 1,111,112
 855 667 855 667 855 680 c 2,113,-1
 830 815 l 1,114,115
 807 805 807 805 712 638 c 1,110,-1
1494 781 m 1,116,-1
 1511 781 l 1,117,-1
 1511 764 l 1,118,-1
 1494 764 l 1,119,-1
 1494 781 l 1,116,-1
1503 722 m 1,120,-1
 1503 714 l 1,121,-1
 1520 714 l 1,122,-1
 1520 722 l 1,123,-1
 1503 722 l 1,120,-1
EndSplineSet
EndChar

StartChar: adieresis
Encoding: 228 228 164
Width: 1540
Flags: W
LayerCount: 2
Fore
SplineSet
619 1800 m 1,0,-1
 643 1800 l 2,1,2
 694 1800 694 1800 743 1732 c 1,3,-1
 743 1724 l 1,4,5
 652 1596 652 1596 639 1596 c 2,6,-1
 635 1596 l 1,7,8
 611 1604 611 1604 611 1616 c 1,9,-1
 607 1612 l 1,10,-1
 603 1612 l 2,11,12
 553 1612 553 1612 519 1656 c 1,13,-1
 519 1668 l 2,14,15
 519 1707 519 1707 591 1796 c 1,16,-1
 619 1800 l 1,0,-1
1003 1800 m 2,17,18
 1067 1800 1067 1800 1119 1732 c 1,19,-1
 1119 1728 l 2,20,21
 1119 1701 1119 1701 1023 1584 c 1,22,-1
 1011 1584 l 1,23,-1
 991 1600 l 1,24,-1
 971 1596 l 1,25,-1
 963 1612 l 1,26,-1
 947 1600 l 1,27,-1
 927 1600 l 1,28,29
 895 1624 895 1624 895 1652 c 1,30,31
 934 1800 934 1800 987 1800 c 2,32,-1
 1003 1800 l 2,17,18
719 1454 m 0,33,34
 960 1454 960 1454 1014 1311 c 1,35,36
 1045 1184 1045 1184 1089 807 c 1,37,-1
 1098 798 l 1,38,39
 1103 739 1103 739 1123 739 c 2,40,-1
 1392 773 l 1,41,-1
 1392 756 l 1,42,-1
 1401 756 l 1,43,-1
 1535 764 l 1,44,-1
 1535 748 l 1,45,-1
 1476 731 l 1,46,-1
 1476 722 l 1,47,-1
 1535 722 l 1,48,-1
 1594 731 l 1,49,-1
 1594 714 l 1,50,51
 1508 680 1508 680 1460 680 c 1,52,-1
 1460 663 l 1,53,-1
 1502 672 l 1,54,55
 1560 655 1560 655 1560 638 c 1,56,-1
 1603 647 l 1,57,58
 1771 642 1771 642 1771 613 c 1,59,-1
 1762 605 l 1,60,-1
 1821 588 l 1,61,-1
 1821 571 l 1,62,63
 1707 512 1707 512 1350 470 c 1,64,-1
 1199 445 l 1,65,66
 1308 17 1308 17 1308 -136 c 2,67,-1
 1308 -169 l 1,68,-1
 1283 -195 l 1,69,-1
 1274 -195 l 2,70,71
 1246 -195 1246 -195 1216 -169 c 1,72,-1
 1216 -195 l 1,73,-1
 1199 -195 l 1,74,-1
 1199 -178 l 1,75,-1
 1173 -195 l 1,76,-1
 1140 -169 l 1,77,-1
 1056 -203 l 1,78,-1
 988 -136 l 1,79,80
 946 -68 946 -68 862 361 c 1,81,-1
 854 361 l 1,82,83
 324 215 324 215 324 133 c 1,84,85
 290 112 290 112 122 -127 c 1,86,87
 64 -195 64 -195 29 -195 c 1,88,-1
 12 -153 l 1,89,-1
 4 -161 l 1,90,-1
 -4 -161 l 1,91,92
 -55 -131 -55 -131 -55 -94 c 1,93,-1
 -63 -102 l 1,94,-1
 -80 -102 l 1,95,-1
 -80 -85 l 1,96,97
 -115 -85 -115 -85 -147 -35 c 1,98,99
 -181 -35 -181 -35 -181 -18 c 2,100,-1
 -181 41 l 2,101,102
 -181 135 -181 135 21 352 c 1,103,104
 107 495 107 495 299 748 c 1,105,-1
 585 1252 l 1,106,-1
 643 1421 l 1,107,108
 688 1454 688 1454 719 1454 c 0,33,34
652 638 m 1,109,-1
 652 630 l 1,110,111
 795 667 795 667 795 680 c 2,112,-1
 770 815 l 1,113,114
 747 805 747 805 652 638 c 1,109,-1
1434 781 m 1,115,-1
 1451 781 l 1,116,-1
 1451 764 l 1,117,-1
 1434 764 l 1,118,-1
 1434 781 l 1,115,-1
1443 722 m 1,119,-1
 1443 714 l 1,120,-1
 1460 714 l 1,121,-1
 1460 722 l 1,122,-1
 1443 722 l 1,119,-1
EndSplineSet
EndChar

StartChar: ccedilla
Encoding: 231 231 167
Width: 1399
Flags: W
LayerCount: 2
Fore
SplineSet
1188 1436 m 2,0,-1
 1253 1436 l 2,1,2
 1495 1436 1495 1436 1599 1296 c 1,3,-1
 1599 1212 l 2,4,5
 1599 1034 1599 1034 1468 1034 c 1,6,7
 1373 1062 1373 1062 1263 1062 c 0,8,9
 577 1062 577 1062 320 409 c 1,10,-1
 301 315 l 1,11,-1
 301 287 l 2,12,13
 301 146 301 146 488 110 c 1,14,15
 605 82 605 82 796 82 c 2,16,-1
 964 82 l 1,17,-1
 964 63 l 1,18,-1
 926 63 l 1,19,-1
 926 54 l 1,20,21
 948 54 948 54 973 17 c 1,22,-1
 982 17 l 1,23,-1
 982 -11 l 1,24,-1
 880 -21 l 1,25,-1
 880 -30 l 1,26,-1
 898 -30 l 1,27,-1
 880 -86 l 1,28,-1
 898 -86 l 1,29,-1
 898 -105 l 1,30,-1
 880 -105 l 1,31,-1
 880 -114 l 1,32,33
 917 -114 917 -114 917 -151 c 1,34,-1
 936 -151 l 1,35,-1
 926 -142 l 1,36,-1
 926 -133 l 1,37,-1
 936 -123 l 1,38,-1
 992 -123 l 1,39,-1
 992 -142 l 1,40,-1
 1001 -151 l 1,41,-1
 992 -161 l 1,42,-1
 964 -161 l 1,43,-1
 964 -170 l 1,44,-1
 982 -189 l 1,45,-1
 1010 -189 l 1,46,-1
 1001 -179 l 1,47,-1
 1001 -170 l 1,48,-1
 1029 -161 l 1,49,-1
 1057 -170 l 1,50,51
 1057 -254 1057 -254 404 -254 c 0,52,53
 -8 -254 -8 -254 -175 147 c 1,54,-1
 -175 269 l 2,55,56
 -175 702 -175 702 413 1193 c 1,57,58
 760 1436 760 1436 1188 1436 c 2,0,-1
982 45 m 1,59,-1
 1038 45 l 1,60,-1
 1038 26 l 1,61,-1
 982 26 l 1,62,-1
 982 45 l 1,59,-1
506 -200 m 2,63,-1
 528 -200 l 2,64,65
 585 -200 585 -200 594 -252 c 1,66,67
 550 -325 550 -325 550 -347 c 1,68,-1
 594 -347 l 2,69,70
 801 -347 801 -347 801 -495 c 0,71,72
 801 -676 801 -676 476 -746 c 1,73,-1
 402 -746 l 1,74,-1
 277 -739 l 1,75,-1
 277 -724 l 1,76,-1
 351 -702 l 1,77,-1
 336 -680 l 1,78,-1
 351 -665 l 1,79,-1
 439 -665 l 2,80,81
 591 -665 591 -665 631 -576 c 1,82,-1
 639 -539 l 1,83,-1
 639 -517 l 2,84,85
 639 -436 639 -436 491 -436 c 1,86,-1
 410 -443 l 1,87,-1
 402 -436 l 1,88,-1
 402 -429 l 1,89,-1
 484 -229 l 2,90,91
 495 -200 495 -200 506 -200 c 2,63,-1
EndSplineSet
EndChar

StartChar: egrave
Encoding: 232 232 168
Width: 1151
Flags: W
LayerCount: 2
Fore
SplineSet
869 1605 m 1,1,-1
 869 1599 l 1,2,-1
 857 1578 l 1,3,-1
 853 1578 l 1,4,-1
 849 1584 l 1,5,6
 849 1565 849 1565 834 1558 c 1,7,-1
 822 1558 l 1,8,-1
 818 1563 l 1,9,-1
 810 1552 l 1,10,-1
 798 1563 l 1,11,-1
 798 1547 l 2,12,13
 798 1526 798 1526 775 1526 c 1,14,-1
 775 1521 l 1,15,-1
 779 1516 l 1,16,-1
 779 1500 l 1,17,-1
 771 1500 l 2,18,19
 752 1500 752 1500 610 1631 c 1,20,21
 480 1715 480 1715 480 1756 c 2,22,-1
 480 1766 l 1,23,24
 497 1801 497 1801 507 1803 c 1,25,26
 507 1837 507 1837 598 1860 c 1,27,0
 772 1738 772 1738 869 1605 c 1,1,-1
1165 1462 m 1,28,29
 1165 1428 1165 1428 1199 1428 c 1,30,-1
 1199 1411 l 1,31,-1
 1173 1411 l 1,32,-1
 1173 1402 l 1,33,34
 1216 1402 1216 1402 1216 1385 c 2,35,-1
 1216 1376 l 1,36,-1
 1182 1376 l 1,37,38
 1182 1350 1182 1350 1233 1350 c 1,39,-1
 1233 1333 l 1,40,-1
 1207 1333 l 1,41,-1
 1207 1325 l 1,42,-1
 1310 1325 l 1,43,-1
 1388 1282 l 1,44,-1
 1379 1273 l 1,45,-1
 1379 1265 l 1,46,47
 1422 1265 1422 1265 1422 1247 c 0,48,49
 1422 1216 1422 1216 1104 1179 c 1,50,51
 996 1179 996 1179 693 1059 c 1,52,-1
 598 870 l 1,53,-1
 607 870 l 1,54,55
 653 887 653 887 873 896 c 1,56,-1
 890 870 l 1,57,-1
 864 861 l 1,58,-1
 864 853 l 1,59,60
 933 853 933 853 933 836 c 1,61,-1
 890 818 l 1,62,-1
 890 810 l 1,63,-1
 907 810 l 1,64,-1
 899 784 l 1,65,66
 899 741 899 741 967 715 c 1,67,-1
 967 707 l 1,68,-1
 959 698 l 1,69,-1
 959 690 l 1,70,71
 1002 690 1002 690 1002 672 c 2,72,-1
 1002 664 l 2,73,74
 1002 638 1002 638 461 527 c 1,75,76
 394 527 394 527 289 269 c 1,77,-1
 907 372 l 1,78,-1
 907 355 l 1,79,-1
 916 355 l 1,80,-1
 959 364 l 1,81,82
 970 321 970 321 1002 321 c 1,83,-1
 1002 295 l 1,84,85
 981 295 981 295 959 269 c 1,86,-1
 941 269 l 1,87,-1
 941 261 l 1,88,-1
 993 261 l 1,89,-1
 993 243 l 1,90,-1
 950 243 l 1,91,-1
 959 235 l 1,92,-1
 959 226 l 1,93,-1
 950 218 l 1,94,95
 1077 218 1077 218 1087 175 c 1,96,-1
 1079 166 l 1,97,98
 1122 160 1122 160 1122 140 c 1,99,100
 1046 91 1046 91 607 12 c 1,101,102
 92 -75 92 -75 92 -143 c 1,103,104
 80 -188 80 -188 15 -220 c 1,105,-1
 6 -220 l 1,106,-1
 -45 -177 l 1,107,-1
 -63 -177 l 1,108,-1
 -106 -186 l 1,109,110
 -106 -164 -106 -164 -191 -143 c 1,111,-1
 -217 -151 l 1,112,-1
 -226 -143 l 1,113,-1
 -226 -134 l 1,114,-1
 -217 -108 l 1,115,-1
 -234 -108 l 1,116,-1
 -243 -117 l 1,117,-1
 -251 -117 l 1,118,-1
 -260 -108 l 1,119,-1
 -260 -100 l 1,120,121
 -189 155 -189 155 375 1342 c 1,122,123
 375 1428 375 1428 495 1445 c 1,124,-1
 830 1436 l 1,125,-1
 1165 1462 l 1,28,29
EndSplineSet
EndChar

StartChar: eacute
Encoding: 233 233 169
Width: 1151
Flags: W
LayerCount: 2
Fore
SplineSet
1102 1853 m 1,0,1
 1222 1830 1222 1830 1222 1796 c 1,2,3
 1235 1794 1235 1794 1258 1759 c 1,4,-1
 1258 1749 l 2,5,6
 1258 1708 1258 1708 1086 1624 c 1,7,8
 897 1493 897 1493 872 1493 c 2,9,-1
 862 1493 l 1,10,-1
 862 1509 l 1,11,-1
 867 1514 l 1,12,-1
 867 1519 l 1,13,14
 836 1519 836 1519 836 1540 c 2,15,-1
 836 1556 l 1,16,-1
 820 1545 l 1,17,-1
 810 1556 l 1,18,-1
 805 1551 l 1,19,-1
 789 1551 l 1,20,21
 768 1558 768 1558 768 1577 c 1,22,-1
 763 1571 l 1,23,-1
 758 1571 l 1,24,-1
 742 1592 l 1,25,-1
 742 1598 l 1,26,27
 871 1731 871 1731 1102 1853 c 1,0,1
1185 1462 m 1,28,29
 1185 1428 1185 1428 1219 1428 c 1,30,-1
 1219 1411 l 1,31,-1
 1193 1411 l 1,32,-1
 1193 1402 l 1,33,34
 1236 1402 1236 1402 1236 1385 c 2,35,-1
 1236 1376 l 1,36,-1
 1202 1376 l 1,37,38
 1202 1350 1202 1350 1253 1350 c 1,39,-1
 1253 1333 l 1,40,-1
 1227 1333 l 1,41,-1
 1227 1325 l 1,42,-1
 1330 1325 l 1,43,-1
 1408 1282 l 1,44,-1
 1399 1273 l 1,45,-1
 1399 1265 l 1,46,47
 1442 1265 1442 1265 1442 1247 c 0,48,49
 1442 1216 1442 1216 1124 1179 c 1,50,51
 1016 1179 1016 1179 713 1059 c 1,52,-1
 618 870 l 1,53,-1
 627 870 l 1,54,55
 673 887 673 887 893 896 c 1,56,-1
 910 870 l 1,57,-1
 884 861 l 1,58,-1
 884 853 l 1,59,60
 953 853 953 853 953 836 c 1,61,-1
 910 818 l 1,62,-1
 910 810 l 1,63,-1
 927 810 l 1,64,-1
 919 784 l 1,65,66
 919 741 919 741 987 715 c 1,67,-1
 987 707 l 1,68,-1
 979 698 l 1,69,-1
 979 690 l 1,70,71
 1022 690 1022 690 1022 672 c 2,72,-1
 1022 664 l 2,73,74
 1022 638 1022 638 481 527 c 1,75,76
 414 527 414 527 309 269 c 1,77,-1
 927 372 l 1,78,-1
 927 355 l 1,79,-1
 936 355 l 1,80,-1
 979 364 l 1,81,82
 990 321 990 321 1022 321 c 1,83,-1
 1022 295 l 1,84,85
 1001 295 1001 295 979 269 c 1,86,-1
 961 269 l 1,87,-1
 961 261 l 1,88,-1
 1013 261 l 1,89,-1
 1013 243 l 1,90,-1
 970 243 l 1,91,-1
 979 235 l 1,92,-1
 979 226 l 1,93,-1
 970 218 l 1,94,95
 1097 218 1097 218 1107 175 c 1,96,-1
 1099 166 l 1,97,98
 1142 160 1142 160 1142 140 c 1,99,100
 1066 91 1066 91 627 12 c 1,101,102
 112 -75 112 -75 112 -143 c 1,103,104
 100 -188 100 -188 35 -220 c 1,105,-1
 26 -220 l 1,106,-1
 -25 -177 l 1,107,-1
 -43 -177 l 1,108,-1
 -86 -186 l 1,109,110
 -86 -164 -86 -164 -171 -143 c 1,111,-1
 -197 -151 l 1,112,-1
 -206 -143 l 1,113,-1
 -206 -134 l 1,114,-1
 -197 -108 l 1,115,-1
 -214 -108 l 1,116,-1
 -223 -117 l 1,117,-1
 -231 -117 l 1,118,-1
 -240 -108 l 1,119,-1
 -240 -100 l 1,120,121
 -169 155 -169 155 395 1342 c 1,122,123
 395 1428 395 1428 515 1445 c 1,124,-1
 850 1436 l 1,125,-1
 1185 1462 l 1,28,29
EndSplineSet
EndChar

StartChar: edieresis
Encoding: 235 235 171
Width: 1151
Flags: W
LayerCount: 2
Fore
SplineSet
690 1800 m 1,0,-1
 714 1800 l 2,1,2
 765 1800 765 1800 814 1732 c 1,3,-1
 814 1724 l 1,4,5
 723 1596 723 1596 710 1596 c 2,6,-1
 706 1596 l 1,7,8
 682 1604 682 1604 682 1616 c 1,9,-1
 678 1612 l 1,10,-1
 674 1612 l 2,11,12
 624 1612 624 1612 590 1656 c 1,13,-1
 590 1668 l 2,14,15
 590 1707 590 1707 662 1796 c 1,16,-1
 690 1800 l 1,0,-1
1074 1800 m 2,17,18
 1138 1800 1138 1800 1190 1732 c 1,19,-1
 1190 1728 l 2,20,21
 1190 1701 1190 1701 1094 1584 c 1,22,-1
 1082 1584 l 1,23,-1
 1062 1600 l 1,24,-1
 1042 1596 l 1,25,-1
 1034 1612 l 1,26,-1
 1018 1600 l 1,27,-1
 998 1600 l 1,28,29
 966 1624 966 1624 966 1652 c 1,30,31
 1005 1800 1005 1800 1058 1800 c 2,32,-1
 1074 1800 l 2,17,18
1165 1462 m 1,33,34
 1165 1428 1165 1428 1199 1428 c 1,35,-1
 1199 1411 l 1,36,-1
 1173 1411 l 1,37,-1
 1173 1402 l 1,38,39
 1216 1402 1216 1402 1216 1385 c 2,40,-1
 1216 1376 l 1,41,-1
 1182 1376 l 1,42,43
 1182 1350 1182 1350 1233 1350 c 1,44,-1
 1233 1333 l 1,45,-1
 1207 1333 l 1,46,-1
 1207 1325 l 1,47,-1
 1310 1325 l 1,48,-1
 1388 1282 l 1,49,-1
 1379 1273 l 1,50,-1
 1379 1265 l 1,51,52
 1422 1265 1422 1265 1422 1247 c 0,53,54
 1422 1216 1422 1216 1104 1179 c 1,55,56
 996 1179 996 1179 693 1059 c 1,57,-1
 598 870 l 1,58,-1
 607 870 l 1,59,60
 653 887 653 887 873 896 c 1,61,-1
 890 870 l 1,62,-1
 864 861 l 1,63,-1
 864 853 l 1,64,65
 933 853 933 853 933 836 c 1,66,-1
 890 818 l 1,67,-1
 890 810 l 1,68,-1
 907 810 l 1,69,-1
 899 784 l 1,70,71
 899 741 899 741 967 715 c 1,72,-1
 967 707 l 1,73,-1
 959 698 l 1,74,-1
 959 690 l 1,75,76
 1002 690 1002 690 1002 672 c 2,77,-1
 1002 664 l 2,78,79
 1002 638 1002 638 461 527 c 1,80,81
 394 527 394 527 289 269 c 1,82,-1
 907 372 l 1,83,-1
 907 355 l 1,84,-1
 916 355 l 1,85,-1
 959 364 l 1,86,87
 970 321 970 321 1002 321 c 1,88,-1
 1002 295 l 1,89,90
 981 295 981 295 959 269 c 1,91,-1
 941 269 l 1,92,-1
 941 261 l 1,93,-1
 993 261 l 1,94,-1
 993 243 l 1,95,-1
 950 243 l 1,96,-1
 959 235 l 1,97,-1
 959 226 l 1,98,-1
 950 218 l 1,99,100
 1077 218 1077 218 1087 175 c 1,101,-1
 1079 166 l 1,102,103
 1122 160 1122 160 1122 140 c 1,104,105
 1046 91 1046 91 607 12 c 1,106,107
 92 -75 92 -75 92 -143 c 1,108,109
 80 -188 80 -188 15 -220 c 1,110,-1
 6 -220 l 1,111,-1
 -45 -177 l 1,112,-1
 -63 -177 l 1,113,-1
 -106 -186 l 1,114,115
 -106 -164 -106 -164 -191 -143 c 1,116,-1
 -217 -151 l 1,117,-1
 -226 -143 l 1,118,-1
 -226 -134 l 1,119,-1
 -217 -108 l 1,120,-1
 -234 -108 l 1,121,-1
 -243 -117 l 1,122,-1
 -251 -117 l 1,123,-1
 -260 -108 l 1,124,-1
 -260 -100 l 1,125,126
 -189 155 -189 155 375 1342 c 1,127,128
 375 1428 375 1428 495 1445 c 1,129,-1
 830 1436 l 1,130,-1
 1165 1462 l 1,33,34
EndSplineSet
EndChar

StartChar: igrave
Encoding: 236 236 172
Width: 657
Flags: W
LayerCount: 2
Fore
SplineSet
763 1605 m 1,1,-1
 763 1599 l 1,2,-1
 751 1578 l 1,3,-1
 747 1578 l 1,4,-1
 743 1584 l 1,5,6
 743 1565 743 1565 728 1558 c 1,7,-1
 716 1558 l 1,8,-1
 712 1563 l 1,9,-1
 704 1552 l 1,10,-1
 692 1563 l 1,11,-1
 692 1547 l 2,12,13
 692 1526 692 1526 669 1526 c 1,14,-1
 669 1521 l 1,15,-1
 673 1516 l 1,16,-1
 673 1500 l 1,17,-1
 665 1500 l 2,18,19
 646 1500 646 1500 504 1631 c 1,20,21
 374 1715 374 1715 374 1756 c 2,22,-1
 374 1766 l 1,23,24
 391 1801 391 1801 401 1803 c 1,25,26
 401 1837 401 1837 492 1860 c 1,27,0
 666 1738 666 1738 763 1605 c 1,1,-1
484 1442 m 2,28,-1
 539 1442 l 2,29,30
 705 1442 705 1442 797 1295 c 1,31,-1
 797 1258 l 2,32,33
 797 1232 797 1232 622 945 c 1,34,-1
 217 107 l 1,35,36
 138 -38 138 -38 106 -59 c 1,37,-1
 97 -49 l 1,38,-1
 88 -49 l 1,39,-1
 69 -95 l 1,40,-1
 51 -95 l 1,41,-1
 69 -31 l 1,42,-1
 -32 -197 l 1,43,-1
 -41 -197 l 1,44,-1
 -50 -188 l 1,45,-1
 -50 -178 l 1,46,-1
 -41 -169 l 1,47,-1
 -41 -151 l 1,48,-1
 -50 -151 l 1,49,-1
 -87 -234 l 1,50,-1
 -106 -234 l 1,51,-1
 -106 -224 l 1,52,-1
 -87 -178 l 1,53,-1
 -235 -298 l 1,54,-1
 -262 -280 l 1,55,-1
 -253 -270 l 1,56,-1
 -253 -243 l 1,57,-1
 -281 -261 l 1,58,-1
 -299 -243 l 1,59,60
 -299 -122 -299 -122 364 1332 c 1,61,62
 404 1442 404 1442 484 1442 c 2,28,-1
EndSplineSet
EndChar

StartChar: iacute
Encoding: 237 237 173
Width: 657
Flags: W
LayerCount: 2
Fore
SplineSet
878 1853 m 1,0,1
 998 1830 998 1830 998 1796 c 1,2,3
 1011 1794 1011 1794 1034 1759 c 1,4,-1
 1034 1749 l 2,5,6
 1034 1708 1034 1708 862 1624 c 1,7,8
 673 1493 673 1493 648 1493 c 2,9,-1
 638 1493 l 1,10,-1
 638 1509 l 1,11,-1
 643 1514 l 1,12,-1
 643 1519 l 1,13,14
 612 1519 612 1519 612 1540 c 2,15,-1
 612 1556 l 1,16,-1
 596 1545 l 1,17,-1
 586 1556 l 1,18,-1
 581 1551 l 1,19,-1
 565 1551 l 1,20,21
 544 1558 544 1558 544 1577 c 1,22,-1
 539 1571 l 1,23,-1
 534 1571 l 1,24,-1
 518 1592 l 1,25,-1
 518 1598 l 1,26,27
 647 1731 647 1731 878 1853 c 1,0,1
472 1442 m 2,28,-1
 527 1442 l 2,29,30
 693 1442 693 1442 785 1295 c 1,31,-1
 785 1258 l 2,32,33
 785 1232 785 1232 610 945 c 1,34,-1
 205 107 l 1,35,36
 126 -38 126 -38 94 -59 c 1,37,-1
 85 -49 l 1,38,-1
 76 -49 l 1,39,-1
 57 -95 l 1,40,-1
 39 -95 l 1,41,-1
 57 -31 l 1,42,-1
 -44 -197 l 1,43,-1
 -53 -197 l 1,44,-1
 -62 -188 l 1,45,-1
 -62 -178 l 1,46,-1
 -53 -169 l 1,47,-1
 -53 -151 l 1,48,-1
 -62 -151 l 1,49,-1
 -99 -234 l 1,50,-1
 -118 -234 l 1,51,-1
 -118 -224 l 1,52,-1
 -99 -178 l 1,53,-1
 -247 -298 l 1,54,-1
 -274 -280 l 1,55,-1
 -265 -270 l 1,56,-1
 -265 -243 l 1,57,-1
 -293 -261 l 1,58,-1
 -311 -243 l 1,59,60
 -311 -122 -311 -122 352 1332 c 1,61,62
 392 1442 392 1442 472 1442 c 2,28,-1
EndSplineSet
EndChar

StartChar: idieresis
Encoding: 239 239 175
Width: 657
Flags: W
LayerCount: 2
Fore
SplineSet
450 1800 m 1,0,-1
 474 1800 l 2,1,2
 525 1800 525 1800 574 1732 c 1,3,-1
 574 1724 l 1,4,5
 483 1596 483 1596 470 1596 c 2,6,-1
 466 1596 l 1,7,8
 442 1604 442 1604 442 1616 c 1,9,-1
 438 1612 l 1,10,-1
 434 1612 l 2,11,12
 384 1612 384 1612 350 1656 c 1,13,-1
 350 1668 l 2,14,15
 350 1707 350 1707 422 1796 c 1,16,-1
 450 1800 l 1,0,-1
834 1800 m 2,17,18
 898 1800 898 1800 950 1732 c 1,19,-1
 950 1728 l 2,20,21
 950 1701 950 1701 854 1584 c 1,22,-1
 842 1584 l 1,23,-1
 822 1600 l 1,24,-1
 802 1596 l 1,25,-1
 794 1612 l 1,26,-1
 778 1600 l 1,27,-1
 758 1600 l 1,28,29
 726 1624 726 1624 726 1652 c 1,30,31
 765 1800 765 1800 818 1800 c 2,32,-1
 834 1800 l 2,17,18
442 1442 m 2,33,-1
 497 1442 l 2,34,35
 663 1442 663 1442 755 1295 c 1,36,-1
 755 1258 l 2,37,38
 755 1232 755 1232 580 945 c 1,39,-1
 175 107 l 1,40,41
 96 -38 96 -38 64 -59 c 1,42,-1
 55 -49 l 1,43,-1
 46 -49 l 1,44,-1
 27 -95 l 1,45,-1
 9 -95 l 1,46,-1
 27 -31 l 1,47,-1
 -74 -197 l 1,48,-1
 -83 -197 l 1,49,-1
 -92 -188 l 1,50,-1
 -92 -178 l 1,51,-1
 -83 -169 l 1,52,-1
 -83 -151 l 1,53,-1
 -92 -151 l 1,54,-1
 -129 -234 l 1,55,-1
 -148 -234 l 1,56,-1
 -148 -224 l 1,57,-1
 -129 -178 l 1,58,-1
 -277 -298 l 1,59,-1
 -304 -280 l 1,60,-1
 -295 -270 l 1,61,-1
 -295 -243 l 1,62,-1
 -323 -261 l 1,63,-1
 -341 -243 l 1,64,65
 -341 -122 -341 -122 322 1332 c 1,66,67
 362 1442 362 1442 442 1442 c 2,33,-1
EndSplineSet
EndChar

